<svg width="26" height="26" viewBox="0 0 26 26" fill="none" xmlns="http://www.w3.org/2000/svg">
<path d="M17.2204 24.8447C18.3958 25.0518 19.6042 25.0518 20.7796 24.8447C22.6688 24.5118 24.1905 23.2434 24.7146 21.5648L24.8258 21.2087C24.9414 20.8386 25 20.4558 25 20.0712C25 18.375 23.4831 17 21.6119 17H16.3881C14.5169 17 13 18.375 13 20.0712C13 20.4558 13.0586 20.8386 13.1742 21.2087L13.2854 21.5648C13.8095 23.2434 15.3312 24.5118 17.2204 24.8447ZM17.2204 24.8447C9.05594 23.3319 2.66811 16.9441 1.15534 8.77958M1.15534 8.77958C0.94822 7.60419 0.948221 6.39581 1.15534 5.22042C1.48824 3.33122 2.75659 1.8095 4.43521 1.28536L4.79127 1.17418C5.16137 1.05861 5.54417 1 5.92881 1C7.62499 1 9.00001 2.5169 9 4.38808L9 9.61192C9.00001 11.4831 7.62499 13 5.92881 13C5.54417 13 5.16137 12.9414 4.79127 12.8258L4.43521 12.7146C2.75659 12.1905 1.48824 10.6688 1.15534 8.77958Z" stroke="#9EB2BE" stroke-width="2"/>
</svg>
