<svg width="38" height="38" viewBox="0 0 38 38" fill="none" xmlns="http://www.w3.org/2000/svg">
<path d="M28.2919 31.2103C26.4009 31.1971 24.8248 30.0705 24.1774 28.2725C24.0748 27.9677 23.888 27.8428 23.572 27.8428C22.5295 27.8428 21.4932 27.8499 20.4559 27.8499C19.3672 27.8499 18.3596 27.8499 17.3777 27.8418C16.9539 27.8418 16.8144 28.0683 16.7272 28.3141C16.4399 29.1389 15.9054 29.8573 15.195 30.3735C14.4846 30.8897 13.632 31.1791 12.7512 31.2031C12.6906 31.2031 12.6291 31.2031 12.5675 31.2031C10.8355 31.2031 9.30154 30.2076 8.66025 28.6636C8.41195 28.0673 8.07539 27.8235 7.49875 27.8235C7.43821 27.8235 7.37459 27.8235 7.30893 27.8306C7.04625 27.8489 6.75794 27.858 6.42857 27.858C6.12075 27.858 5.80472 27.8499 5.50511 27.8428L5.27014 27.8367C4.69657 27.8245 4.30462 27.4954 4.27281 26.9996C4.25954 26.8753 4.27217 26.7495 4.30994 26.6302C4.34771 26.5109 4.40981 26.4005 4.49239 26.3058C4.59173 26.2065 4.71047 26.1283 4.84137 26.0759C4.97226 26.0235 5.11257 25.998 5.25372 26.0011C5.44867 25.995 5.658 25.9919 5.91348 25.9919H6.406H6.90158H8.13286L8.1975 25.8853C8.33294 25.6638 8.45607 25.4434 8.57407 25.2301C8.81622 24.7943 9.044 24.3819 9.34053 24.0426C9.74161 23.5732 10.2417 23.1964 10.8055 22.9388C11.3694 22.6811 11.9834 22.5489 12.6044 22.5513C13.5104 22.5432 14.3959 22.818 15.1351 23.3367C15.8743 23.8553 16.4295 24.5914 16.722 25.4403C16.8636 25.8467 17.0852 25.9991 17.5121 25.9991H17.5275C18.4612 25.9919 19.4442 25.9889 20.4487 25.9889C21.4163 25.9889 22.4033 25.9889 23.4684 25.998H23.4797C23.8583 25.998 24.0614 25.8558 24.1805 25.5054C24.4699 24.646 25.0245 23.8982 25.7659 23.3673C26.5074 22.8364 27.3984 22.5493 28.3134 22.5462C29.2346 22.5485 30.1315 22.8387 30.8761 23.3756C31.6207 23.9125 32.175 24.6685 32.4598 25.5358C32.5685 25.8589 32.7553 25.997 33.0856 25.997H33.1236C33.3422 25.9909 33.5802 25.9879 33.8726 25.9879H34.3857H34.9397H35.1614V24.2407C35.1614 22.9201 35.1614 21.5589 35.1521 20.218C35.1452 19.9783 35.0659 19.7462 34.9244 19.5516C34.6996 19.2468 34.4616 18.9421 34.2318 18.6546C34.0378 18.4088 33.8367 18.1538 33.6459 17.9009C33.5684 17.7879 33.4628 17.6966 33.3394 17.6358C33.2159 17.5749 33.0787 17.5466 32.941 17.5534C31.1833 17.5534 29.4339 17.5595 28.1062 17.5595H24.6094C23.7208 17.5595 23.4058 17.2487 23.4048 16.371V8.4709H17.9954C13.8227 8.4709 9.65006 8.4709 5.47741 8.4709C5.28355 8.47586 5.08982 8.45675 4.90076 8.41402C4.49034 8.30431 4.23279 7.91931 4.26665 7.45711C4.28312 7.25402 4.37028 7.06289 4.51325 6.91634C4.65621 6.7698 4.84613 6.67693 5.05056 6.65358C5.19508 6.63894 5.34036 6.63283 5.48561 6.6353H23.9937C24.9623 6.6353 25.2578 6.92481 25.2578 7.87258V8.91279H25.8806C26.2911 8.91279 26.7015 8.91279 27.1119 8.91279C27.5223 8.91279 27.9328 8.91279 28.3432 8.91279C29.0296 8.91279 29.5919 8.91279 30.1111 8.89857H30.1511C30.7134 8.89857 31.0623 9.11698 31.3177 9.62997C31.7754 10.5442 32.2484 11.4788 32.705 12.3727C33.1698 13.287 33.651 14.2317 34.1158 15.1652C34.4671 15.8906 34.9034 16.5726 35.4158 17.1969C35.7965 17.653 36.1823 18.1457 36.5619 18.6617C36.6804 18.8311 36.7877 19.0079 36.8831 19.191L37.0001 19.4002V27.1276C36.801 27.6284 36.4378 27.8519 35.8283 27.8519H35.7534C35.4712 27.8438 35.1624 27.8397 34.7817 27.8397H34.1846H33.5894C33.4078 27.8397 33.2262 27.8397 33.0456 27.8397H33.0292C32.7214 27.8397 32.5418 27.9677 32.4331 28.2694C31.7908 30.0532 30.1757 31.2062 28.3155 31.2062L28.2919 31.2103ZM12.6085 24.4042C11.9469 24.4052 11.3123 24.664 10.8419 25.1246C10.3715 25.5852 10.103 26.2106 10.0947 26.8656C10.0913 27.1937 10.1541 27.5193 10.2794 27.8231C10.4046 28.127 10.5899 28.403 10.8242 28.6351C11.0574 28.8693 11.3354 29.0551 11.6419 29.1817C11.9485 29.3084 12.2774 29.3733 12.6096 29.3726C13.2752 29.3724 13.9136 29.1107 14.3847 28.6451C14.8557 28.1795 15.121 27.5479 15.1224 26.8889C15.1221 26.232 14.8593 25.6019 14.3914 25.1362C13.9235 24.6705 13.2885 24.4069 12.625 24.4032L12.6085 24.4042ZM28.3073 24.4042C27.9712 24.4058 27.6388 24.4734 27.3294 24.6032C27.0199 24.7329 26.7395 24.9222 26.5045 25.16C26.2729 25.3907 26.0906 25.6652 25.9685 25.9671C25.8463 26.269 25.7868 26.5922 25.7934 26.9174C25.801 27.5724 26.0696 28.1979 26.5408 28.6578C27.0121 29.1176 27.6477 29.3745 28.3093 29.3726H28.3268C28.9918 29.3683 29.6281 29.1036 30.0966 28.6363C30.5652 28.1691 30.8279 27.5372 30.8273 26.8788C30.8216 26.2212 30.5541 25.5925 30.0828 25.1291C29.6115 24.6658 28.9746 24.4053 28.3104 24.4042H28.3073ZM27.4351 10.7393H26.1505H25.7586C25.6881 10.7402 25.6178 10.7463 25.5482 10.7575L25.4774 10.7657L25.2783 10.786V15.7148H32.3294L31.7548 14.5811C31.131 13.3499 30.542 12.1868 29.9315 11.0105C29.8289 10.8195 29.5468 10.7464 29.3908 10.7443C28.8193 10.7403 28.1975 10.7382 27.4351 10.7382V10.7393Z" fill="white"/>
<path d="M4.66575 17.6014C3.8449 17.6014 3.02098 17.6014 2.19397 17.6014C2.01155 17.6079 1.82899 17.5929 1.65016 17.5567C1.46659 17.5027 1.30492 17.3928 1.18827 17.2424C1.07162 17.0921 1.00595 16.9091 1.00066 16.7196C0.993206 16.5258 1.04908 16.3347 1.15998 16.1748C1.27088 16.0148 1.43089 15.8946 1.6163 15.8318C1.77798 15.7877 1.94523 15.7668 2.11291 15.7698H6.83279H11.5527C11.7196 15.7668 11.886 15.7887 12.0462 15.8348C12.2404 15.9024 12.4059 16.0328 12.5161 16.2049C12.6263 16.3771 12.6748 16.5809 12.6537 16.7836C12.6328 16.9875 12.5422 17.1783 12.3968 17.3243C12.2514 17.4702 12.06 17.5626 11.8543 17.5861C11.7091 17.5999 11.5631 17.6053 11.4172 17.6024H4.66986L4.66575 17.6014Z" fill="white"/>
<path d="M5.88982 13.1341C5.21809 13.1341 4.54636 13.1324 3.87463 13.129C3.7205 13.1332 3.56746 13.1023 3.42728 13.0388C3.28711 12.9752 3.16354 12.8806 3.06609 12.7623C2.98051 12.6511 2.92223 12.5217 2.89588 12.3844C2.86952 12.247 2.87581 12.1055 2.91424 11.971C2.96043 11.797 3.05879 11.641 3.19635 11.5235C3.33392 11.406 3.50422 11.3325 3.68481 11.3127C3.71238 11.3092 3.74012 11.3072 3.76792 11.3066H9.18553C10.9185 11.3066 12.3294 11.3066 13.6253 11.3127C13.748 11.3103 13.8699 11.3333 13.9832 11.3802C14.0964 11.4271 14.1985 11.4968 14.283 11.585C14.3707 11.6826 14.4369 11.7973 14.4773 11.9216C14.5178 12.046 14.5316 12.1773 14.518 12.3072C14.479 12.7999 14.0757 13.1321 13.5135 13.1331C12.8397 13.1331 12.1649 13.1331 11.489 13.1331H5.88982V13.1341Z" fill="white"/>
<path d="M6.36685 22.0868C5.44955 22.0868 4.60099 22.0868 3.7709 22.0736C3.65248 22.0724 3.53547 22.048 3.42663 22.0018C3.31778 21.9556 3.21928 21.8885 3.13681 21.8044C2.96524 21.6292 2.87046 21.3941 2.8731 21.1502C2.87403 21.0308 2.8989 20.9127 2.94626 20.8029C2.99362 20.6931 3.06254 20.5936 3.14902 20.5104C3.23549 20.4271 3.33781 20.3617 3.45002 20.3179C3.56224 20.2741 3.68212 20.2528 3.80272 20.2552C4.11054 20.2491 4.45324 20.2461 4.86366 20.2461H5.664H6.24576H6.4674C6.73725 20.2461 7.00814 20.2461 7.27902 20.2461C7.5499 20.2461 7.8177 20.2461 8.08653 20.2461C8.48977 20.2461 8.82015 20.2461 9.129 20.2613C9.27353 20.2639 9.41536 20.3006 9.54263 20.3684C9.6699 20.4363 9.77891 20.5333 9.86058 20.6514C9.9408 20.7695 9.99117 20.905 10.0074 21.0465C10.0237 21.1879 10.0053 21.3311 9.95395 21.4641C9.80825 21.8613 9.5148 22.0736 9.1054 22.0736C8.11422 22.0837 7.22258 22.0868 6.36685 22.0868Z" fill="white"/>
</svg>
