<svg width="32" height="32" viewBox="0 0 32 32" fill="none" xmlns="http://www.w3.org/2000/svg">
<path d="M6.65313 24.6156H9.06719V27.4422H22.7781V24.6156H25.1922C26.6547 24.6156 27.8453 23.425 27.8453 21.9625V13.4828C27.8453 12.0203 26.6547 10.8297 25.1922 10.8297H22.8625V7.60469L19.2625 4H8.55625V10.8297H6.65313C5.19063 10.8297 4 12.0203 4 13.4828V21.9625C4 23.425 5.19063 24.6156 6.65313 24.6156ZM21.7469 26.4109H10.1031V20.4344H21.7516V26.4109H21.7469ZM9.5875 5.03125H18.8359L21.8359 8.03125V10.8297H9.5875V5.03125ZM5.03125 13.4828C5.03125 12.5875 5.75781 11.8609 6.65313 11.8609H8.55156V11.8937H9.58281V11.8609H25.1922C26.0875 11.8609 26.8141 12.5875 26.8141 13.4828V21.9625C26.8141 22.8578 26.0875 23.5844 25.1922 23.5844H22.7781V19.4031H9.07188V23.5844H6.65313C5.75781 23.5844 5.03125 22.8578 5.03125 21.9625V13.4828Z" fill="#D80043" stroke="#D80043" stroke-width="0.7"/>
</svg>
