<svg width="32" height="32" viewBox="0 0 32 32" fill="none" xmlns="http://www.w3.org/2000/svg">
<path d="M8 27.6621H11.2629C11.6883 27.6621 12.1111 27.7116 12.5235 27.8106L15.9711 28.6297C16.7192 28.8079 17.4985 28.8253 18.2543 28.6817L22.0662 27.9566C23.0732 27.7648 23.9995 27.2933 24.7254 26.6028L27.4224 24.0376C28.1925 23.3063 28.1925 22.1196 27.4224 21.3871C26.7289 20.7275 25.6309 20.6533 24.8464 21.2126L21.7032 23.4548C21.2531 23.7766 20.7054 23.9498 20.1421 23.9498H17.1069L19.0388 23.9497C20.1278 23.9497 21.0098 23.1107 21.0098 22.075V21.7001C21.0098 20.8401 20.3945 20.0902 19.5176 19.8823L16.5357 19.1732C16.0505 19.0582 15.5535 19 15.0539 19C13.8479 19 11.6649 19.9763 11.6649 19.9763L8 21.4749M3 20.9556L3 28.0444C3 28.729 3 29.0712 3.13624 29.3327C3.25608 29.5626 3.44731 29.7496 3.68251 29.8668C3.9499 30 4.29993 30 5 30H6C6.70007 30 7.0501 30 7.31749 29.8668C7.55269 29.7496 7.74392 29.5626 7.86376 29.3327C8 29.0712 8 28.729 8 28.0444V20.9556C8 20.271 8 19.9288 7.86376 19.6673C7.74392 19.4374 7.55269 19.2504 7.31749 19.1332C7.0501 19 6.70007 19 6 19H5C4.29993 19 3.9499 19 3.68251 19.1332C3.44731 19.2504 3.25608 19.4374 3.13624 19.6673C3 19.9288 3 20.271 3 20.9556Z" stroke="#D80043" stroke-width="2" stroke-linecap="round" stroke-linejoin="round"/>
<path d="M23.5 2L25.2684 5.06607L28.7308 5.80041L26.3613 8.42968L26.7328 11.9496L23.5 10.5085L20.2672 11.9496L20.6387 8.42968L18.2692 5.80041L21.7316 5.06607L23.5 2Z" stroke="#D80043" stroke-width="2" stroke-linecap="round" stroke-linejoin="round"/>
</svg>
