<svg width="206" height="55" viewBox="0 0 206 55" fill="none" xmlns="http://www.w3.org/2000/svg">
<path d="M14.4737 5.69366C14.4836 5.42177 14.4885 5.14988 14.4984 4.87305C14.4984 4.59621 14.5033 4.29466 14.5033 3.97333V1.32858C14.5033 0.878724 14.4934 0.463473 14.4737 0.0976562H16.6208C16.9317 0.0976562 17.2229 0.132261 17.4747 0.206413C17.7313 0.280565 17.9485 0.389321 18.1311 0.537625C18.3138 0.685929 18.452 0.883667 18.5556 1.1259C18.6593 1.36813 18.7086 1.66968 18.7086 2.03055C18.7086 2.2975 18.6741 2.52984 18.6 2.73252C18.526 2.93521 18.4322 3.10328 18.3039 3.25159C18.1805 3.39989 18.0275 3.51359 17.8449 3.60257C17.6622 3.69156 17.4648 3.76077 17.2575 3.80031C17.0403 3.8448 16.8083 3.86458 16.5615 3.86458H15.6928C15.5892 3.86458 15.4707 3.86458 15.3473 3.85963C15.219 3.85963 15.066 3.85469 14.8883 3.85469V3.45921H15.0907C15.1894 3.45921 15.3078 3.45921 15.451 3.46416C15.5991 3.46416 15.757 3.46416 15.9248 3.4691H16.4579C16.759 3.4691 17.0206 3.43944 17.2377 3.38506C17.4599 3.33068 17.6474 3.2417 17.7906 3.12306C17.9386 3.00442 18.0522 2.85611 18.1262 2.67815C18.2002 2.49524 18.2397 2.28267 18.2397 2.02067C18.2397 1.75866 18.2052 1.51149 18.1311 1.31869C18.0571 1.1259 17.9485 0.967706 17.8004 0.849063C17.6524 0.73042 17.4796 0.641438 17.2674 0.582116C17.0601 0.527738 16.8133 0.498077 16.5418 0.498077H15.4658C15.3276 0.498077 15.2091 0.498077 15.1055 0.503021C14.9969 0.507964 14.913 0.507964 14.8587 0.507964L14.9574 0.305282V3.34057C14.9574 3.81514 14.9574 4.25017 14.9673 4.64565C14.9722 5.04112 14.9919 5.38717 15.0068 5.67883H14.4688V5.69366H14.4737Z" fill="#FEFEFE"/>
<path d="M22.8338 5.21432C23.1003 5.11051 23.3274 4.95232 23.5149 4.74469C23.7025 4.53707 23.8506 4.27506 23.9493 3.96857C24.053 3.65713 24.1023 3.29626 24.1023 2.87606C24.1023 2.45587 24.053 2.11971 23.9493 1.80333C23.8456 1.49189 23.7025 1.23483 23.5149 1.02226C23.3274 0.809691 23.1003 0.661387 22.8338 0.557575C22.5673 0.453762 22.2662 0.409271 21.9404 0.409271C21.6147 0.409271 21.3185 0.458705 21.047 0.557575C20.7756 0.661387 20.5485 0.809691 20.361 1.02226C20.1734 1.22989 20.0253 1.49189 19.9266 1.80333C19.8229 2.11477 19.7687 2.4707 19.7687 2.87606C19.7687 3.28142 19.818 3.65713 19.9217 3.97351C20.0253 4.28495 20.1685 4.54201 20.356 4.75458C20.5436 4.9622 20.7756 5.11545 21.047 5.22421C21.3185 5.32802 21.6196 5.37745 21.9404 5.37745C22.2612 5.37745 22.5673 5.32802 22.8338 5.21926V5.21432ZM24.4528 3.89441C24.3738 4.20585 24.2603 4.47774 24.1072 4.71503C23.9592 4.95232 23.7716 5.15005 23.5643 5.3033C23.3471 5.46149 23.1053 5.58014 22.8338 5.66418C22.5623 5.74821 22.2612 5.78776 21.9355 5.78776C21.6097 5.78776 21.3234 5.74327 21.047 5.66418C20.7756 5.58014 20.5337 5.46149 20.3165 5.3033C20.0994 5.14511 19.9217 4.95232 19.7687 4.71503C19.6156 4.47774 19.5021 4.20585 19.4231 3.89441C19.3442 3.58298 19.3047 3.24682 19.3047 2.86617C19.3047 2.48553 19.3442 2.15431 19.4281 1.84782C19.512 1.54132 19.6255 1.27932 19.7785 1.04698C19.9315 0.814635 20.1142 0.62184 20.3215 0.463649C20.5288 0.305458 20.7756 0.191758 21.052 0.117606C21.3284 0.043454 21.6196 0.00390625 21.9355 0.00390625C22.3353 0.00390625 22.7055 0.0681713 23.0263 0.186815C23.3471 0.310401 23.6285 0.493309 23.8605 0.730596C24.0875 0.972826 24.2701 1.27438 24.3935 1.62536C24.5169 1.98129 24.5811 2.3916 24.5811 2.86123C24.5811 3.24188 24.5416 3.58298 24.4626 3.88947H24.4577L24.4528 3.89441Z" fill="#FEFEFE"/>
<path d="M27.9722 0.0971043C28.293 0.0971043 28.5793 0.131709 28.8162 0.19103C29.0531 0.255295 29.2506 0.349221 29.4233 0.482695C29.5862 0.616168 29.7195 0.78919 29.8034 0.996815C29.8873 1.20444 29.9268 1.45656 29.9268 1.74328C29.9268 1.98551 29.8873 2.20796 29.8034 2.40076C29.7195 2.59356 29.601 2.75175 29.4431 2.88028C29.2851 3.00881 29.0877 3.11262 28.8409 3.19171C28.604 3.27081 28.3177 3.31036 27.9969 3.3153L28.5349 3.167V3.35485L27.9969 3.24115C28.3078 3.26587 28.5645 3.29058 28.7619 3.32519C28.9593 3.35485 29.1321 3.40923 29.2604 3.49327C29.3888 3.57731 29.5023 3.70089 29.5961 3.85908C29.6849 4.01727 29.7836 4.22984 29.8774 4.50173C29.9416 4.69947 30.0008 4.87249 30.06 5.0208C30.1193 5.1691 30.1686 5.30258 30.213 5.41628C30.2575 5.52997 30.3019 5.6239 30.3364 5.69311H29.9218C29.8774 5.69311 29.8429 5.68322 29.8132 5.66345C29.7836 5.64862 29.7639 5.61896 29.7441 5.58435C29.7293 5.54975 29.7096 5.50031 29.6948 5.43605C29.5862 5.11472 29.4974 4.83789 29.4184 4.60555C29.3394 4.3732 29.2604 4.18535 29.1815 4.03705C29.1025 3.88874 29.0186 3.76516 28.9149 3.67617C28.8113 3.58719 28.6928 3.52293 28.5595 3.48338C28.4164 3.44383 28.2535 3.429 28.0561 3.429H26.0818V3.03352C26.1212 3.03352 26.2052 3.04341 26.3286 3.04341C26.4519 3.04341 26.6 3.04341 26.7777 3.04835H27.3552C27.5625 3.04835 27.7846 3.04835 28.0117 3.0533C28.3424 3.0533 28.6138 2.99892 28.8261 2.88522C29.0433 2.77152 29.2012 2.61333 29.3098 2.41559C29.4184 2.21785 29.4677 2.00528 29.4677 1.77294C29.4677 1.5406 29.4381 1.34286 29.3838 1.17972C29.3295 1.01659 29.2358 0.888059 29.1074 0.784246C28.9791 0.680433 28.8113 0.601338 28.6138 0.54696C28.4164 0.492582 28.1746 0.462921 27.8833 0.462921H27.3009C27.1775 0.462921 27.0541 0.467864 26.9209 0.472808C26.7925 0.472808 26.6741 0.482695 26.5507 0.482695H26.2298C26.1262 0.482695 26.0521 0.482695 26.0028 0.487638L26.141 0.250352C26.141 0.779303 26.1311 1.3132 26.1262 1.8372V3.34496C26.1262 3.82448 26.1361 4.2595 26.141 4.65992C26.1459 5.0554 26.1657 5.3965 26.1805 5.66345H25.6573C25.6573 5.39156 25.6672 5.11967 25.6672 4.84283C25.6672 4.566 25.6672 4.26445 25.6721 3.94312C25.677 3.6218 25.6721 3.26587 25.6721 2.86545C25.6721 2.27223 25.6721 1.75811 25.6672 1.32308C25.6672 0.888059 25.6573 0.467864 25.6523 0.0625H27.9574L27.9821 0.0773304L27.9722 0.0971043Z" fill="#FEFEFE"/>
<path d="M33.0715 0.35081V5.27945C33.0715 5.4673 33.0764 5.60572 33.0814 5.69964H32.5779C32.5878 5.61066 32.5927 5.47224 32.5927 5.28933V0.35081H33.0666H33.0715ZM35.0014 0.0986935V0.499114H34.2216C33.9649 0.499114 33.7181 0.499114 33.4861 0.494171H31.8425C31.4624 0.494171 31.0774 0.499114 30.6875 0.504058V0.09375H35.0014V0.0986935Z" fill="#FEFEFE"/>
<path d="M36.4059 3.6788C36.554 3.6788 36.707 3.68374 36.8649 3.68374H39.0219C39.165 3.68374 39.2983 3.6788 39.4217 3.67386V4.07428H38.9725C38.8195 4.07428 38.6714 4.07428 38.5234 4.06933H36.8995C36.7465 4.06933 36.5935 4.06933 36.4454 4.07428H36.011L36.0258 3.67386C36.1295 3.67386 36.2578 3.67386 36.4059 3.6788ZM39.9054 5.69574C39.8807 5.59192 39.8314 5.45845 39.7573 5.29037C39.6833 5.12229 39.6043 4.92455 39.5155 4.69715C39.4266 4.46976 39.3279 4.23247 39.2144 3.97541C39.1009 3.71835 38.9923 3.45634 38.8787 3.1894C38.7652 2.92245 38.6517 2.67033 38.5431 2.41327C38.4345 2.16116 38.3407 1.92881 38.247 1.70636C38.1384 1.43447 38.0446 1.21695 37.9656 1.0291C37.8866 0.846194 37.8225 0.688003 37.7781 0.559473C37.7336 0.430943 37.6892 0.317243 37.6497 0.218374L37.8817 0.376565H37.5362L37.7682 0.21343C37.7336 0.322187 37.6892 0.44083 37.6448 0.56936C37.5954 0.692947 37.5313 0.851138 37.4572 1.04393C37.3832 1.23178 37.2894 1.47401 37.1759 1.76568C37.0673 2.00791 36.9538 2.28474 36.8254 2.59618C36.6971 2.90762 36.5638 3.21411 36.4355 3.52061C36.3072 3.8271 36.1788 4.12866 36.0653 4.41538C35.9469 4.69715 35.8432 4.95422 35.7494 5.16678C35.6507 5.38924 35.5865 5.56226 35.5471 5.68585H34.9844C35.0633 5.52271 35.1621 5.31509 35.2805 5.06297C35.394 4.8158 35.5174 4.53402 35.6606 4.22258C35.7988 3.91114 35.937 3.59476 36.0801 3.26355C36.2233 2.93234 36.3615 2.59618 36.4997 2.26991C36.6379 1.94364 36.7662 1.63221 36.8896 1.34548C37.013 1.05876 37.1167 0.801703 37.2055 0.589134C37.2894 0.376565 37.3585 0.203543 37.4029 0.0898438H38.0495C38.0989 0.21343 38.1729 0.381508 38.2667 0.599021C38.3605 0.81159 38.4691 1.06371 38.5875 1.34054C38.706 1.61738 38.8343 1.91893 38.9775 2.23531C39.1157 2.55169 39.2489 2.87302 39.3921 3.19928C39.5303 3.52555 39.6685 3.84193 39.8067 4.15337C39.9498 4.46481 40.0732 4.74659 40.1917 5.01354C40.3101 5.28048 40.4138 5.50294 40.5026 5.69079H39.9103L39.9054 5.69574Z" fill="#FEFEFE"/>
<path d="M41.4615 2.6555C41.7823 2.6555 42.108 2.66539 42.4338 2.66539H43.3124C43.727 2.66539 44.0577 2.61596 44.3144 2.53192C44.571 2.44788 44.7537 2.32429 44.8672 2.15127C44.9807 1.98814 45.035 1.78545 45.035 1.55311C45.035 1.27628 44.9807 1.05382 44.8573 0.895629C44.7388 0.737438 44.5562 0.623738 44.3045 0.564417C44.0478 0.500152 43.727 0.470491 43.3321 0.470491C43.0607 0.470491 42.7546 0.470491 42.4239 0.480378C42.0883 0.485321 41.7576 0.495208 41.417 0.510038L41.6638 0.277696C41.6638 0.411169 41.654 0.56936 41.649 0.757212C41.649 0.945064 41.6391 1.14775 41.6391 1.37515V3.58488C41.6391 3.83205 41.6391 4.07428 41.6441 4.31156C41.6441 4.54885 41.654 4.77625 41.654 4.97893C41.654 5.18161 41.6638 5.36947 41.6688 5.52766L41.5009 5.26565C41.8563 5.28048 42.2018 5.29037 42.5276 5.29531H43.3716C43.6826 5.29531 43.954 5.2706 44.1762 5.23105C44.3983 5.1915 44.576 5.12724 44.7142 5.0432C44.8524 4.95916 44.9461 4.84546 45.0103 4.69221C45.0745 4.53896 45.0942 4.35111 45.0942 4.12866C45.0942 3.88643 45.0399 3.68374 44.9264 3.52061C44.8129 3.35748 44.6204 3.23389 44.3588 3.14985C44.0972 3.06581 43.7467 3.02626 43.3173 3.02626H42.1031C41.881 3.02626 41.6638 3.03121 41.4466 3.03615L41.4615 2.6555ZM41.1406 5.69574C41.1505 5.31509 41.1554 4.90478 41.1653 4.45987C41.1702 4.01496 41.1702 3.49589 41.1702 2.89279V1.79534C41.1702 1.46413 41.1653 1.15269 41.1604 0.870912C41.1604 0.589134 41.1505 0.32713 41.1456 0.0898438H43.4605C43.8158 0.0898438 44.1268 0.114561 44.3785 0.163996C44.6253 0.21343 44.8425 0.292526 45.0153 0.411169C45.1781 0.524869 45.3065 0.673173 45.3756 0.841251C45.4447 1.00933 45.4891 1.22684 45.4891 1.47896C45.4891 1.6767 45.4595 1.84972 45.4052 1.99802C45.3509 2.14633 45.2768 2.27486 45.1781 2.37867C45.0794 2.48743 44.961 2.57146 44.8079 2.64067C44.6599 2.71483 44.4723 2.76426 44.2305 2.79392C43.9935 2.82358 43.7171 2.84336 43.4111 2.85819L43.9491 2.7692V2.91751L43.4111 2.84336C43.7221 2.84336 43.9935 2.85819 44.2255 2.8829C44.4526 2.90762 44.6451 2.93728 44.7931 2.99166C44.956 3.05592 45.0992 3.13996 45.2077 3.24378C45.3213 3.34759 45.4052 3.48106 45.4693 3.63925C45.5335 3.79744 45.5681 3.97047 45.5681 4.1682C45.5681 4.44009 45.5236 4.66749 45.4397 4.86523C45.3558 5.06297 45.2226 5.21622 45.0547 5.33486C44.8869 5.45351 44.6747 5.54249 44.4328 5.60181C44.186 5.65619 43.8948 5.68585 43.5592 5.68585H41.1406L41.1505 5.70068L41.1406 5.69574Z" fill="#FEFEFE"/>
<path d="M46.795 5.69366V5.22403C46.795 5.03124 46.8 4.81372 46.8 4.56161V0.740307C46.8 0.48819 46.7901 0.270678 46.7852 0.0976562H47.2935C47.2935 0.211356 47.2837 0.35966 47.2787 0.537625C47.2738 0.720533 47.2689 0.923215 47.2689 1.1605V3.69156C47.2689 3.96839 47.2689 4.22051 47.2738 4.47262C47.2738 4.7198 47.2738 4.93237 47.2787 5.11033V5.47615L47.0961 5.27347H49.3172C49.5788 5.27347 49.8256 5.26852 50.0527 5.26358V5.70355H46.7852H46.795V5.69366Z" fill="#FEFEFE"/>
<path d="M51.1744 2.69298H54.1952C54.4272 2.69298 54.6542 2.68803 54.8714 2.68803C54.8714 2.71769 54.8664 2.76218 54.8664 2.81656V3.10823C54.6493 3.10823 54.4321 3.10328 54.2001 3.10328H51.1794V2.69298H51.1744ZM50.8536 5.69366C50.8635 5.46132 50.8684 5.2092 50.8684 4.93237V0.621664C50.8684 0.423925 50.8684 0.250904 50.8536 0.0976562H54.9553V0.522794C54.6789 0.522794 54.4074 0.512907 54.1409 0.512907H51.2139L51.3373 0.280565V5.54041L51.1991 5.30313H54.1359C54.4074 5.30313 54.6739 5.29818 54.9454 5.29324V5.71838H50.8438V5.70355L50.8536 5.69366Z" fill="#FEFEFE"/>
<path d="M63.7416 2.09292H64.0723C64.0723 2.2956 64.0378 2.50323 63.9736 2.72074C63.9095 2.93331 63.8255 3.14588 63.712 3.34362C63.6034 3.5463 63.4751 3.73909 63.332 3.93189C63.1888 4.12468 63.0358 4.29276 62.8729 4.45095C62.71 4.60914 62.5521 4.73767 62.3793 4.84643L62.172 4.68824C62.3793 4.53005 62.5817 4.3422 62.7594 4.13457C62.942 3.92694 63.095 3.69955 63.2135 3.46226C63.332 3.22497 63.4307 2.99263 63.5047 2.76029C63.5787 2.52794 63.6133 2.31043 63.6084 2.09292H63.7466H63.7416ZM63.5738 5.64727C63.3418 5.59289 63.1098 5.50391 62.8779 5.4001C62.6459 5.29134 62.4139 5.15787 62.1868 4.99968C61.9598 4.84149 61.7328 4.65858 61.5008 4.4559C61.2688 4.25321 61.0368 4.02087 60.7999 3.75392C60.563 3.49192 60.326 3.21014 60.0793 2.91353C59.9657 2.785 59.8571 2.66142 59.7634 2.54277C59.6646 2.42413 59.5807 2.30054 59.5018 2.17696C59.4277 2.05337 59.3636 1.92484 59.3241 1.78148C59.2796 1.63812 59.2599 1.4997 59.2599 1.35634C59.2599 1.124 59.2994 0.931204 59.3784 0.768069C59.4573 0.604935 59.5709 0.461574 59.7239 0.342931C59.8769 0.224288 60.0595 0.140249 60.2668 0.0908142C60.4741 0.0413796 60.7209 0.0117188 60.9924 0.0117188C61.2638 0.0117188 61.486 0.0364361 61.6883 0.0858708C61.8907 0.135305 62.0684 0.209457 62.2165 0.318214C62.3645 0.422027 62.4731 0.550557 62.5373 0.698861C62.6015 0.847165 62.6409 1.02513 62.6409 1.2377C62.6409 1.4651 62.5916 1.65789 62.4929 1.82597C62.3991 1.99405 62.251 2.14235 62.0585 2.27088C61.866 2.39447 61.634 2.51311 61.3576 2.62187C61.0812 2.73063 60.7703 2.83444 60.4198 2.93825L60.2619 2.72568C60.6024 2.63176 60.8986 2.53289 61.1405 2.43402C61.3872 2.3302 61.5896 2.22639 61.7525 2.11269C61.9104 1.99899 62.0289 1.87541 62.1079 1.74193C62.1868 1.60846 62.2263 1.45521 62.2263 1.28219C62.2263 0.975695 62.1177 0.753239 61.9104 0.604935C61.7031 0.456631 61.4021 0.382479 61.0023 0.382479C60.7308 0.382479 60.4939 0.422027 60.3014 0.496179C60.1089 0.570331 59.9559 0.68403 59.8522 0.822447C59.7486 0.970751 59.6992 1.14377 59.6992 1.36129C59.6992 1.52936 59.7337 1.70733 59.8028 1.88035C59.8719 2.05337 59.9707 2.24122 60.1138 2.43896C60.2569 2.6367 60.4297 2.84927 60.6518 3.09644C60.8739 3.33373 61.1256 3.60562 61.4218 3.91211C61.6488 4.11974 61.871 4.31253 62.0832 4.4905C62.2954 4.66846 62.5225 4.81677 62.7495 4.93541C62.9766 5.05405 63.2184 5.14798 63.4702 5.21719C63.7219 5.2864 63.9934 5.321 64.2796 5.30617V5.62255C64.2796 5.66704 64.2796 5.70659 64.2846 5.74614C64.0427 5.74614 63.8009 5.71648 63.5689 5.6621L63.5738 5.64727ZM60.2619 2.98274C60.0595 3.04701 59.8719 3.11127 59.714 3.19531C59.5511 3.27935 59.4129 3.37822 59.2994 3.48203C59.1859 3.58585 59.102 3.71438 59.0378 3.84785C58.9736 3.99121 58.9391 4.13457 58.9391 4.29276C58.9391 4.51522 58.9884 4.71296 59.0921 4.88103C59.1957 5.04911 59.3487 5.18753 59.5511 5.28145C59.7535 5.37044 60.0052 5.41493 60.3063 5.41493C60.484 5.41493 60.6518 5.40504 60.8098 5.37538C60.9726 5.34572 61.1306 5.30123 61.2836 5.24191C61.4366 5.17764 61.5847 5.10843 61.7229 5.01945C61.866 4.93541 61.9944 4.83654 62.1177 4.72779L62.3102 4.89092C62.1819 5.01451 62.0437 5.13315 61.8956 5.24191C61.7476 5.35066 61.5896 5.44459 61.4267 5.52863C61.2589 5.60772 61.0763 5.67199 60.8739 5.71648C60.6715 5.75603 60.4494 5.78074 60.2175 5.78074C59.8571 5.78074 59.5511 5.72637 59.2994 5.61267C59.0477 5.49897 58.8601 5.33583 58.7219 5.12326C58.5837 4.91069 58.5195 4.64869 58.5195 4.34714C58.5195 4.11974 58.559 3.922 58.6429 3.75392C58.7268 3.58585 58.8404 3.4326 58.9884 3.30407C59.1365 3.17554 59.2994 3.06678 59.487 2.98274C59.6745 2.8987 59.8719 2.81961 60.0793 2.75534L60.2471 2.98274H60.252H60.2619Z" fill="#FEFEFE"/>
<path d="M69.8059 0.35081V5.27945C69.8059 5.4673 69.8108 5.60572 69.8157 5.69964H69.3123C69.3222 5.61066 69.3271 5.47224 69.3271 5.28933V0.35081H69.8009H69.8059ZM71.7358 0.0986935V0.499114H70.9559C70.6993 0.499114 70.4525 0.499114 70.2205 0.494171H68.5769C68.1968 0.494171 67.8118 0.499114 67.4219 0.504058V0.09375H71.7358V0.0986935Z" fill="#FEFEFE"/>
<path d="M74.8813 0.0971043C75.2021 0.0971043 75.4884 0.131709 75.7253 0.19103C75.9623 0.255295 76.1597 0.349221 76.3324 0.482695C76.4953 0.616168 76.6286 0.78919 76.7125 0.996815C76.7964 1.20444 76.8359 1.45656 76.8359 1.74328C76.8359 1.98551 76.7964 2.20796 76.7125 2.40076C76.6286 2.59356 76.5101 2.75175 76.3522 2.88028C76.1942 3.00881 75.9968 3.11262 75.75 3.19171C75.5131 3.27081 75.2268 3.31036 74.906 3.3153L75.444 3.167V3.35485L74.906 3.24115C75.2169 3.26587 75.4736 3.29058 75.671 3.32519C75.8685 3.35979 76.0412 3.40923 76.1696 3.49327C76.2979 3.57731 76.4114 3.70089 76.5052 3.85908C76.594 4.01727 76.6928 4.22984 76.7865 4.50173C76.8507 4.69947 76.9099 4.87249 76.9692 5.0208C77.0284 5.1691 77.0778 5.30258 77.1222 5.41628C77.1666 5.52997 77.211 5.6239 77.2456 5.69311H76.831C76.7865 5.69311 76.752 5.68322 76.7224 5.66345C76.6928 5.64862 76.673 5.61896 76.6533 5.58435C76.6385 5.54975 76.6187 5.50031 76.6039 5.43605C76.4953 5.11472 76.4065 4.83789 76.3275 4.60555C76.2485 4.3732 76.1696 4.18535 76.0906 4.03705C76.0116 3.88874 75.9277 3.76516 75.8241 3.67617C75.7204 3.58719 75.6019 3.52293 75.4687 3.48338C75.3255 3.44383 75.1627 3.429 74.9702 3.429H72.9958V3.03352C73.0353 3.03352 73.1192 3.04341 73.2426 3.04341C73.366 3.04341 73.5141 3.04341 73.6918 3.04835H74.2693C74.4766 3.04835 74.6987 3.04835 74.9257 3.0533C75.2564 3.0533 75.5279 2.99892 75.7401 2.88522C75.9573 2.77152 76.1153 2.61333 76.2239 2.41559C76.3324 2.21785 76.3818 2.00528 76.3818 1.77294C76.3818 1.5406 76.3522 1.34286 76.2979 1.17972C76.2436 1.01659 76.1498 0.888059 76.0215 0.784246C75.8932 0.680433 75.7253 0.601338 75.5279 0.54696C75.3305 0.492582 75.0886 0.462921 74.7974 0.462921H74.215C74.0916 0.462921 73.9682 0.467864 73.8349 0.472808C73.7066 0.472808 73.5881 0.482695 73.4647 0.482695H73.1439C73.0403 0.482695 72.9662 0.482695 72.9169 0.487638L73.0551 0.250352C73.0551 0.779303 73.0452 1.3132 73.0402 1.8372V3.34496C73.0402 3.82448 73.0501 4.2595 73.0551 4.65992C73.06 5.0554 73.0797 5.3965 73.0945 5.66345H72.5713C72.5713 5.39156 72.5812 5.11967 72.5812 4.84283C72.5812 4.566 72.5812 4.26445 72.5862 3.94312C72.5911 3.6218 72.5862 3.26587 72.5862 2.86545C72.5862 2.27223 72.5862 1.75811 72.5812 1.32308C72.5812 0.888059 72.5713 0.467864 72.5664 0.0625H74.8714L74.8863 0.0773304L74.8813 0.0971043Z" fill="#FEFEFE"/>
<path d="M78.8668 3.6788C79.0149 3.6788 79.1679 3.68374 79.3259 3.68374H81.4828C81.626 3.68374 81.7592 3.6788 81.8826 3.67386V4.07428H81.4335C81.2805 4.07428 81.1324 4.07428 80.9843 4.06933H79.3604C79.2074 4.06933 79.0593 4.06933 78.9063 4.07428H78.472L78.4868 3.67386C78.5954 3.67386 78.7188 3.67386 78.8668 3.6788ZM82.3663 5.69574C82.3417 5.59192 82.2923 5.45845 82.2183 5.29037C82.1442 5.12229 82.0652 4.92455 81.9764 4.69715C81.8876 4.46976 81.7888 4.23247 81.6753 3.97541C81.5667 3.71341 81.4532 3.45634 81.3397 3.1894C81.2262 2.92245 81.1126 2.67033 81.004 2.41327C80.8955 2.16116 80.8017 1.92881 80.7079 1.70636C80.5993 1.43447 80.5055 1.21695 80.4266 1.0291C80.3476 0.846194 80.2834 0.688003 80.239 0.559473C80.1946 0.430943 80.1501 0.317243 80.1107 0.218374L80.3426 0.376565H79.9971L80.2291 0.21343C80.1946 0.322187 80.1501 0.44083 80.1057 0.56936C80.0613 0.69789 79.9922 0.851138 79.9182 1.04393C79.8441 1.23178 79.7503 1.47401 79.6368 1.76568C79.5282 2.00791 79.4147 2.28474 79.2864 2.59618C79.158 2.90762 79.0248 3.21411 78.8964 3.52061C78.7681 3.8271 78.6398 4.12866 78.5263 4.41538C78.4127 4.69715 78.3041 4.95422 78.2104 5.16678C78.1117 5.38924 78.0475 5.56226 78.008 5.68585H77.4453C77.5243 5.52271 77.623 5.31509 77.7415 5.06297C77.855 4.8158 77.9784 4.53402 78.1215 4.22258C78.2647 3.91114 78.3979 3.59476 78.5411 3.26355C78.6842 2.93234 78.8224 2.59618 78.9606 2.26991C79.0988 1.94364 79.2271 1.63221 79.3505 1.34548C79.4739 1.05876 79.5776 0.801703 79.6664 0.589134C79.7503 0.376565 79.8194 0.203543 79.8639 0.0898438H80.5105C80.5598 0.21343 80.6339 0.381508 80.7276 0.599021C80.8214 0.81159 80.93 1.06371 81.0485 1.34054C81.1719 1.61738 81.2953 1.91893 81.4384 2.23531C81.5766 2.55169 81.7099 2.87302 81.853 3.19928C81.9912 3.52555 82.1294 3.84193 82.2676 4.15337C82.4108 4.46481 82.5342 4.74659 82.6526 5.01354C82.7711 5.28048 82.8747 5.50294 82.9636 5.69079H82.3713L82.3663 5.69574Z" fill="#FEFEFE"/>
<path d="M83.6406 5.69653C83.6406 5.49879 83.6505 5.29611 83.6505 5.08848C83.6505 4.88086 83.6505 4.66335 83.6554 4.44583V1.35122C83.6554 1.12877 83.6554 0.916197 83.6505 0.708572C83.6505 0.500946 83.6456 0.298264 83.6406 0.105469H84.154C84.1441 0.298264 84.1391 0.500946 84.1391 0.703628V5.08848C84.1391 5.29611 84.149 5.50868 84.154 5.70642H83.6406V5.69653Z" fill="#FEFEFE"/>
<path d="M85.6974 5.69366V5.22403C85.6974 5.03124 85.7023 4.81372 85.7023 4.56161V0.740307C85.7023 0.48819 85.6924 0.270678 85.6875 0.0976562H86.1959C86.1959 0.211356 86.186 0.35966 86.1811 0.537625C86.1761 0.720533 86.1712 0.923215 86.1712 1.1605V3.69156C86.1712 3.96839 86.1712 4.22051 86.1761 4.47262C86.1761 4.7198 86.1761 4.93237 86.1811 5.11033V5.47615L85.9985 5.27347H88.2196C88.4812 5.27347 88.728 5.26852 88.955 5.26358V5.70355H85.6875H85.6974V5.69366Z" fill="#FEFEFE"/>
<path d="M90.0885 2.69298H93.1092C93.3412 2.69298 93.5683 2.68803 93.7854 2.68803C93.7854 2.71769 93.7805 2.76218 93.7805 2.81656V3.10823C93.5633 3.10823 93.3462 3.10328 93.1142 3.10328H90.0934V2.69298H90.0885ZM89.7677 5.69366C89.7776 5.46132 89.7825 5.2092 89.7825 4.93237V0.621664C89.7825 0.423925 89.7825 0.250904 89.7677 0.0976562H93.8694V0.522794C93.593 0.522794 93.3215 0.512907 93.0549 0.512907H90.128L90.2514 0.280565V5.54041L90.1132 5.30313H93.05C93.3215 5.30313 93.588 5.29818 93.8595 5.29324V5.71838H89.7578V5.70355L89.7677 5.69366Z" fill="#FEFEFE"/>
<path d="M97.4672 0.0971043C97.7881 0.0971043 98.0743 0.131709 98.3113 0.19103C98.5482 0.255295 98.7456 0.349221 98.9184 0.482695C99.0813 0.616168 99.2145 0.78919 99.2984 0.996815C99.3823 1.20444 99.4218 1.45656 99.4218 1.74328C99.4218 1.98551 99.3823 2.20796 99.2984 2.40076C99.2145 2.59356 99.0961 2.75175 98.9381 2.88028C98.7802 3.00881 98.5827 3.11262 98.3359 3.19171C98.099 3.27081 97.8127 3.31036 97.4919 3.3153L98.0299 3.167V3.35485L97.4919 3.24115C97.8029 3.26587 98.0595 3.29058 98.257 3.32519C98.4544 3.35485 98.6272 3.40923 98.7555 3.49327C98.8838 3.57731 98.9973 3.70089 99.0911 3.85908C99.18 4.01727 99.2787 4.22984 99.3725 4.50173C99.4366 4.69947 99.4959 4.87249 99.5551 5.0208C99.6143 5.1691 99.6637 5.30258 99.7081 5.41628C99.7525 5.52997 99.797 5.6239 99.8315 5.69311H99.4169C99.3725 5.69311 99.3379 5.68322 99.3083 5.66345C99.2787 5.64862 99.259 5.61896 99.2392 5.58435C99.2244 5.54975 99.2047 5.50031 99.1898 5.43605C99.0862 5.11472 98.9924 4.83789 98.9134 4.60555C98.8345 4.3732 98.7555 4.18535 98.6765 4.03705C98.5975 3.88874 98.5136 3.76516 98.41 3.67617C98.3063 3.58719 98.1879 3.52293 98.0546 3.48338C97.9115 3.44383 97.7486 3.429 97.5561 3.429H95.5818V3.03352C95.6212 3.03352 95.7052 3.04341 95.8285 3.04341C95.9519 3.04341 96.1 3.04341 96.2777 3.04835H96.8552C97.0625 3.04835 97.2846 3.04835 97.5117 3.0533C97.8424 3.0533 98.1138 2.99892 98.3261 2.88522C98.5433 2.77152 98.7012 2.61333 98.8098 2.41559C98.9184 2.21785 98.9677 2.00528 98.9677 1.77294C98.9677 1.5406 98.9381 1.34286 98.8838 1.17972C98.8295 1.01659 98.7358 0.888059 98.6074 0.784246C98.4791 0.680433 98.3113 0.601338 98.1138 0.54696C97.9164 0.492582 97.6746 0.462921 97.3833 0.462921H96.8009C96.6775 0.462921 96.5541 0.467864 96.4208 0.472808C96.2925 0.472808 96.1741 0.482695 96.0507 0.482695H95.7298C95.6262 0.482695 95.5521 0.482695 95.5028 0.487638L95.641 0.250352C95.641 0.779303 95.6311 1.3132 95.6262 1.8372V3.34496C95.6262 3.82448 95.636 4.2595 95.641 4.65992C95.6459 5.0554 95.6657 5.3965 95.6805 5.66345H95.1573C95.1573 5.39156 95.1672 5.11967 95.1672 4.84283C95.1672 4.566 95.1671 4.26445 95.1721 3.94312V2.86545C95.1721 2.27223 95.1721 1.75811 95.1672 1.32308C95.1622 0.888059 95.1573 0.467864 95.1523 0.0625H97.4574L97.4722 0.0773304L97.4672 0.0971043Z" fill="#FEFEFE"/>
<path d="M106.073 0.0971043C106.394 0.0971043 106.68 0.131709 106.917 0.19103C107.154 0.255295 107.351 0.349221 107.524 0.482695C107.687 0.616168 107.82 0.78919 107.904 0.996815C107.988 1.20444 108.027 1.45656 108.027 1.74328C108.027 1.98551 107.988 2.20796 107.904 2.40076C107.82 2.59356 107.702 2.75175 107.544 2.88028C107.386 3.00881 107.188 3.11262 106.941 3.19171C106.704 3.27081 106.418 3.31036 106.097 3.3153L106.635 3.167V3.35485L106.097 3.24115C106.408 3.26587 106.665 3.29058 106.862 3.32519C107.06 3.35979 107.233 3.40923 107.361 3.49327C107.489 3.57731 107.603 3.70089 107.697 3.85908C107.785 4.01727 107.884 4.22984 107.978 4.50173C108.042 4.69947 108.101 4.87249 108.161 5.0208C108.22 5.1691 108.269 5.30258 108.314 5.41628C108.358 5.52997 108.402 5.6239 108.437 5.69311H108.022C107.978 5.69311 107.943 5.68322 107.914 5.66345C107.884 5.64862 107.864 5.61896 107.845 5.58435C107.83 5.54975 107.81 5.50031 107.795 5.43605C107.687 5.11472 107.598 4.83789 107.519 4.60555C107.44 4.3732 107.361 4.18535 107.282 4.03705C107.203 3.88874 107.119 3.76516 107.015 3.67617C106.912 3.58719 106.793 3.52293 106.66 3.48338C106.517 3.44383 106.354 3.429 106.162 3.429H104.187V3.03352C104.227 3.03352 104.311 3.04341 104.434 3.04341C104.557 3.04341 104.705 3.04341 104.883 3.04835H105.461C105.668 3.04835 105.89 3.04835 106.117 3.0533C106.448 3.0533 106.719 2.99892 106.932 2.88522C107.149 2.77152 107.307 2.61333 107.415 2.41559C107.524 2.21785 107.573 2.00528 107.573 1.77294C107.573 1.5406 107.544 1.34286 107.489 1.17972C107.435 1.01659 107.341 0.888059 107.213 0.784246C107.085 0.680433 106.917 0.601338 106.719 0.54696C106.522 0.492582 106.28 0.462921 105.989 0.462921H105.406C105.283 0.462921 105.16 0.467864 105.026 0.472808C104.898 0.472808 104.78 0.482695 104.656 0.482695H104.335C104.232 0.482695 104.158 0.482695 104.108 0.487638L104.246 0.250352C104.246 0.779303 104.237 1.3132 104.232 1.8372V3.34496C104.232 3.82448 104.242 4.2595 104.246 4.65992C104.251 5.0554 104.271 5.3965 104.286 5.66345H103.763C103.763 5.39156 103.773 5.11967 103.773 4.84283C103.773 4.566 103.773 4.26445 103.778 3.94312C103.782 3.6218 103.778 3.26587 103.778 2.86545C103.778 2.27223 103.778 1.75811 103.773 1.32308C103.773 0.888059 103.763 0.467864 103.758 0.0625H106.063L106.078 0.0773304L106.073 0.0971043Z" fill="#FEFEFE"/>
<path d="M109.753 2.69298H112.773C113.005 2.69298 113.232 2.68803 113.45 2.68803C113.45 2.71769 113.445 2.76218 113.445 2.81656V3.10823C113.227 3.10823 113.01 3.10328 112.778 3.10328H109.758V2.69298H109.753ZM109.432 5.69366C109.442 5.46132 109.447 5.2092 109.447 4.93237V0.621664C109.447 0.423925 109.447 0.250904 109.432 0.0976562H113.533V0.522794C113.257 0.522794 112.986 0.512907 112.719 0.512907H109.792L109.915 0.280565V5.54041L109.777 5.30313H112.714C112.986 5.30313 113.252 5.29818 113.524 5.29324V5.71838H109.422V5.70355L109.432 5.69366Z" fill="#FEFEFE"/>
<path d="M117.58 5.334C117.797 5.28457 117.975 5.21041 118.118 5.1066C118.261 5.00279 118.365 4.88415 118.434 4.74573C118.498 4.60237 118.533 4.43429 118.533 4.23655C118.533 4.10802 118.518 3.98938 118.483 3.87073C118.449 3.75704 118.389 3.65817 118.301 3.56424C118.212 3.47526 118.098 3.40111 117.955 3.3319C117.812 3.26763 117.644 3.20831 117.442 3.14899C117.239 3.09461 117.002 3.04518 116.721 3.01551C116.41 2.98091 116.134 2.93148 115.902 2.86721C115.67 2.80295 115.472 2.73374 115.314 2.63981C115.152 2.55083 115.018 2.44702 114.915 2.32837C114.811 2.20973 114.737 2.0812 114.692 1.92795C114.653 1.77965 114.628 1.61651 114.628 1.43855C114.628 1.19138 114.673 0.978806 114.767 0.805785C114.855 0.632764 114.989 0.48446 115.161 0.360873C115.339 0.237286 115.546 0.148304 115.803 0.0889824C116.05 0.0247173 116.351 0 116.692 0C116.988 0 117.244 0.0247173 117.476 0.0692085C117.708 0.1137 117.906 0.177965 118.078 0.262004C118.246 0.346043 118.389 0.454799 118.498 0.578386C118.607 0.701972 118.691 0.85522 118.74 1.0233C118.789 1.19138 118.819 1.38911 118.819 1.60168V2.03671C118.819 2.03671 118.779 2.03176 118.755 2.03176H118.38C118.38 1.96256 118.389 1.8884 118.389 1.8192V1.63629C118.389 1.43855 118.355 1.25564 118.281 1.09745C118.207 0.939259 118.098 0.805785 117.965 0.692085C117.822 0.578386 117.649 0.49929 117.432 0.444912C117.215 0.390534 116.968 0.360873 116.677 0.360873C116.41 0.360873 116.178 0.38559 115.981 0.430082C115.783 0.474573 115.611 0.538838 115.482 0.622877C115.354 0.706916 115.25 0.815672 115.181 0.949146C115.112 1.08262 115.077 1.24081 115.077 1.41877C115.077 1.53742 115.087 1.65112 115.117 1.74999C115.147 1.8538 115.191 1.94773 115.265 2.03671C115.334 2.12075 115.433 2.20479 115.571 2.27894C115.709 2.35309 115.877 2.4223 116.079 2.48162C116.287 2.54589 116.543 2.59038 116.845 2.61509C117.239 2.66947 117.57 2.73868 117.842 2.82766C118.113 2.9117 118.335 3.02046 118.498 3.14899C118.661 3.27752 118.779 3.42582 118.853 3.59884C118.927 3.77187 118.962 3.9696 118.962 4.197C118.962 4.39969 118.932 4.58754 118.873 4.75562C118.809 4.92369 118.725 5.072 118.612 5.19558C118.498 5.31917 118.35 5.42298 118.177 5.50702C117.999 5.58612 117.802 5.65038 117.575 5.68993C117.348 5.72948 117.101 5.7542 116.82 5.7542C116.504 5.7542 116.218 5.72948 115.976 5.68499C115.734 5.6405 115.517 5.56634 115.329 5.48231C115.142 5.39332 114.989 5.27962 114.87 5.14121C114.752 5.00279 114.663 4.84954 114.594 4.66663C114.53 4.48372 114.5 4.28599 114.5 4.07342V3.93994C114.5 3.9004 114.505 3.86085 114.51 3.8213C114.51 3.78175 114.515 3.74715 114.515 3.70266H114.974C114.974 3.75209 114.964 3.80647 114.964 3.86085V3.98938C114.964 4.29587 115.033 4.54799 115.161 4.75067C115.29 4.95335 115.497 5.11155 115.773 5.2203C116.05 5.32906 116.395 5.37849 116.81 5.37849C117.111 5.37849 117.363 5.35377 117.58 5.30434V5.32906V5.334Z" fill="#FEFEFE"/>
<path d="M121.939 0.35081V5.27945C121.939 5.4673 121.944 5.60572 121.949 5.69964H121.445C121.455 5.61066 121.46 5.47224 121.46 5.28933V0.35081H121.934H121.939ZM123.869 0.0986935V0.499114H123.089C122.832 0.499114 122.585 0.499114 122.353 0.494171H120.71C120.33 0.494171 119.945 0.499114 119.555 0.504058V0.09375H123.869V0.0986935Z" fill="#FEFEFE"/>
<path d="M127.019 0.0971043C127.34 0.0971043 127.626 0.131709 127.863 0.19103C128.1 0.255295 128.297 0.349221 128.47 0.482695C128.633 0.616168 128.766 0.78919 128.85 0.996815C128.934 1.20444 128.974 1.45656 128.974 1.74328C128.974 1.98551 128.934 2.20796 128.85 2.40076C128.766 2.59356 128.648 2.75175 128.49 2.88028C128.332 3.00881 128.135 3.11262 127.888 3.19171C127.651 3.27081 127.365 3.31036 127.044 3.3153L127.582 3.167V3.35485L127.044 3.24115C127.355 3.26587 127.611 3.29058 127.809 3.32519C128.006 3.35979 128.179 3.40923 128.307 3.49327C128.436 3.57731 128.549 3.70089 128.643 3.85908C128.732 4.01727 128.831 4.22984 128.924 4.50173C128.988 4.69947 129.048 4.87249 129.107 5.0208C129.166 5.1691 129.215 5.30258 129.26 5.41628C129.304 5.52997 129.349 5.6239 129.383 5.69311H128.969C128.924 5.69311 128.89 5.68322 128.86 5.66345C128.831 5.64862 128.811 5.61896 128.791 5.58435C128.776 5.54975 128.756 5.50031 128.742 5.43605C128.633 5.11472 128.544 4.83789 128.465 4.60555C128.386 4.3732 128.307 4.18535 128.228 4.03705C128.149 3.88874 128.065 3.76516 127.962 3.67617C127.858 3.58719 127.74 3.52293 127.606 3.48338C127.463 3.44383 127.3 3.429 127.103 3.429H125.129V3.03352C125.168 3.03352 125.252 3.04341 125.375 3.04341C125.499 3.04341 125.647 3.04341 125.825 3.04835H126.402C126.609 3.04835 126.831 3.04835 127.059 3.0533C127.389 3.0533 127.661 2.99892 127.873 2.88522C128.09 2.77152 128.248 2.61333 128.357 2.41559C128.465 2.21785 128.515 2.00528 128.515 1.77294C128.515 1.5406 128.485 1.34286 128.431 1.17972C128.376 1.01659 128.283 0.888059 128.154 0.784246C128.026 0.680433 127.858 0.601338 127.661 0.54696C127.463 0.492582 127.221 0.462921 126.93 0.462921H126.348C126.224 0.462921 126.101 0.467864 125.968 0.472808C125.839 0.472808 125.721 0.482695 125.598 0.482695H125.277C125.173 0.482695 125.099 0.482695 125.05 0.487638L125.188 0.250352C125.188 0.779303 125.178 1.3132 125.173 1.8372V3.34496C125.173 3.82448 125.183 4.2595 125.188 4.65992C125.193 5.0554 125.213 5.3965 125.227 5.66345H124.704C124.704 5.39156 124.714 5.11967 124.714 4.84283C124.714 4.566 124.714 4.26445 124.719 3.94312C124.724 3.6218 124.719 3.26587 124.719 2.86545C124.719 2.27223 124.719 1.75811 124.714 1.32308C124.709 0.888059 124.704 0.467864 124.699 0.0625H127.004L127.029 0.0773304L127.019 0.0971043Z" fill="#FEFEFE"/>
<path d="M133.506 5.21432C133.772 5.11051 133.999 4.95232 134.187 4.74469C134.374 4.53707 134.522 4.27506 134.621 3.96857C134.725 3.65713 134.774 3.29626 134.774 2.87606C134.774 2.45587 134.725 2.11971 134.621 1.80333C134.518 1.49189 134.374 1.23483 134.187 1.02226C133.999 0.809691 133.772 0.661387 133.506 0.557575C133.239 0.453762 132.938 0.409271 132.612 0.409271C132.287 0.409271 131.99 0.458705 131.719 0.557575C131.447 0.661387 131.22 0.809691 131.028 1.02226C130.84 1.22989 130.692 1.49189 130.594 1.80333C130.485 2.11477 130.436 2.4707 130.436 2.87606C130.436 3.28142 130.485 3.65713 130.589 3.97351C130.692 4.28989 130.835 4.54201 131.023 4.75458C131.211 4.9622 131.443 5.11545 131.714 5.22421C131.985 5.33296 132.287 5.37745 132.607 5.37745C132.928 5.37745 133.234 5.32802 133.501 5.21926H133.506V5.21432ZM135.125 3.89441C135.046 4.20585 134.932 4.47774 134.779 4.71503C134.631 4.95232 134.443 5.15005 134.236 5.3033C134.029 5.45655 133.777 5.58014 133.506 5.66418C133.234 5.74821 132.933 5.78776 132.607 5.78776C132.282 5.78776 131.99 5.74327 131.719 5.66418C131.447 5.58508 131.206 5.46149 130.988 5.3033C130.771 5.14511 130.594 4.95232 130.441 4.71503C130.288 4.47774 130.174 4.20585 130.095 3.89441C130.016 3.58298 129.977 3.24682 129.977 2.86617C129.977 2.48553 130.016 2.15431 130.1 1.84782C130.184 1.54132 130.297 1.27932 130.45 1.04698C130.603 0.814635 130.786 0.62184 130.993 0.463649C131.201 0.305458 131.447 0.191758 131.724 0.117606C131.995 0.043454 132.291 0.00390625 132.607 0.00390625C133.007 0.00390625 133.377 0.0681713 133.698 0.186815C134.019 0.310401 134.3 0.493309 134.532 0.730596C134.764 0.972826 134.942 1.27438 135.065 1.62536C135.189 1.98129 135.253 2.3916 135.253 2.86123C135.253 3.24188 135.213 3.58298 135.135 3.88947H135.13L135.125 3.89441Z" fill="#FEFEFE"/>
<path d="M139.424 5.21432C139.69 5.11051 139.917 4.95232 140.105 4.74469C140.292 4.53707 140.44 4.27506 140.539 3.96857C140.643 3.65713 140.692 3.29626 140.692 2.87606C140.692 2.45587 140.643 2.11971 140.539 1.80333C140.435 1.49189 140.292 1.23483 140.105 1.02226C139.917 0.809691 139.69 0.661387 139.424 0.557575C139.157 0.453762 138.856 0.409271 138.53 0.409271C138.204 0.409271 137.908 0.458705 137.637 0.557575C137.365 0.661387 137.138 0.809691 136.946 1.02226C136.758 1.22989 136.61 1.49189 136.512 1.80333C136.408 2.11477 136.354 2.4707 136.354 2.87606C136.354 3.28142 136.403 3.65713 136.507 3.97351C136.61 4.28495 136.753 4.54201 136.941 4.75458C137.128 4.9622 137.36 5.11545 137.632 5.22421C137.903 5.33296 138.204 5.37745 138.525 5.37745C138.846 5.37745 139.152 5.32802 139.419 5.21926H139.424V5.21432ZM141.043 3.89441C140.964 4.20585 140.85 4.47774 140.697 4.71503C140.549 4.95232 140.361 5.15005 140.154 5.3033C139.937 5.46149 139.695 5.58014 139.424 5.66418C139.152 5.74821 138.851 5.78776 138.525 5.78776C138.2 5.78776 137.908 5.74327 137.637 5.66418C137.365 5.58508 137.124 5.46149 136.906 5.3033C136.689 5.14511 136.512 4.95232 136.359 4.71503C136.205 4.47774 136.092 4.20585 136.013 3.89441C135.934 3.58298 135.895 3.24682 135.895 2.86617C135.895 2.48553 135.934 2.15431 136.018 1.84782C136.102 1.54132 136.215 1.27932 136.368 1.04698C136.521 0.814635 136.704 0.62184 136.911 0.463649C137.119 0.305458 137.365 0.191758 137.642 0.117606C137.913 0.043454 138.209 0.00390625 138.525 0.00390625C138.925 0.00390625 139.295 0.0681713 139.616 0.186815C139.937 0.305458 140.218 0.493309 140.45 0.730596C140.677 0.972826 140.86 1.27438 140.983 1.62536C141.107 1.98129 141.171 2.3916 141.171 2.86123C141.171 3.24188 141.131 3.58298 141.052 3.88947H141.048L141.043 3.89441Z" fill="#FEFEFE"/>
<path d="M142.27 4.42917V2.88681C142.27 2.29854 142.27 1.74981 142.265 1.30984C142.26 0.869874 142.255 0.46451 142.25 0.09375H142.872C142.941 0.217337 143.035 0.410132 143.168 0.672136C143.292 0.934139 143.44 1.23569 143.603 1.57679C143.766 1.91789 143.943 2.28371 144.126 2.6693C144.308 3.05983 144.496 3.44542 144.674 3.83101C144.738 3.94965 144.812 4.09796 144.881 4.26604C144.955 4.43411 145.029 4.60714 145.108 4.78016C145.182 4.95318 145.246 5.11137 145.296 5.25473L145.108 5.08665H145.384L145.182 5.24484C145.246 5.10148 145.305 4.95812 145.375 4.80487C145.444 4.65163 145.518 4.49344 145.592 4.3303C145.666 4.16717 145.735 4.00898 145.809 3.85079C145.997 3.48002 146.179 3.09938 146.357 2.71379C146.539 2.3282 146.707 1.96732 146.865 1.63117C147.023 1.29007 147.166 0.993461 147.29 0.72157C147.413 0.454623 147.517 0.246997 147.596 0.0986935H148.163C148.163 0.46451 148.153 0.874818 148.153 1.31479V4.43411C148.153 4.87408 148.163 5.29428 148.168 5.6947H147.66C147.67 5.38326 147.675 5.07677 147.675 4.7851C147.675 4.49344 147.68 4.20177 147.685 3.90516C147.685 3.6135 147.694 3.307 147.694 3.00051V2.01676C147.694 1.82891 147.694 1.63117 147.704 1.43343C147.714 1.23569 147.714 1.03795 147.719 0.8501C147.724 0.662249 147.724 0.484284 147.724 0.311263L147.882 0.612814L147.536 0.543606L147.768 0.296432C147.739 0.415075 147.694 0.543606 147.645 0.682023C147.596 0.82044 147.536 0.958857 147.482 1.09233C147.428 1.23569 147.369 1.36916 147.314 1.51252C147.26 1.65589 147.196 1.78936 147.132 1.92283C147.063 2.06619 146.969 2.26393 146.855 2.50122C146.742 2.74345 146.618 3.00545 146.485 3.28723C146.352 3.56901 146.219 3.85079 146.085 4.14739C145.947 4.43906 145.814 4.71589 145.686 4.98778C145.557 5.25967 145.444 5.49696 145.34 5.6947H145.078C144.97 5.49202 144.851 5.24484 144.718 4.95318C144.58 4.66151 144.437 4.35996 144.289 4.03864C144.141 3.71731 143.993 3.41082 143.859 3.11421C143.721 2.81266 143.598 2.5556 143.489 2.33314C143.381 2.11068 143.306 1.94755 143.262 1.84374C143.198 1.71026 143.139 1.57679 143.07 1.44332C143 1.31479 142.941 1.17637 142.882 1.03795C142.828 0.894592 142.773 0.766061 142.724 0.642475C142.68 0.518888 142.625 0.395301 142.576 0.276658L142.838 0.509001L142.536 0.558436L142.635 0.286545C142.645 0.420019 142.65 0.568323 142.65 0.726514C142.65 0.884705 142.655 1.05278 142.66 1.23075C142.66 1.40377 142.67 1.57679 142.675 1.73992C142.675 1.90306 142.68 2.05631 142.68 2.20461V3.14881C142.68 3.43553 142.68 3.71237 142.685 3.98426C142.685 4.25615 142.694 4.52804 142.699 4.80487C142.699 5.07677 142.709 5.37337 142.714 5.69964H142.23C142.24 5.29922 142.245 4.87408 142.245 4.43906H142.255L142.27 4.42917Z" fill="#FEFEFE"/>
<path d="M152.553 5.334C152.77 5.28457 152.947 5.21041 153.091 5.1066C153.234 5.00279 153.337 4.88415 153.407 4.74573C153.471 4.60237 153.505 4.43429 153.505 4.23655C153.505 4.10802 153.49 3.98938 153.456 3.87073C153.421 3.75704 153.357 3.65817 153.273 3.56424C153.184 3.47526 153.071 3.40111 152.928 3.3319C152.785 3.26763 152.617 3.20831 152.414 3.14899C152.212 3.09461 151.975 3.04518 151.694 3.01551C151.383 2.98091 151.106 2.93148 150.874 2.86721C150.642 2.80295 150.445 2.73374 150.287 2.63981C150.124 2.55083 149.991 2.44702 149.887 2.32837C149.779 2.20973 149.71 2.0812 149.665 1.92795C149.621 1.77965 149.601 1.61651 149.601 1.43855C149.601 1.19138 149.645 0.978806 149.739 0.805785C149.828 0.632764 149.961 0.48446 150.134 0.360873C150.312 0.237286 150.519 0.148304 150.776 0.0889824C151.023 0.0247173 151.324 0 151.664 0C151.96 0 152.217 0.0247173 152.449 0.0692085C152.681 0.1137 152.878 0.177965 153.051 0.262004C153.219 0.346043 153.362 0.454799 153.471 0.578386C153.579 0.701972 153.663 0.85522 153.713 1.0233C153.762 1.19138 153.792 1.38911 153.792 1.60168V2.03671C153.792 2.03671 153.752 2.03176 153.727 2.03176H153.352C153.352 1.96256 153.362 1.8884 153.362 1.8192V1.63629C153.362 1.43855 153.328 1.25564 153.254 1.09745C153.179 0.939259 153.076 0.805785 152.938 0.692085C152.794 0.578386 152.622 0.49929 152.405 0.444912C152.187 0.390534 151.941 0.360873 151.649 0.360873C151.383 0.360873 151.151 0.38559 150.953 0.430082C150.756 0.474573 150.583 0.538838 150.455 0.622877C150.327 0.706916 150.223 0.815672 150.154 0.949146C150.085 1.08262 150.05 1.24081 150.05 1.41877C150.05 1.53742 150.06 1.65112 150.09 1.74999C150.119 1.8538 150.164 1.94773 150.238 2.03671C150.307 2.12075 150.406 2.20479 150.544 2.27894C150.682 2.35309 150.85 2.4223 151.052 2.48162C151.259 2.54589 151.516 2.59038 151.817 2.61509C152.212 2.66947 152.543 2.73868 152.814 2.82766C153.086 2.9117 153.308 3.02046 153.471 3.14899C153.634 3.27752 153.752 3.42582 153.826 3.59884C153.9 3.77187 153.935 3.9696 153.935 4.197C153.935 4.39969 153.905 4.58754 153.846 4.75562C153.782 4.92369 153.698 5.072 153.584 5.19558C153.471 5.31917 153.323 5.42298 153.15 5.50702C152.972 5.58612 152.775 5.65038 152.548 5.68993C152.321 5.72948 152.074 5.7542 151.793 5.7542C151.477 5.7542 151.19 5.72948 150.948 5.68499C150.707 5.6405 150.489 5.56634 150.302 5.48231C150.114 5.39332 149.961 5.27962 149.843 5.14121C149.724 5.00279 149.636 4.84954 149.566 4.66663C149.502 4.48372 149.473 4.28599 149.473 4.07342V3.93994C149.473 3.9004 149.478 3.86085 149.483 3.8213C149.487 3.78175 149.487 3.74715 149.487 3.70266H149.947C149.947 3.75209 149.937 3.80647 149.937 3.86085V3.98938C149.937 4.29587 150.006 4.54799 150.134 4.75067C150.262 4.95335 150.47 5.11155 150.746 5.2203C151.023 5.32906 151.368 5.37849 151.783 5.37849C152.084 5.37849 152.335 5.35377 152.553 5.30434V5.32906V5.334Z" fill="#FEFEFE"/>
<path d="M181.811 14.761H185.01C186.624 14.761 187.882 16.16 187.7 17.7667L185.859 32.1521C185.701 33.388 184.644 34.3174 183.396 34.3174C182.147 34.3174 181.091 33.393 180.933 32.1521L179.111 17.7667C178.929 16.16 180.187 14.761 181.801 14.761H181.811ZM180.434 7.91433C180.434 6.29287 181.742 5.02734 183.406 5.02734C185.069 5.02734 186.298 6.29287 186.298 7.91433C186.298 9.53579 184.99 10.8409 183.406 10.8409C181.742 10.8409 180.434 9.53579 180.434 7.91433Z" fill="#D71D46"/>
<path d="M0.110292 35.7537C0.855602 31.4381 4.43901 27.2213 6.04809 25.6196C6.0629 25.6048 6.0777 25.59 6.09251 25.5801C6.50219 25.2241 6.47751 25.5801 6.47751 25.5801C6.37386 25.7729 6.2702 25.9657 6.17642 26.1683C4.51798 29.7573 4.70555 32.9112 6.78353 35.8872C7.70653 37.2071 8.76773 38.1909 9.8931 39.0016C12.5239 40.89 15.288 42.1407 18.0915 43.1294C25.8457 45.8681 33.7233 47.1286 41.6305 48.1025C52.7607 49.4718 63.9108 49.8031 75.0658 49.808C83.7627 49.8129 92.4497 49.5262 101.142 48.8589C106.872 48.4189 112.603 47.9048 118.323 47.1682C121.522 46.7579 130.742 45.4034 132.647 45.3589C131.966 45.6308 131.566 45.8186 131.156 45.9521C123.6 48.4436 115.964 50.0749 108.299 51.3998C96.0183 53.5205 83.6985 54.4549 71.3589 54.8306C57.2721 55.2606 43.2001 54.9393 29.1576 52.9026C22.1093 51.8793 15.0757 50.5545 8.27415 47.1781C5.76675 45.9373 3.2939 44.474 1.35412 41.4486C0.352148 39.8914 -0.269767 37.9832 0.115228 35.7537H0.120164H0.110292Z" fill="#D71D46"/>
<path d="M130.785 40.4922L135.603 43.2951L135.45 49.2916L141.93 40.5614L130.785 40.4922Z" fill="#D71D46"/>
<path d="M25.8659 11.8995C27.3171 11.8995 28.5954 12.0329 29.7109 12.3098C30.8264 12.5866 31.7791 12.9969 32.5639 13.5605C33.3487 14.1191 33.9558 14.8112 34.3753 15.6268C34.7948 16.4475 35.0021 17.3966 35.0021 18.4743C35.0021 19.552 34.8442 20.5753 34.5332 21.3761C34.2174 22.1769 33.7386 22.8493 33.1019 23.3881C32.4602 23.9269 31.6162 24.3274 30.5797 24.5894C29.5382 24.8563 28.2746 24.9947 26.7791 25.0145L29.4938 24.0258V25.5286L26.8136 24.6833C28.092 24.797 29.1729 24.9057 30.0466 25.0096C30.9202 25.1134 31.6458 25.2963 32.2233 25.5632C32.8008 25.8302 33.2746 26.2108 33.6547 26.7249C34.0347 27.2341 34.3901 27.9163 34.7257 28.7666C34.9577 29.3697 35.17 29.953 35.3526 30.5067C35.5402 31.0653 35.7277 31.5695 35.9005 32.0194C36.0782 32.4692 36.2213 32.8499 36.325 33.1564H30.402C30.0663 33.1564 29.8146 33.0921 29.6418 32.9685C29.474 32.8449 29.3111 32.5879 29.1532 32.2072C28.9953 31.8216 28.8028 31.2136 28.5708 30.3831C28.3635 29.7058 28.171 29.1275 27.9883 28.6529C27.8057 28.1783 27.628 27.7927 27.4405 27.4912C27.2529 27.1896 27.0308 26.9622 26.7791 26.7941C26.5224 26.631 26.2312 26.5272 25.8956 26.4827C25.5599 26.4382 25.17 26.4135 24.7307 26.4135H21.0634C20.6734 26.4135 20.2243 26.4234 19.7208 26.4432L19.5974 22.1967C19.8047 22.2115 20.1009 22.2313 20.481 22.2412C20.861 22.2511 21.3003 22.256 21.8038 22.2709C22.3072 22.2808 22.8452 22.2808 23.4128 22.2808C23.9805 22.2808 24.5925 22.2906 25.244 22.3104C26.0831 22.3104 26.7939 22.1967 27.3714 21.9693C27.9489 21.7419 28.3733 21.4107 28.6448 20.9658C28.9163 20.5258 29.0545 19.9771 29.0545 19.3394C29.0545 18.7017 28.9706 18.2073 28.7978 17.8267C28.6251 17.446 28.3585 17.1445 27.9785 16.9319C27.5984 16.7243 27.1394 16.5711 26.5915 16.4623C26.0436 16.3585 25.402 16.3041 24.6665 16.3041C24.4592 16.3041 24.1927 16.3041 23.8817 16.314C23.5658 16.3239 23.2203 16.3239 22.8403 16.3239C22.4602 16.3239 22.0752 16.3338 21.6902 16.3535C21.3003 16.3684 20.9202 16.3881 20.5402 16.398C20.1601 16.4079 19.8245 16.4129 19.5333 16.4277C19.2371 16.4376 18.9854 16.4524 18.7732 16.4722L20.0367 14.2328C20.0367 16.0866 20.0367 17.9256 20.0219 19.7596C20.012 21.5887 20.0219 23.3337 20.0367 25.0046C20.0614 26.6656 20.091 28.1981 20.1453 29.5921C20.1947 30.9862 20.2736 32.1776 20.3822 33.1613H13.9854C13.9854 32.1232 13.9953 31.0752 14.02 30.0321C14.0446 28.9792 14.0545 27.852 14.0644 26.631C14.0742 25.41 14.0792 24.0505 14.0792 22.5329C14.0792 20.2836 14.0693 18.3359 14.0446 16.6848C14.02 15.0287 14.0051 13.4418 13.9805 11.9094H25.8659V11.8945V11.8995Z" fill="#FEFEFE"/>
<path d="M43.9912 33.149C42.9596 32.9216 42.0564 32.5805 41.2666 32.1159C40.4818 31.6512 39.8106 31.058 39.2676 30.3313C38.7198 29.6046 38.2953 28.7642 37.9942 27.8249C37.6882 26.8807 37.5352 25.803 37.5352 24.5919C37.5352 23.0248 37.7721 21.6753 38.241 20.5432C38.7148 19.4062 39.3713 18.4867 40.2301 17.7699C41.0791 17.0531 42.1107 16.5093 43.315 16.1435C44.5193 15.7777 45.8866 15.5898 47.3969 15.5898C48.6753 15.5898 49.8056 15.6986 50.773 15.9161C51.7405 16.1287 52.5647 16.4599 53.2459 16.8949C53.932 17.3299 54.4749 17.8441 54.8846 18.4373C55.2943 19.0305 55.5805 19.7028 55.7533 20.4493C55.9211 21.1957 56.01 22.0015 56.01 22.8716C56.01 23.3066 56.01 23.7169 55.9951 24.1025C55.9853 24.493 55.9655 24.8391 55.9507 25.1555C55.926 25.4669 55.9112 25.7437 55.8866 25.9909H54.4552C53.9024 25.9909 53.2952 25.9909 52.6437 25.981C51.9922 25.9711 51.3259 25.9711 50.6447 25.9711H48.6457C47.8066 25.9711 46.9971 25.9711 46.2173 25.981C45.4423 25.9909 44.7217 25.9909 44.0603 25.9909C43.3989 25.9909 42.8264 25.981 42.3426 25.9612L42.5302 23.272C43.0583 23.3115 43.5815 23.3264 44.1195 23.3264H45.7089C46.237 23.3264 46.7602 23.3264 47.2982 23.3363C47.8362 23.3461 48.3644 23.3461 48.8876 23.3363C49.4157 23.3264 49.9191 23.3214 50.3979 23.3066C50.8816 23.2967 51.3308 23.2819 51.7503 23.267L50.62 24.2014C50.6595 24.0481 50.7089 23.8454 50.7632 23.5933C50.8175 23.3412 50.8421 22.9853 50.8421 22.5305C50.8421 21.7741 50.7237 21.1611 50.4818 20.6866C50.24 20.212 49.8451 19.8709 49.2972 19.6633C48.7494 19.4556 48.0435 19.3518 47.1847 19.3518C46.4937 19.3518 45.8668 19.4309 45.3091 19.5941C44.7563 19.7522 44.3071 20.039 43.9665 20.4592C43.6309 20.8794 43.3841 21.438 43.2262 22.1449C43.0682 22.8518 42.9892 23.7713 42.9892 24.9083C42.9892 25.8327 43.0732 26.6138 43.2459 27.2465C43.4137 27.8793 43.6704 28.3786 44.0159 28.7345C44.3614 29.0954 44.8155 29.3525 45.3683 29.5156C45.9211 29.6738 46.6023 29.7578 47.4019 29.7578C47.9053 29.7578 48.3594 29.7232 48.7543 29.654C49.1492 29.5848 49.4897 29.5008 49.7612 29.4019C50.0327 29.2981 50.2449 29.1597 50.388 28.9916C50.5312 28.8235 50.6496 28.6307 50.7336 28.4083C50.8175 28.1957 50.8569 27.9633 50.8569 27.7112C51.0889 27.7112 51.3407 27.7112 51.6171 27.7211C51.8885 27.731 52.1847 27.7359 52.5006 27.7508C52.8165 27.7607 53.1422 27.7607 53.4779 27.7607C54.006 27.7607 54.4798 27.7607 54.9093 27.7508C55.3387 27.7409 55.7039 27.7261 55.9951 27.7063C56.0198 28.2946 55.9803 28.8532 55.8866 29.392C55.7878 29.9308 55.62 30.4104 55.3634 30.8404C55.1067 31.2656 54.7612 31.6462 54.3219 31.9873C53.8826 32.3284 53.3495 32.6102 52.7326 32.8327C52.1106 33.0601 51.3456 33.2232 50.4325 33.3319C49.5193 33.4358 48.4729 33.4901 47.2933 33.4901C46.1136 33.4901 45.0129 33.3764 43.9863 33.149H43.9813H43.9912Z" fill="#FEFEFE"/>
<path d="M72.0173 33.1463C72.042 32.3554 72.0518 31.4507 72.0617 30.4422C72.0716 29.4288 72.0864 28.3314 72.0963 27.1252C72.1061 25.9288 72.1111 24.6435 72.1111 23.289C72.1111 22.4734 72.0025 21.8406 71.7952 21.3809C71.5879 20.9162 71.2473 20.58 70.7685 20.3576C70.2947 20.145 69.6826 20.0313 68.9225 20.0313C68.3105 20.0313 67.7478 20.1104 67.2345 20.2735C66.7211 20.4317 66.267 20.6739 65.8821 20.9953C65.4921 21.3166 65.191 21.7318 64.9837 22.2262C64.7764 22.7304 64.6678 23.3434 64.6678 24.08V26.967C64.6678 27.7975 64.6678 28.5192 64.6827 29.1372C64.6925 29.7551 64.6975 30.2989 64.6975 30.7833C64.6975 31.2678 64.6975 31.6929 64.7123 32.0736C64.7221 32.4542 64.7271 32.8101 64.7271 33.1512H58.7695C58.8337 32.3751 58.8732 31.5842 58.8781 30.7833C58.888 29.9825 58.8929 29.0927 58.8929 28.1237V24.7127C58.8929 22.8837 58.8929 21.2622 58.8781 19.8533C58.8682 18.4444 58.8337 17.1591 58.7695 15.9875H64.7271C64.7518 16.4769 64.7419 16.9268 64.7123 17.3322C64.6827 17.7375 64.6629 18.1577 64.6481 18.5927C64.6382 19.0278 64.6333 19.5369 64.6333 20.1252L64.4753 18.6768L65.2009 18.7905L64.3174 20.0115C64.6135 19.0129 65.0775 18.1923 65.7044 17.5596C66.3312 16.9268 67.1259 16.4621 68.0834 16.1704C69.041 15.8788 70.117 15.7305 71.3164 15.7305C72.7429 15.7305 73.9571 15.943 74.9393 16.3781C75.9265 16.8131 76.6718 17.4903 77.1752 18.4197C77.6787 19.3441 77.9353 20.585 77.9353 22.1323V23.7488C77.9353 24.2233 77.9353 24.6584 77.9205 25.0637C77.9107 25.4691 77.9057 25.8497 77.9057 26.2007V27.2932C77.9057 28.3907 77.9057 29.4041 77.9205 30.3483C77.9304 31.2925 77.9551 32.2318 77.9995 33.1512H72.0074H72.0123L72.0173 33.1463Z" fill="#FEFEFE"/>
<path d="M83.1895 12.395C83.7276 12.4049 84.2261 12.4049 84.6851 12.4049H85.6624C85.9783 12.4049 86.304 12.4049 86.6397 12.395C86.9753 12.3851 87.2912 12.3703 87.5874 12.3555C87.5479 13.354 87.5133 14.3971 87.4886 15.4699C87.464 16.5475 87.4492 17.6746 87.4245 18.8561C87.3998 20.0376 87.385 21.2784 87.3801 22.5786C87.3702 23.8836 87.3653 25.253 87.3653 26.6866C87.3653 27.176 87.4442 27.5813 87.6022 27.8878C87.7601 28.1943 88.0316 28.4267 88.4215 28.5651C88.8114 28.7085 89.3297 28.7777 89.9862 28.7777C90.6426 28.7777 91.2547 28.7233 91.8421 28.6096C92.4294 28.4959 92.9575 28.3575 93.4166 28.1844C93.4413 28.486 93.4659 28.7925 93.5104 29.1039C93.5498 29.4154 93.5992 29.7318 93.6535 30.0531C93.7029 30.3744 93.7621 30.6957 93.8312 31.0121C93.8954 31.3334 93.9398 31.63 93.9743 31.9069C94.0089 32.1837 94.0533 32.4606 94.1175 32.7423C93.5498 32.856 93.0168 32.9549 92.5281 33.0538C92.0345 33.1477 91.5212 33.2169 90.9832 33.2663C90.4452 33.3158 89.843 33.3405 89.1718 33.3405C87.7453 33.3405 86.5508 33.1922 85.5933 32.9005C84.6357 32.6089 83.8658 32.1936 83.2784 31.6498C82.691 31.111 82.2814 30.4733 82.0494 29.7416C81.8174 29.0051 81.7039 28.1845 81.7039 27.2798V25.0701C81.7039 24.2544 81.7039 23.4091 81.7187 22.5242C81.7285 21.6393 81.7335 20.7297 81.7335 19.8053C81.7335 18.8808 81.7335 17.9762 81.7483 17.0864C81.7582 16.2015 81.7631 15.3512 81.7631 14.5405V12.3604C82.1826 12.3752 82.6614 12.395 83.1945 12.4H83.1846L83.1895 12.395ZM81.4669 15.9939C82.2024 16.0037 82.9674 16.0087 83.767 16.0235C84.5666 16.0334 85.3909 16.0384 86.2399 16.0532C87.0888 16.0631 87.9477 16.0631 88.8213 16.0631C89.695 16.0631 90.5291 16.0631 91.3435 16.0532C92.153 16.0433 92.9131 16.0186 93.6337 15.984C93.6091 16.4338 93.5943 16.9232 93.5696 17.4423C93.5449 17.9614 93.535 18.4854 93.535 19.0143V20.5171C93.1352 20.4776 92.6762 20.4628 92.1481 20.4628C91.6199 20.4628 91.0474 20.4529 90.4304 20.4331C89.8134 20.4183 89.1767 20.3935 88.54 20.3787C87.8983 20.3639 87.2419 20.3491 86.5706 20.3491C85.8993 20.3491 85.228 20.3491 84.5716 20.3392C83.9102 20.3293 83.2784 20.3293 82.6812 20.3293C82.0839 20.3293 81.5163 20.3293 80.9783 20.3194C80.4403 20.3095 79.9516 20.3095 79.5124 20.3095V18.1393C79.5124 17.734 79.5124 17.3434 79.4975 16.9628C79.4877 16.5821 79.4679 16.2608 79.4531 16.0037C80.0652 16.0037 80.7315 16.0037 81.4669 16.0136V16.0037V15.9939Z" fill="#FEFEFE"/>
<path d="M116.799 33.1444C116.527 33.1444 116.31 33.1345 116.152 33.1049C115.994 33.0752 115.871 33.0258 115.772 32.9467C115.673 32.8725 115.614 32.7588 115.585 32.6056C115.55 32.4523 115.54 32.2249 115.54 31.9283C115.54 31.6861 115.54 31.3895 115.555 31.0533C115.565 30.7122 115.585 30.3662 115.599 30.0004C115.624 29.6444 115.639 29.328 115.663 29.066L116.044 30.3167L115.16 30.2624L115.762 28.9029C115.654 29.9213 115.333 30.7666 114.785 31.4389C114.237 32.1112 113.507 32.6006 112.579 32.9269C111.656 33.2482 110.54 33.4064 109.237 33.4064C108.205 33.4064 107.307 33.3273 106.522 33.1642C105.747 33.006 105.096 32.739 104.568 32.3732C104.04 32.0074 103.65 31.5279 103.383 30.9446C103.122 30.3563 102.988 29.6098 102.988 28.7052C102.988 27.5336 103.284 26.5795 103.872 25.8478C104.459 25.1113 105.367 24.5675 106.596 24.2017C107.825 23.8457 109.341 23.6628 111.147 23.6628C112.095 23.6628 112.983 23.6876 113.808 23.737C114.642 23.7815 115.323 23.8655 115.876 23.9792V26.3026C115.264 26.2087 114.632 26.1494 113.966 26.1346C113.304 26.1197 112.623 26.1049 111.932 26.1049C111.132 26.1049 110.496 26.1741 110.007 26.3026C109.523 26.4312 109.163 26.6437 108.921 26.9255C108.679 27.2073 108.561 27.5731 108.561 28.0279C108.561 28.4086 108.664 28.7299 108.862 28.9869C109.059 29.2539 109.365 29.4368 109.775 29.5505C110.185 29.6642 110.728 29.7186 111.399 29.7186C111.986 29.7186 112.529 29.6395 113.038 29.4764C113.541 29.3182 113.97 29.0858 114.331 28.7793C114.686 28.4778 114.958 28.107 115.15 27.6769C115.343 27.2468 115.432 26.7426 115.432 26.1741C115.432 25.7935 115.432 25.3881 115.446 24.9531C115.456 24.5181 115.471 24.088 115.481 23.6628C115.491 23.2377 115.496 22.8274 115.496 22.4319C115.496 22.0364 115.446 21.6459 115.338 21.3246C115.229 21.0032 115.061 20.7412 114.815 20.5435C114.573 20.3458 114.242 20.1876 113.822 20.0739C113.403 19.9602 112.89 19.9058 112.278 19.9058C111.601 19.9058 111.053 19.9552 110.624 20.064C110.195 20.1678 109.854 20.3359 109.617 20.5633C109.375 20.7907 109.217 21.0774 109.128 21.4284C109.045 21.7794 109.035 22.2095 109.094 22.7186C108.739 22.7038 108.334 22.689 107.894 22.689H106.601C106.202 22.689 105.826 22.689 105.471 22.6791C105.116 22.6692 104.765 22.6791 104.42 22.7087C104.074 22.7384 103.773 22.773 103.521 22.8126C103.437 21.5322 103.571 20.4397 103.931 19.54C104.286 18.6403 104.839 17.9037 105.57 17.3154C106.305 16.7272 107.248 16.302 108.388 16.04C109.533 15.7731 110.826 15.6445 112.278 15.6445C113.936 15.6445 115.348 15.7928 116.503 16.0845C117.658 16.3762 118.581 16.7964 119.277 17.3451C119.968 17.8938 120.476 18.581 120.787 19.4115C121.103 20.242 121.261 21.2059 121.261 22.2984C121.261 23.0152 121.251 23.6876 121.226 24.3104C121.201 24.9333 121.187 25.5414 121.182 26.1346C121.172 26.7278 121.167 27.3754 121.167 28.0724C121.167 28.5618 121.182 29.066 121.211 29.5851C121.246 30.1042 121.266 30.5886 121.29 31.0434C121.315 31.4982 121.354 31.9085 121.414 32.2744C121.478 32.6402 121.537 32.9318 121.601 33.1395H116.774H116.799V33.1444Z" fill="#FEFEFE"/>
<path d="M153.37 11.8995C153.345 12.7448 153.326 13.6445 153.291 14.5887C153.257 15.5329 153.247 16.6699 153.247 17.9898C153.247 18.5386 153.247 19.1614 153.262 19.8585C153.271 20.5604 153.286 21.2822 153.296 22.0385C153.306 22.7949 153.311 23.5117 153.311 24.1889C153.311 25.3012 153.187 26.3492 152.931 27.3181C152.674 28.292 152.269 29.1522 151.702 29.9135C151.134 30.6748 150.428 31.3125 149.574 31.8563C148.725 32.3951 147.704 32.8005 146.514 33.0773C145.325 33.3492 143.943 33.4876 142.368 33.4876C140.794 33.4876 139.397 33.3541 138.178 33.0773C136.958 32.8054 135.917 32.4 135.058 31.8563C134.199 31.3174 133.489 30.6698 132.931 29.9135C132.378 29.1571 131.968 28.292 131.717 27.3181C131.46 26.3443 131.337 25.3012 131.337 24.1889C131.337 23.5117 131.337 22.7949 131.351 22.0385C131.361 21.2822 131.376 20.5604 131.386 19.8585C131.396 19.1565 131.401 18.5386 131.401 17.9898C131.401 16.6699 131.386 15.5428 131.356 14.6184C131.322 13.694 131.302 12.7893 131.277 11.8995H137.58C137.556 12.4087 137.541 12.992 137.516 13.6396C137.492 14.2872 137.477 14.9793 137.472 15.7059C137.462 16.4326 137.447 17.1742 137.437 17.9305C137.427 18.6869 137.413 19.4333 137.403 20.1699C137.393 20.9065 137.388 21.5986 137.388 22.256V24.0258C137.388 25.1035 137.571 25.9735 137.936 26.6458C138.306 27.3182 138.854 27.8174 139.589 28.1487C140.325 28.4749 141.282 28.6479 142.462 28.6479C143.642 28.6479 144.51 28.4848 145.201 28.1487C145.892 27.8174 146.401 27.3182 146.712 26.6458C147.028 25.9735 147.181 25.1035 147.181 24.0258V22.2412C147.181 21.5788 147.181 20.8867 147.166 20.1551C147.156 19.4284 147.136 18.6819 147.121 17.9008C147.097 17.1247 147.082 16.3733 147.077 15.6466C147.067 14.9199 147.052 14.2377 147.042 13.605C147.033 12.9722 147.028 12.4037 147.028 11.8945H153.365L153.37 11.8995Z" fill="#FEFEFE"/>
<path d="M170.205 33.1463C170.229 32.3554 170.239 31.4507 170.249 30.4422C170.259 29.4288 170.274 28.3314 170.284 27.1252C170.294 25.9288 170.299 24.6435 170.299 23.289C170.299 22.4734 170.19 21.8406 169.983 21.3809C169.775 20.9162 169.435 20.58 168.956 20.3576C168.487 20.145 167.87 20.0313 167.11 20.0313C166.498 20.0313 165.935 20.1104 165.422 20.2735C164.909 20.4317 164.455 20.6739 164.07 20.9953C163.68 21.3166 163.379 21.7318 163.171 22.2262C162.964 22.7304 162.855 23.3434 162.855 24.08V26.967C162.855 27.7975 162.855 28.5192 162.87 29.1372C162.88 29.7551 162.885 30.2989 162.885 30.7833C162.885 31.2678 162.885 31.6929 162.9 32.0736C162.91 32.4542 162.915 32.8101 162.915 33.1512H156.957C157.021 32.3751 157.061 31.5842 157.066 30.7833C157.075 29.9825 157.08 29.0927 157.08 28.1237V24.7127C157.08 22.8837 157.08 21.2622 157.066 19.8533C157.056 18.4444 157.021 17.1591 156.957 15.9875H162.915C162.939 16.4769 162.929 16.9268 162.9 17.3322C162.865 17.7375 162.85 18.1577 162.836 18.5927C162.826 19.0278 162.821 19.5369 162.821 20.1252L162.663 18.6768L163.388 18.7905L162.505 20.0115C162.801 19.0129 163.265 18.1923 163.892 17.5596C164.519 16.9268 165.313 16.4621 166.271 16.1704C167.228 15.8788 168.305 15.7305 169.504 15.7305C170.93 15.7305 172.145 15.943 173.127 16.3781C174.114 16.8131 174.859 17.4903 175.363 18.4197C175.866 19.3441 176.123 20.585 176.123 22.1323V23.7488C176.123 24.2233 176.123 24.6584 176.108 25.0637C176.098 25.4691 176.093 25.8497 176.093 26.2007V27.2932C176.093 28.3907 176.093 29.4041 176.108 30.3483C176.118 31.2925 176.143 32.2318 176.187 33.1512H170.195H170.2L170.205 33.1463Z" fill="#FEFEFE"/>
<path d="M194.881 12.395C195.419 12.4049 195.917 12.4049 196.377 12.4049H197.354C197.67 12.4049 197.995 12.4049 198.331 12.395C198.667 12.3851 198.983 12.3703 199.279 12.3555C199.239 13.354 199.205 14.3971 199.18 15.4699C199.155 16.5475 199.141 17.6746 199.116 18.8561C199.091 20.0376 199.076 21.2784 199.071 22.5786C199.062 23.8836 199.057 25.253 199.057 26.6866C199.057 27.176 199.136 27.5813 199.294 27.8878C199.452 28.1943 199.723 28.4267 200.113 28.5651C200.503 28.7085 201.021 28.7777 201.678 28.7777C202.334 28.7777 202.946 28.7233 203.533 28.6096C204.121 28.4959 204.649 28.3575 205.108 28.1844C205.133 28.486 205.157 28.7925 205.202 29.1039C205.241 29.4154 205.291 29.7318 205.345 30.0531C205.394 30.3744 205.453 30.6957 205.523 31.0121C205.587 31.3334 205.631 31.63 205.666 31.9069C205.7 32.1837 205.745 32.4606 205.809 32.7423C205.241 32.856 204.708 32.9549 204.22 33.0538C203.726 33.1477 203.213 33.2169 202.675 33.2663C202.137 33.3108 201.534 33.3405 200.863 33.3405C199.437 33.3405 198.242 33.1922 197.285 32.9005C196.327 32.6089 195.557 32.1936 194.97 31.6498C194.382 31.111 193.973 30.4733 193.741 29.7416C193.509 29.0051 193.395 28.1845 193.395 27.2798V25.0701C193.395 24.2544 193.395 23.4091 193.41 22.5242C193.42 21.6393 193.425 20.7297 193.425 19.8053C193.425 18.8808 193.425 17.9762 193.44 17.0864C193.45 16.2015 193.454 15.3512 193.454 14.5405V12.3604C193.874 12.3752 194.353 12.395 194.886 12.4H194.876L194.881 12.395ZM193.158 15.9939C193.894 16.0037 194.659 16.0087 195.458 16.0235C196.258 16.0334 197.082 16.0384 197.931 16.0532C198.78 16.0631 199.639 16.0631 200.513 16.0631C201.386 16.0631 202.221 16.0631 203.035 16.0532C203.844 16.0433 204.605 16.0186 205.325 15.984C205.3 16.4338 205.286 16.9232 205.261 17.4423C205.236 17.9614 205.226 18.4854 205.226 19.0143V20.5171C204.827 20.4776 204.368 20.4628 203.839 20.4628C203.311 20.4628 202.739 20.4529 202.122 20.4331C201.505 20.4133 200.868 20.3935 200.231 20.3787C199.59 20.3639 198.933 20.3491 198.262 20.3491C197.591 20.3491 196.919 20.3491 196.263 20.3392C195.602 20.3293 194.97 20.3293 194.373 20.3293C193.775 20.3293 193.208 20.3293 192.67 20.3194C192.132 20.3095 191.643 20.3095 191.204 20.3095V18.1393C191.204 17.734 191.204 17.3434 191.189 16.9628C191.179 16.5821 191.159 16.2608 191.145 16.0037C191.757 16.0037 192.423 16.0037 193.158 16.0136V16.0037V15.9939Z" fill="#FEFEFE"/>
</svg>
