<svg width="48" height="48" viewBox="0 0 48 48" fill="none" xmlns="http://www.w3.org/2000/svg">
<g clip-path="url(#clip0_169_632)">
<path d="M47.9542 28.0627L47.3792 25.3381C46.8676 22.9186 46.3564 20.4999 45.8457 18.082L45.6282 17.0506C45.3232 15.6108 45.0095 14.123 44.6858 12.6621C44.4745 11.7094 43.6471 11.1368 42.7197 11.294C41.4761 11.5075 40.22 11.7493 38.9976 11.9828L38.3177 12.113C38.0421 12.1553 37.7839 12.2669 37.5704 12.4359C37.357 12.6049 37.1962 12.825 37.1053 13.0728C37.0256 13.3214 36.9761 13.5777 36.9578 13.8367C36.9478 13.927 36.9378 14.0186 36.9241 14.1124C35.273 14.6182 33.7407 14.6991 32.2458 14.3565C30.3873 13.9329 28.8537 12.9238 27.7263 12.0919C25.6953 10.5958 23.4855 10.6392 21.6619 12.2092C20.662 13.0693 19.6471 13.4108 18.2635 13.3521C16.6224 13.2817 14.9501 13.2969 13.3328 13.3122C12.6629 13.3181 11.9692 13.3251 11.288 13.3251H11.2418C11.048 13.3251 10.9918 13.3251 10.9343 13.1679C10.7318 12.5741 10.2531 12.2045 9.5107 12.0672C9.03325 11.9792 8.55579 11.8889 8.07834 11.7997C7.24092 11.6413 6.37602 11.4794 5.52236 11.3304C4.31748 11.118 3.52257 11.6319 3.27259 12.776C2.19687 17.8528 1.12323 22.9296 0.051677 28.0064C-0.07331 28.5755 0.00543183 29.0519 0.270404 29.4238C0.535377 29.7958 0.979084 30.0422 1.58652 30.1548C2.02647 30.2331 2.466 30.3156 2.90512 30.4024C3.65505 30.5456 4.43872 30.6934 5.20739 30.8284C5.57156 30.9091 5.94761 30.9317 6.31978 30.8952C6.94471 30.8026 7.39841 30.4329 7.65588 29.7946C7.72712 29.8556 7.78962 29.912 7.84962 29.9659L11.5592 33.4485L13.0441 34.8425L14.3939 36.1121C15.4026 37.0613 16.4462 38.0435 17.4786 39.0033C17.7976 39.3127 18.1786 39.56 18.5996 39.7309C19.0206 39.9019 19.4735 39.9931 19.9321 39.9995C20.1726 39.9994 20.4124 39.9742 20.647 39.9244C21.7719 39.6838 22.6706 38.9106 23.0968 37.8017C23.1043 37.783 23.1105 37.7642 23.1218 37.736L23.4355 38.0681C23.7448 38.4111 24.0744 38.7374 24.4229 39.0455C24.8173 39.391 25.2962 39.64 25.8174 39.7706C26.3386 39.9011 26.886 39.9092 27.4113 39.7941C27.9423 39.6796 28.435 39.4441 28.8461 39.1085C29.2572 38.7729 29.574 38.3475 29.7686 37.8698C29.7923 37.8135 29.8186 37.7525 29.8448 37.702C30.3438 38.0704 30.9417 38.3018 31.5723 38.3706C32.2028 38.4393 32.8413 38.3427 33.4169 38.0916C34.6043 37.5671 35.318 36.4817 35.3417 35.1745C35.8517 35.1855 36.3576 35.086 36.8201 34.884C37.2826 34.6819 37.6894 34.3827 38.009 34.0094C38.3274 33.6432 38.5521 33.2132 38.6659 32.7527C38.7796 32.2922 38.7794 31.8133 38.6652 31.3529C38.6486 31.2781 38.661 31.2003 38.7001 31.1334C39.1276 30.7145 39.5601 30.3121 40.0188 29.8838L40.2937 29.6268C40.6112 30.6336 41.3911 31.0783 42.4898 30.8776C43.7234 30.6535 45.122 30.3989 46.4781 30.1419C47.5967 29.9307 48.1742 29.1141 47.9542 28.0627ZM9.22823 13.7475L5.94356 29.2361L1.809 28.4593L1.91649 27.9383C2.01148 27.476 2.10397 27.0231 2.20021 26.5713C2.93097 23.1208 3.66297 19.6699 4.39623 16.2187L4.97492 13.4941C4.98366 13.4507 4.99116 13.4061 4.99866 13.3627C5.0091 13.2724 5.03135 13.1838 5.0649 13.0986C5.08827 13.0622 5.11983 13.0309 5.15739 13.0071C6.31977 13.2125 7.46091 13.4248 8.66829 13.649L9.22823 13.7475ZM26.9764 26.1701C26.5664 25.9096 26.139 25.953 25.804 26.2874C25.4915 26.603 25.469 26.9914 25.7415 27.354C25.8223 27.4546 25.9126 27.5481 26.0115 27.6333L26.0765 27.6943C26.6422 28.227 27.2093 28.7589 27.7775 29.2901C29.4536 30.8624 31.1884 32.4887 32.877 34.1009C33.1602 34.3689 33.3629 34.7025 33.4644 35.0678C33.6107 35.6545 33.2907 36.2505 32.6708 36.5427C32.386 36.6843 32.0599 36.735 31.7417 36.6872C31.4236 36.6393 31.1306 36.4955 30.9072 36.2775C30.3385 35.7589 29.7698 35.2215 29.2186 34.7017L28.5237 34.0469L27.2326 32.8348C25.9652 31.645 24.6974 30.4552 23.4292 29.2654L23.3993 29.2373C23.3054 29.1401 23.1977 29.0556 23.0793 28.9862C22.9127 28.8824 22.7128 28.8364 22.514 28.8564C22.3152 28.8763 22.1301 28.9608 21.9906 29.0953C21.8343 29.2256 21.7351 29.4057 21.712 29.6008C21.6889 29.7958 21.7436 29.992 21.8657 30.1513C21.9427 30.2572 22.033 30.3541 22.1344 30.44C22.1569 30.4599 22.1794 30.4799 22.2006 30.501L23.2343 31.4725C24.6829 32.8348 26.1815 34.2429 27.6588 35.624C28.1587 36.0933 28.31 36.6108 28.1062 37.1963C28.031 37.4217 27.8949 37.6251 27.7112 37.7865C27.5274 37.9479 27.3023 38.0619 27.0576 38.1174C26.7974 38.1759 26.5255 38.171 26.2679 38.1033C26.0102 38.0355 25.7753 37.9071 25.5853 37.7302C24.9266 37.1317 24.2692 36.5099 23.6342 35.9091C23.3584 35.647 23.0818 35.3861 22.8043 35.1264L21.9731 34.3438C21.1745 33.5905 20.3483 32.8114 19.5197 32.0581C19.3134 31.8703 18.9547 31.6978 18.6697 31.7283C18.3848 31.7588 18.0061 32.024 17.9448 32.2892C17.9146 32.4514 17.9224 32.6179 17.9677 32.777C18.0131 32.9361 18.0948 33.0839 18.2073 33.2103C18.9222 33.9272 19.6771 34.6278 20.4071 35.306C20.5737 35.4624 20.7404 35.6189 20.907 35.7753C21.2695 36.1132 21.4345 36.4629 21.427 36.8759C21.4357 37.1439 21.3594 37.4083 21.2079 37.6356C21.0563 37.8629 20.8364 38.0428 20.5758 38.1526C20.0271 38.406 19.4897 38.3532 18.9785 37.9953C18.8668 37.9121 18.7616 37.8215 18.6635 37.7243L16.2075 35.4045C13.639 32.9932 10.983 30.4986 8.36456 28.0522C8.15583 27.8574 8.10333 27.7072 8.15583 27.4655C9.04949 23.3129 9.9244 19.2037 10.7556 15.2506C10.7956 15.0582 10.8306 15.0277 11.0118 15.0277H11.0193C12.6829 15.0335 14.3739 15.0335 16.01 15.0335H18.0098L17.6349 15.3339C17.1799 15.6942 16.7499 16.038 16.3125 16.3653C15.1226 17.263 14.7126 18.3812 15.0626 19.7822C15.4688 21.4144 15.8513 23.0817 16.22 24.6951C16.3616 25.3123 16.5037 25.9299 16.6462 26.5479C16.7549 27.0172 16.8962 27.2754 17.1386 27.408C17.3811 27.5406 17.6936 27.5453 18.201 27.408C20.9707 26.6887 22.5631 24.9005 22.9331 22.0914C23.0043 21.5528 23.0655 21.0131 23.1318 20.4416C23.1568 20.2234 23.1818 19.9993 23.2093 19.7693C23.2905 19.7928 23.3717 19.8127 23.4505 19.8326C23.7096 19.8841 23.9588 19.9727 24.1892 20.0955C24.3141 20.1729 24.4391 20.2492 24.5641 20.3302C25.2853 20.7749 26.0315 21.2337 26.6364 21.7981C29.0899 24.0873 31.5546 26.4435 33.9381 28.721C34.7764 29.5236 35.6155 30.3277 36.4554 31.1334C37.0728 31.7201 37.0978 32.4476 36.5204 33.0296C36.2545 33.2919 35.8926 33.4498 35.5076 33.4716C35.1226 33.4933 34.7431 33.3774 34.4456 33.147C34.3448 33.0664 34.2484 32.981 34.1569 32.8912L27.3701 26.5197L27.2938 26.4458C27.1979 26.3439 27.0911 26.2515 26.9751 26.1701H26.9764ZM24.8728 18.5173C24.3469 18.2963 23.7856 18.1587 23.2118 18.1101C23.1593 18.1101 23.108 18.1101 23.0568 18.1101C22.1469 18.1101 21.5157 18.678 21.3932 19.6226C21.362 19.869 21.332 20.1178 21.302 20.3654C21.207 21.1633 21.1095 21.9881 20.927 22.7778C20.6108 24.1589 19.7209 25.0964 18.2798 25.5681L18.0748 24.6951C17.8861 23.8961 17.6998 23.1087 17.5174 22.3214C17.4349 21.9694 17.3549 21.6174 17.2749 21.2653C17.1237 20.5989 16.9662 19.9101 16.7987 19.2342C16.6549 18.6475 16.8174 18.1852 17.2986 17.8097L18.6972 16.7091C20.1296 15.5803 21.6119 14.414 23.0818 13.2829C24.0529 12.5342 25.3315 12.5518 26.4827 13.3286C26.6614 13.446 26.8376 13.5692 27.0151 13.69C27.6896 14.1683 28.3927 14.6099 29.1211 15.0124C31.6034 16.3219 34.2569 16.607 37.0078 15.8619C37.1053 15.8361 37.2028 15.8127 37.3153 15.7845L37.3478 15.7775L37.4915 16.4404C37.6207 17.0295 37.7457 17.6161 37.8665 18.2005C38.0598 19.1102 38.2527 20.02 38.4452 20.9298C38.8889 23.0242 39.3476 25.1915 39.805 27.3211C39.855 27.5558 39.8225 27.6732 39.67 27.8116C39.1426 28.2939 38.6227 28.789 38.0715 29.3147L37.5303 29.8286L37.5203 29.8134C37.4569 29.7058 37.3806 29.6054 37.2928 29.5142C34.1919 26.5526 31.0197 23.53 28.035 20.688C26.9439 19.6461 25.9377 18.9585 24.8716 18.522L24.8728 18.5173ZM46.1969 28.4535L42.0548 29.2302L38.7676 13.7557L42.9085 12.979L46.1969 28.4535Z" fill="white"/>
</g>
<defs>
<clipPath id="clip0_169_632">
<rect width="48" height="29" fill="white" transform="translate(0 11)"/>
</clipPath>
</defs>
</svg>
