<svg width="48" height="49" viewBox="0 0 48 49" fill="none" xmlns="http://www.w3.org/2000/svg">
<g clip-path="url(#clip0_169_680)">
<g clip-path="url(#clip1_169_680)">
<path d="M35.913 31.4982C34.31 31.301 33.2681 30.4851 32.8685 28.9102C32.7991 28.5743 32.7712 28.2307 32.7855 27.8876C32.7855 25.3107 32.8439 22.7305 32.7624 20.1552C32.6933 17.9711 34.2762 16.3568 36.2849 16.4751C36.4138 16.4739 36.5426 16.4655 36.6706 16.4499C36.6937 11.9367 35.0047 8.31503 31.4162 5.70809C27.3512 2.75555 21.8969 2.73345 17.729 5.58815C13.4259 8.53753 12.0888 13.3979 12.3916 16.4546C12.6989 16.472 13.0217 16.4767 13.3367 16.5083C14.1031 16.5753 14.8185 16.9304 15.3458 17.5055C15.873 18.0806 16.1749 18.8353 16.1937 19.6249C16.2275 22.5296 16.2275 25.4348 16.1937 28.3405C16.184 29.1401 15.8773 29.9057 15.3363 30.4808C14.7953 31.056 14.0608 31.3973 13.2829 31.4351C12.0104 31.484 10.7103 31.5377 9.46388 31.3262C7.15861 30.938 5.54032 28.8439 5.5142 26.4453C5.48961 24.2597 5.5019 22.0725 5.5142 19.8853C5.5142 17.9538 6.85432 16.5509 8.74157 16.4799C8.95212 16.4799 9.16113 16.4799 9.40242 16.4799C9.38705 11.4143 11.1698 7.2246 14.9351 4.01326C17.7521 1.60831 21.0379 0.443702 24.7079 0.50209C28.9142 0.569947 32.4996 2.16694 35.4089 5.27886C38.3181 8.39078 39.646 12.1323 39.6045 16.4499C39.9672 16.472 40.2976 16.4783 40.6249 16.513C42.1971 16.6708 43.462 18.0153 43.485 19.6376C43.5173 21.9336 43.5265 24.2297 43.485 26.5258C43.4435 28.8218 41.7607 30.8496 39.5246 31.3404C39.3863 31.358 39.2564 31.418 39.1519 31.5126C39.0475 31.6072 38.9732 31.732 38.939 31.8706C38.1718 34.0858 36.7599 36.0052 34.8947 37.3689C33.0295 38.7325 30.8012 39.4745 28.5115 39.4942C27.8569 39.4942 27.2022 39.5021 26.549 39.4942C25.6592 39.4942 25.0014 38.8488 24.9968 38.0029C24.9922 37.1571 25.6453 36.529 26.5336 36.4927C27.7308 36.447 28.9542 36.5133 30.1191 36.2829C32.7087 35.7684 34.5851 34.1919 35.8054 31.7964C35.8315 31.716 35.8607 31.6276 35.913 31.4982ZM13.2891 23.974C13.2891 22.6643 13.2783 21.3529 13.2891 20.0431C13.2891 19.6186 13.1523 19.4608 12.7358 19.4655C11.5063 19.4829 10.2769 19.4655 9.0474 19.4655C8.46186 19.4655 8.42189 19.5097 8.42189 20.0968C8.42189 22.1251 8.42189 24.1529 8.42189 26.1802C8.42189 27.5704 9.24412 28.4352 10.5904 28.4573C11.305 28.4699 12.0197 28.4447 12.7327 28.4573C13.1446 28.4699 13.2968 28.3184 13.2891 27.8876C13.2768 26.6015 13.2891 25.2901 13.2891 23.974ZM35.7024 23.9283C35.7024 25.2554 35.7162 26.581 35.7024 27.9066C35.7024 28.3405 35.8561 28.4873 36.2634 28.4747C36.9903 28.4526 37.7203 28.4746 38.4488 28.462C38.7309 28.4619 39.0101 28.4039 39.2701 28.2915C39.5301 28.1791 39.7656 28.0145 39.9629 27.8075C40.1601 27.6004 40.3151 27.3549 40.4188 27.0855C40.5224 26.8161 40.5727 26.5282 40.5665 26.2386C40.5773 24.1634 40.5665 22.0883 40.5773 20.0147C40.5773 19.6013 40.4236 19.464 40.0379 19.4671C38.7777 19.4798 37.5174 19.4829 36.2572 19.4671C35.8438 19.4671 35.6963 19.6249 35.7024 20.0463C35.7147 21.345 35.7024 22.6406 35.7024 23.9346V23.9283Z" fill="white"/>
</g>
</g>
<defs>
<clipPath id="clip0_169_680">
<rect width="48" height="48" fill="white" transform="translate(0 0.5)"/>
</clipPath>
<clipPath id="clip1_169_680">
<rect width="38" height="39" fill="white" transform="translate(5.5 0.5)"/>
</clipPath>
</defs>
</svg>
