<svg width="27" height="28" viewBox="0 0 27 28" fill="none" xmlns="http://www.w3.org/2000/svg">
<path d="M26.4799 18.6539C25.9914 15.948 24.3405 13.9749 21.5765 12.7879C21.2307 12.6401 20.8805 12.533 20.5079 12.4173C20.3919 12.3809 20.2737 12.3466 20.1555 12.308V11.044C20.1555 9.89136 20.1555 8.73873 20.1555 7.5861C20.1555 7.2733 20.0506 7.01621 19.8297 6.79982C17.8844 4.87162 15.9436 2.94343 14.005 1.01095C13.7685 0.77528 13.4986 0.666016 13.1595 0.666016C11.7942 0.666016 10.4267 0.666016 9.06139 0.666016H8.39213C6.86846 0.666016 5.34701 0.666016 3.82334 0.668158C1.86464 0.674585 0.381122 2.07788 0.378891 3.93752C0.372199 9.97277 0.37443 15.5367 0.383353 20.9464C0.383353 21.3127 0.448048 21.6898 0.572976 22.0411C1.03923 23.3737 2.31081 24.2029 3.89249 24.205C6.73907 24.2093 9.00116 24.2093 11.0134 24.2007C11.1495 24.2007 11.203 24.2307 11.2878 24.3485C12.5215 26.1011 14.2325 27.2366 16.3697 27.7229C16.6463 27.785 16.9363 27.8322 17.1906 27.8729C17.3178 27.8921 17.445 27.9136 17.59 27.9371H18.8459L18.9441 27.9136C18.9575 27.9093 18.9709 27.905 18.9798 27.9029C20.6663 27.7636 22.1476 27.2108 23.3857 26.2617C25.9914 24.265 27.0332 21.7048 26.4822 18.6539H26.4799ZM10.652 16.8093C10.6029 16.9014 10.5962 16.9036 10.4936 16.9036C8.98554 16.8971 7.47748 16.8993 5.96719 16.8993H5.64149C5.5121 16.8993 5.36709 16.8993 5.21985 16.925C4.86069 16.9828 4.60191 17.2571 4.57514 17.6084C4.54614 17.9791 4.76922 18.294 5.13062 18.3926C5.25778 18.4268 5.40278 18.444 5.57233 18.444C6.73684 18.4461 7.89912 18.4461 9.06362 18.444H10.0764C9.77973 19.8708 9.88235 21.2506 10.3865 22.6539H8.5416C7.01793 22.6539 5.49202 22.6539 3.95942 22.6539C3.09162 22.6539 2.51828 22.3475 2.20373 21.7176C2.07881 21.4691 2.00742 21.1542 2.00742 20.8521C1.99403 14.9004 1.99626 9.00653 2.00073 4.02322C2.00073 3.12982 2.48705 2.49352 3.33478 2.27499C3.50209 2.23214 3.69395 2.21071 3.90588 2.21071C5.48533 2.20857 7.06701 2.20643 8.64868 2.20643H12.4657C12.4657 2.20643 12.4858 2.20643 12.4969 2.20643V4.50313C12.4969 4.78807 12.4969 5.07516 12.4969 5.3601C12.5036 7.04192 13.6993 8.18169 15.4729 8.19455C16.1131 8.19883 16.7534 8.19883 17.3914 8.19669H18.5046V12.1088C18.4176 12.1131 18.3306 12.1174 18.2369 12.1216C17.9001 12.1366 17.552 12.1538 17.2107 12.1923C15.6759 12.3659 14.2615 12.9358 13.0078 13.8892C12.8561 14.0048 12.7334 14.0434 12.546 14.0391C10.2371 14.0327 7.92812 14.0348 5.61918 14.037C5.43402 14.037 5.28678 14.052 5.15516 14.0841C4.78261 14.1741 4.55506 14.474 4.57291 14.849C4.59075 15.211 4.85399 15.496 5.22878 15.5581C5.37601 15.5817 5.52548 15.586 5.65041 15.586C7.55779 15.586 9.46518 15.586 11.3726 15.586L11.1963 15.8752C11.0134 16.1751 10.8215 16.4858 10.6475 16.8029L10.652 16.8093ZM13.4361 15.6288C14.7099 14.3841 16.4188 13.692 18.2458 13.6813H18.2949C20.0774 13.6813 21.755 14.3455 23.0221 15.5517C24.2848 16.7536 24.983 18.3454 24.9875 20.0337C24.9964 23.5237 21.987 26.3796 18.2815 26.401C18.2637 26.401 18.2458 26.401 18.2302 26.401C14.5761 26.401 11.5845 23.5644 11.5533 20.0551C11.5376 18.4033 12.2069 16.8307 13.4383 15.6288H13.4361ZM14.1232 3.73185C14.1232 3.61616 14.1232 3.50046 14.1254 3.38263L17.407 6.64985H15.9101C15.716 6.64985 15.522 6.65199 15.3279 6.64771C14.6631 6.63057 14.1634 6.19351 14.1366 5.60648C14.1098 4.9916 14.1143 4.37886 14.121 3.73185H14.1232Z" fill="currentColor"/>
<path d="M5.42069 12.6809C5.69732 12.6809 5.97171 12.683 6.24834 12.683C6.40673 12.683 6.56289 12.683 6.72128 12.683H11.125H11.1942C11.2477 12.683 11.3012 12.683 11.3525 12.6809C11.7697 12.653 12.0687 12.3724 12.0642 12.0103C12.0597 11.6439 11.7452 11.3633 11.3347 11.359C10.6297 11.3526 9.9248 11.3547 9.21761 11.3547H7.62032C6.93098 11.3504 6.21934 11.3483 5.51885 11.3633C5.30023 11.3676 5.05706 11.449 4.88082 11.5732C4.66666 11.7275 4.61312 11.9975 4.74251 12.2803C4.85852 12.5352 5.09945 12.6787 5.42069 12.6809Z" fill="#0A1039"/>
<path d="M18.2943 23.3178C17.5648 23.337 16.9625 22.8443 16.871 22.1458L16.8666 22.1158C16.851 21.9894 16.8331 21.8609 16.7818 21.7366C16.6636 21.4474 16.3178 21.2824 15.9943 21.3596C15.624 21.4474 15.4165 21.7409 15.4522 22.1266C15.5682 23.3092 16.2129 24.1083 17.3685 24.5047C17.4934 24.5475 17.5091 24.5775 17.5068 24.6782C17.5001 24.8839 17.5135 25.0617 17.5492 25.2224C17.6094 25.5009 17.8861 25.7066 18.2029 25.7087H18.2118C18.5308 25.7087 18.8096 25.4988 18.8743 25.2074C18.9123 25.0424 18.9234 24.9074 18.91 24.7853C18.8922 24.6246 18.9212 24.5689 19.1331 24.5004C20.1615 24.1704 20.8063 23.4677 21.0026 22.4672C21.1877 21.5202 20.8754 20.6697 20.0991 20.0077C19.5949 19.5771 18.9859 19.3564 18.2363 19.3285C17.6251 19.3071 17.1164 18.9665 16.9424 18.4587C16.7506 17.9017 16.8733 17.4239 17.3083 17.0383C17.7054 16.6848 18.2006 16.5948 18.7383 16.7769C19.2826 16.9611 19.5882 17.3489 19.6484 17.9317C19.6975 18.418 19.9808 18.6901 20.4114 18.6601C20.8241 18.6322 21.065 18.3323 21.045 17.8802C20.9937 16.7619 20.2039 15.7956 19.0796 15.4764C18.9368 15.4357 18.91 15.4036 18.91 15.2772C18.91 15.1036 18.8587 14.9172 18.7717 14.778C18.62 14.5338 18.3546 14.4416 18.0199 14.5188C17.692 14.5937 17.4934 14.8723 17.5113 15.23C17.5202 15.4122 17.4689 15.4571 17.2547 15.5386C16.1393 15.9649 15.5191 16.779 15.4589 17.891C15.4054 18.9022 15.885 19.7356 16.8465 20.2969C17.3239 20.5754 17.8593 20.6311 18.3769 20.6868L18.4282 20.6933C19.1532 20.7704 19.6775 21.3531 19.6462 22.0473C19.6172 22.7414 19.0216 23.2985 18.2899 23.3199L18.2943 23.3178Z" fill="currentColor"/>
</svg>
