<svg width="24" height="24" viewBox="0 0 24 24" fill="none" xmlns="http://www.w3.org/2000/svg">
<g clip-path="url(#clip0_126_1089)">
<path d="M23.4224 15.8303C22.9925 13.449 21.5397 11.7125 19.1072 10.6679C18.8029 10.5378 18.4946 10.4436 18.1668 10.3417C18.0647 10.3097 17.9606 10.2795 17.8566 10.2456V9.13316C17.8566 8.11878 17.8566 7.10441 17.8566 6.09003C17.8566 5.81475 17.7643 5.5885 17.5699 5.39807C15.8579 3.70115 14.1499 2.00424 12.4438 0.303559C12.2357 0.0961584 11.9982 0 11.6997 0C10.4982 0 9.29473 0 8.09321 0H7.50423C6.16331 0 4.82436 0 3.48345 0.00188546C1.75969 0.00754183 0.454118 1.24252 0.452155 2.8791C0.446265 8.19043 0.448229 13.087 0.456082 17.8477C0.456082 18.1702 0.513016 18.502 0.62296 18.8112C1.03328 19.984 2.15235 20.7136 3.54431 20.7155C6.04944 20.7193 8.0402 20.7193 9.81107 20.7118C9.93083 20.7118 9.97795 20.7382 10.0526 20.8419C11.1382 22.3842 12.6441 23.3835 14.5249 23.8115C14.7683 23.8661 15.0236 23.9076 15.2474 23.9434C15.3593 23.9604 15.4712 23.9793 15.5988 24H16.7041L16.7905 23.9793C16.8023 23.9755 16.8141 23.9717 16.8219 23.9698C18.3061 23.8473 19.6098 23.3608 20.6994 22.5256C22.9925 20.7683 23.9093 18.5152 23.4244 15.8303H23.4224ZM9.49302 14.2069C9.44983 14.288 9.44394 14.2899 9.35363 14.2899C8.02646 14.2842 6.69928 14.2861 5.37015 14.2861H5.08351C4.96964 14.2861 4.84203 14.2861 4.71245 14.3087C4.39637 14.3597 4.16863 14.601 4.14507 14.9102C4.11955 15.2364 4.31587 15.5136 4.63392 15.6003C4.74583 15.6304 4.87344 15.6455 5.02265 15.6455C6.04748 15.6474 7.07034 15.6474 8.09517 15.6455H8.9865C8.72538 16.9012 8.81569 18.1155 9.25939 19.3505H7.63577C6.29485 19.3505 4.95197 19.3505 3.60321 19.3505C2.83949 19.3505 2.33493 19.0808 2.05811 18.5265C1.94817 18.3078 1.88534 18.0306 1.88534 17.7648C1.87356 12.527 1.87553 7.34009 1.87945 2.95451C1.87945 2.16828 2.30745 1.6083 3.05349 1.41598C3.20074 1.37827 3.36958 1.35942 3.55609 1.35942C4.94608 1.35753 6.33804 1.35564 7.73 1.35564H11.0892C11.0892 1.35564 11.1068 1.35564 11.1166 1.35564V3.37686C11.1166 3.62762 11.1166 3.88027 11.1166 4.13104C11.1225 5.61112 12.1748 6.61419 13.7356 6.6255C14.2991 6.62927 14.8626 6.62927 15.4241 6.62739H16.4037V10.0702C16.3272 10.074 16.2506 10.0778 16.1681 10.0815C15.8717 10.0947 15.5654 10.1098 15.265 10.1438C13.9143 10.2965 12.6696 10.798 11.5662 11.637C11.4327 11.7389 11.3248 11.7728 11.1598 11.769C9.12785 11.7634 7.09587 11.7653 5.06388 11.7671C4.90093 11.7671 4.77135 11.7803 4.65552 11.8086C4.32765 11.8878 4.1274 12.1518 4.14311 12.4817C4.15881 12.8004 4.39048 13.0511 4.72031 13.1058C4.84988 13.1266 4.98142 13.1303 5.09137 13.1303C6.76996 13.1303 8.44856 13.1303 10.1272 13.1303L9.97206 13.3849C9.81107 13.6488 9.64223 13.9222 9.48909 14.2013L9.49302 14.2069ZM11.9432 13.168C13.0642 12.0726 14.5681 11.4636 16.176 11.4542H16.2192C17.7878 11.4542 19.2642 12.0387 20.3794 13.1002C21.4906 14.1579 22.1051 15.5588 22.109 17.0445C22.1169 20.116 19.4684 22.6293 16.2074 22.6481C16.1917 22.6481 16.176 22.6481 16.1623 22.6481C12.9464 22.6481 10.3137 20.1518 10.2862 17.0634C10.2724 15.6097 10.8614 14.2258 11.9451 13.168H11.9432ZM12.5479 2.69809C12.5479 2.59628 12.5479 2.49446 12.5498 2.39076L15.4378 5.26609H14.1205C13.9496 5.26609 13.7788 5.26797 13.608 5.2642C13.023 5.24912 12.5832 4.86448 12.5596 4.34787C12.5361 3.80674 12.54 3.2675 12.5459 2.69809H12.5479Z" fill="#0A1039"/>
<path d="M4.88958 10.5734C5.13303 10.5734 5.37451 10.5753 5.61796 10.5753C5.75735 10.5753 5.89478 10.5753 6.03417 10.5753H9.90967H9.97053C10.0176 10.5753 10.0648 10.5753 10.1099 10.5734C10.4771 10.5489 10.7401 10.3019 10.7362 9.98329C10.7323 9.66088 10.4555 9.41388 10.0942 9.41011C9.47382 9.40446 8.85343 9.40634 8.23107 9.40634H6.82537C6.21872 9.40257 5.59244 9.40069 4.97597 9.41388C4.78357 9.41765 4.56957 9.4893 4.41447 9.59866C4.226 9.73441 4.17888 9.97198 4.29275 10.2209C4.39484 10.4452 4.60687 10.5716 4.88958 10.5734Z" fill="#0A1039"/>
<path d="M16.219 19.9347C15.5771 19.9517 15.047 19.518 14.9665 18.9033L14.9626 18.8769C14.9488 18.7657 14.9331 18.6526 14.888 18.5432C14.7839 18.2887 14.4796 18.1435 14.1949 18.2114C13.869 18.2887 13.6864 18.547 13.7178 18.8864C13.8199 19.9271 14.3873 20.6304 15.4043 20.9792C15.5142 21.0169 15.528 21.0433 15.526 21.1319C15.5201 21.313 15.5319 21.4694 15.5633 21.6109C15.6163 21.856 15.8598 22.037 16.1386 22.0389H16.1464C16.4272 22.0389 16.6726 21.8541 16.7295 21.5977C16.7629 21.4525 16.7727 21.3337 16.7609 21.2262C16.7452 21.0848 16.7707 21.0358 16.9572 20.9755C17.8623 20.6851 18.4297 20.0667 18.6025 19.1862C18.7654 18.3528 18.4906 17.6043 17.8073 17.0216C17.3636 16.6427 16.8277 16.4485 16.168 16.424C15.6301 16.4051 15.1824 16.1053 15.0293 15.6585C14.8605 15.1682 14.9684 14.7478 15.3513 14.4084C15.7007 14.0973 16.1366 14.0181 16.6097 14.1784C17.0888 14.3405 17.3577 14.6818 17.4108 15.1946C17.4539 15.6226 17.7033 15.8621 18.0822 15.8357C18.4454 15.8112 18.6574 15.5472 18.6398 15.1494C18.5946 14.1652 17.8996 13.3148 16.9101 13.0339C16.7845 12.9981 16.7609 12.9698 16.7609 12.8586C16.7609 12.7058 16.7158 12.5418 16.6392 12.4192C16.5057 12.2043 16.2721 12.1232 15.9776 12.1911C15.689 12.2571 15.5142 12.5022 15.5299 12.8171C15.5378 12.9773 15.4926 13.0169 15.3042 13.0886C14.3225 13.4638 13.7767 14.1803 13.7237 15.1588C13.6766 16.0488 14.0987 16.7822 14.9449 17.2762C15.365 17.5213 15.8362 17.5703 16.2917 17.6193L16.3368 17.625C16.9749 17.6929 17.4363 18.2057 17.4088 18.8166C17.3833 19.4275 16.8591 19.9177 16.2151 19.9366L16.219 19.9347Z" fill="#0A1039"/>
</g>
<defs>
<clipPath id="clip0_126_1089">
<rect width="24" height="24" fill="white"/>
</clipPath>
</defs>
</svg>
