<svg width="169" height="46" viewBox="0 0 169 46" fill="none" xmlns="http://www.w3.org/2000/svg">
<path d="M11.8869 5.09714C11.895 4.87388 11.899 4.65061 11.9071 4.42329C11.9071 4.19597 11.9112 3.94834 11.9112 3.68449V1.51273C11.9112 1.14333 11.9031 0.802345 11.8869 0.501953H13.65C13.9053 0.501953 14.1444 0.530369 14.3511 0.591259C14.5619 0.652149 14.7402 0.741455 14.8902 0.863236C15.0402 0.985016 15.1536 1.14739 15.2388 1.3463C15.3239 1.54521 15.3644 1.79283 15.3644 2.08916C15.3644 2.30837 15.336 2.49916 15.2752 2.66559C15.2144 2.83202 15.1374 2.97004 15.0321 3.09182C14.9307 3.2136 14.8051 3.30697 14.6551 3.38004C14.5052 3.4531 14.343 3.50993 14.1728 3.54241C13.9945 3.57894 13.804 3.59518 13.6013 3.59518H12.888C12.8029 3.59518 12.7056 3.59518 12.6043 3.59112C12.4989 3.59112 12.3732 3.58706 12.2273 3.58706V3.26231H12.3935C12.4746 3.26231 12.5718 3.26231 12.6894 3.26637C12.811 3.26637 12.9407 3.26637 13.0785 3.27043H13.5162C13.7634 3.27043 13.9783 3.24608 14.1566 3.20142C14.339 3.15677 14.493 3.0837 14.6105 2.98628C14.7321 2.88885 14.8253 2.76707 14.8861 2.62094C14.9469 2.47074 14.9794 2.29619 14.9794 2.08104C14.9794 1.8659 14.951 1.66293 14.8902 1.50461C14.8294 1.3463 14.7402 1.2164 14.6186 1.11897C14.497 1.02155 14.3552 0.948482 14.1809 0.89977C14.0107 0.855117 13.808 0.830761 13.5851 0.830761H12.7015C12.588 0.830761 12.4908 0.830761 12.4057 0.83482C12.3165 0.838879 12.2476 0.838879 12.203 0.838879L12.2841 0.672446V3.16489C12.2841 3.55459 12.2841 3.91181 12.2922 4.23656C12.2962 4.56131 12.3124 4.84546 12.3246 5.08496H11.8828V5.09714H11.8869Z" fill="#161548"/>
<path d="M18.7534 4.70239C18.9723 4.61714 19.1587 4.48724 19.3127 4.31675C19.4668 4.14626 19.5884 3.93111 19.6694 3.67943C19.7545 3.42369 19.7951 3.12736 19.7951 2.78231C19.7951 2.43727 19.7545 2.16123 19.6694 1.90143C19.5843 1.64569 19.4668 1.43461 19.3127 1.26006C19.1587 1.0855 18.9723 0.963722 18.7534 0.878476C18.5346 0.793229 18.2873 0.756695 18.0198 0.756695C17.7523 0.756695 17.5091 0.797289 17.2862 0.878476C17.0633 0.963722 16.8768 1.0855 16.7228 1.26006C16.5688 1.43055 16.4472 1.64569 16.3662 1.90143C16.281 2.15717 16.2365 2.44945 16.2365 2.78231C16.2365 3.11518 16.277 3.42369 16.3621 3.68349C16.4472 3.93923 16.5648 4.15032 16.7188 4.32487C16.8728 4.49536 17.0633 4.6212 17.2862 4.71051C17.5091 4.79575 17.7564 4.83635 18.0198 4.83635C18.2833 4.83635 18.5346 4.79575 18.7534 4.70645V4.70239ZM20.0828 3.61854C20.018 3.87428 19.9248 4.09754 19.7991 4.29239C19.6775 4.48724 19.5235 4.64962 19.3533 4.77546C19.1749 4.90535 18.9763 5.00278 18.7534 5.07179C18.5305 5.1408 18.2833 5.17327 18.0158 5.17327C17.7483 5.17327 17.5132 5.13674 17.2862 5.07179C17.0633 5.00278 16.8647 4.90535 16.6863 4.77546C16.508 4.64556 16.3621 4.48724 16.2365 4.29239C16.1108 4.09754 16.0176 3.87428 15.9527 3.61854C15.8879 3.3628 15.8555 3.08676 15.8555 2.77419C15.8555 2.46162 15.8879 2.18965 15.9568 1.93797C16.0257 1.68629 16.1189 1.47114 16.2446 1.28035C16.3702 1.08956 16.5202 0.931247 16.6904 0.801348C16.8606 0.671449 17.0633 0.578084 17.2903 0.517193C17.5172 0.456303 17.7564 0.423828 18.0158 0.423828C18.3441 0.423828 18.648 0.4766 18.9115 0.574024C19.1749 0.675508 19.406 0.825704 19.5965 1.02055C19.7829 1.21946 19.9329 1.46708 20.0342 1.7553C20.1355 2.04757 20.1882 2.3845 20.1882 2.77013C20.1882 3.08271 20.1558 3.3628 20.0909 3.61448H20.0869L20.0828 3.61854Z" fill="#161548"/>
<path d="M22.9714 0.499119C23.2348 0.499119 23.4699 0.527534 23.6644 0.576246C23.859 0.629018 24.0211 0.706146 24.163 0.815748C24.2967 0.925351 24.4061 1.06743 24.475 1.23792C24.5439 1.40841 24.5764 1.61544 24.5764 1.85088C24.5764 2.04979 24.5439 2.23246 24.475 2.39078C24.4061 2.54909 24.3089 2.67899 24.1792 2.78454C24.0495 2.89008 23.8874 2.97532 23.6847 3.04027C23.4901 3.10522 23.2551 3.1377 22.9916 3.14176L23.4334 3.01998V3.17423L22.9916 3.08087C23.247 3.10116 23.4577 3.12146 23.6198 3.14988C23.782 3.17423 23.9238 3.21889 24.0292 3.28789C24.1346 3.3569 24.2278 3.45839 24.3048 3.58829C24.3778 3.71819 24.4588 3.89274 24.5358 4.116C24.5885 4.27838 24.6372 4.42045 24.6858 4.54224C24.7344 4.66402 24.775 4.77362 24.8115 4.86698C24.8479 4.96035 24.8844 5.03748 24.9128 5.09431H24.5723C24.5358 5.09431 24.5075 5.08619 24.4832 5.06995C24.4588 5.05777 24.4426 5.03342 24.4264 5.005C24.4143 4.97659 24.398 4.93599 24.3859 4.88322C24.2967 4.61936 24.2238 4.39204 24.1589 4.20125C24.0941 4.01046 24.0292 3.8562 23.9644 3.73442C23.8995 3.61264 23.8306 3.51116 23.7455 3.43809C23.6604 3.36502 23.5631 3.31225 23.4537 3.27978C23.3361 3.2473 23.2024 3.23512 23.0403 3.23512H21.419V2.91038C21.4514 2.91038 21.5204 2.91849 21.6217 2.91849C21.723 2.91849 21.8446 2.91849 21.9905 2.92255H22.4647C22.6349 2.92255 22.8173 2.92255 23.0038 2.92661C23.2753 2.92661 23.4983 2.88196 23.6725 2.78859C23.8509 2.69523 23.9806 2.56533 24.0697 2.40296C24.1589 2.24058 24.1994 2.06603 24.1994 1.87524C24.1994 1.68445 24.1751 1.52208 24.1305 1.38812C24.086 1.25416 24.0089 1.14862 23.9036 1.06337C23.7982 0.978122 23.6604 0.913173 23.4983 0.86852C23.3361 0.823867 23.1375 0.799511 22.8984 0.799511H22.4201C22.3188 0.799511 22.2175 0.80357 22.108 0.807629C22.0027 0.807629 21.9054 0.815748 21.8041 0.815748H21.5406C21.4555 0.815748 21.3947 0.815748 21.3542 0.819808L21.4677 0.624959C21.4677 1.05931 21.4596 1.49772 21.4555 1.92801V3.16611C21.4555 3.55987 21.4636 3.91709 21.4677 4.2459C21.4717 4.57065 21.4879 4.85075 21.5001 5.06995H21.0705C21.0705 4.84669 21.0786 4.62342 21.0786 4.3961C21.0786 4.16877 21.0786 3.92115 21.0826 3.6573C21.0867 3.39344 21.0826 3.10116 21.0826 2.77236C21.0826 2.28523 21.0826 1.86306 21.0786 1.50584C21.0786 1.14862 21.0705 0.80357 21.0664 0.470703H22.9592L22.9795 0.482881L22.9714 0.499119Z" fill="#161548"/>
<path d="M27.1569 0.709133V4.75631C27.1569 4.91056 27.1609 5.02423 27.165 5.10135H26.7515C26.7597 5.02829 26.7637 4.91462 26.7637 4.76443V0.709133H27.1528H27.1569ZM28.7416 0.502106V0.830914H28.1012C27.8905 0.830914 27.6878 0.830914 27.4973 0.826855H26.1476C25.8356 0.826855 25.5194 0.830914 25.1992 0.834973V0.498047H28.7416V0.502106Z" fill="#161548"/>
<path d="M29.8938 3.44123C30.0154 3.44123 30.1411 3.44529 30.2708 3.44529H32.042C32.1595 3.44529 32.269 3.44123 32.3703 3.43717V3.76598H32.0015C31.8758 3.76598 31.7542 3.76598 31.6326 3.76192H30.2992C30.1735 3.76192 30.0479 3.76192 29.9263 3.76598H29.5696L29.5818 3.43717C29.6669 3.43717 29.7723 3.43717 29.8938 3.44123ZM32.7675 5.09745C32.7472 5.0122 32.7067 4.9026 32.6459 4.76458C32.5851 4.62656 32.5202 4.46419 32.4473 4.27746C32.3743 4.09073 32.2933 3.89588 32.2001 3.68479C32.1068 3.47371 32.0177 3.25856 31.9244 3.03936C31.8312 2.82015 31.738 2.61312 31.6488 2.40204C31.5597 2.19501 31.4827 2.00422 31.4056 1.82155C31.3165 1.59828 31.2395 1.41967 31.1746 1.26542C31.1098 1.11522 31.0571 0.985322 31.0206 0.879779C30.9841 0.774236 30.9477 0.680871 30.9152 0.599684L31.1057 0.729583H30.822L31.0125 0.595624C30.9841 0.68493 30.9476 0.782355 30.9112 0.887898C30.8706 0.989382 30.818 1.11928 30.7572 1.2776C30.6964 1.43185 30.6194 1.63076 30.5261 1.87026C30.437 2.06917 30.3437 2.29649 30.2384 2.55223C30.133 2.80797 30.0235 3.05965 29.9182 3.31133C29.8128 3.56301 29.7074 3.81063 29.6142 4.04608C29.5169 4.27746 29.4318 4.48854 29.3548 4.6631C29.2737 4.84577 29.221 4.98784 29.1886 5.08933H28.7266C28.7914 4.95537 28.8725 4.78488 28.9697 4.57785C29.063 4.37488 29.1643 4.1435 29.2818 3.88776C29.3953 3.63202 29.5088 3.37222 29.6263 3.10025C29.7439 2.82827 29.8574 2.55223 29.9709 2.28432C30.0843 2.0164 30.1897 1.76066 30.2911 1.52522C30.3924 1.28977 30.4775 1.07869 30.5504 0.904135C30.6194 0.729583 30.6761 0.587506 30.7126 0.494141H31.2435C31.2841 0.595624 31.3449 0.733642 31.4219 0.912254C31.4989 1.08681 31.588 1.29383 31.6853 1.52116C31.7826 1.74848 31.888 1.9961 32.0055 2.2559C32.119 2.5157 32.2284 2.77956 32.346 3.04747C32.4594 3.31539 32.5729 3.57519 32.6864 3.83093C32.804 4.08667 32.9053 4.31805 33.0026 4.53726C33.0998 4.75646 33.1849 4.93913 33.2579 5.09339H32.7715L32.7675 5.09745Z" fill="#161548"/>
<path d="M34.0486 2.60095C34.3121 2.60095 34.5796 2.60906 34.8471 2.60906H35.5685C35.909 2.60906 36.1805 2.56847 36.3913 2.49946C36.602 2.43045 36.752 2.32897 36.8452 2.18689C36.9385 2.05293 36.983 1.8865 36.983 1.69571C36.983 1.46839 36.9385 1.28571 36.8371 1.15582C36.7399 1.02592 36.5899 0.932551 36.3832 0.883839C36.1724 0.831067 35.909 0.806711 35.5847 0.806711C35.3618 0.806711 35.1105 0.806711 34.839 0.81483C34.5633 0.818889 34.2918 0.827008 34.0121 0.839186L34.2148 0.648396C34.2148 0.757999 34.2067 0.887898 34.2026 1.04215C34.2026 1.19641 34.1945 1.36284 34.1945 1.54957V3.3641C34.1945 3.56707 34.1945 3.76598 34.1986 3.96083C34.1986 4.15568 34.2067 4.34241 34.2067 4.50884C34.2067 4.67528 34.2148 4.82953 34.2188 4.95943L34.081 4.74428C34.3729 4.75646 34.6566 4.76458 34.9241 4.76864H35.6171C35.8725 4.76864 36.0954 4.74834 36.2778 4.71587C36.4602 4.68339 36.6061 4.63062 36.7196 4.56161C36.8331 4.4926 36.9101 4.39924 36.9628 4.2734C37.0155 4.14756 37.0317 3.9933 37.0317 3.81063C37.0317 3.61172 36.9871 3.44529 36.8939 3.31133C36.8006 3.17737 36.6426 3.07589 36.4278 3.00688C36.213 2.93787 35.9252 2.9054 35.5726 2.9054H34.5755C34.3931 2.9054 34.2148 2.90946 34.0364 2.91352L34.0486 2.60095ZM33.7852 5.09745C33.7933 4.78488 33.7973 4.44795 33.8054 4.08261C33.8095 3.71727 33.8095 3.29104 33.8095 2.79579V1.89462C33.8095 1.62264 33.8054 1.3669 33.8014 1.13552C33.8014 0.904135 33.7933 0.68899 33.7892 0.494141H35.6901C35.9819 0.494141 36.2373 0.514437 36.444 0.555031C36.6466 0.595624 36.825 0.660574 36.9668 0.757999C37.1006 0.851364 37.206 0.973144 37.2627 1.11116C37.3194 1.24918 37.3559 1.42779 37.3559 1.63482C37.3559 1.79719 37.3316 1.93927 37.287 2.06105C37.2424 2.18283 37.1816 2.28838 37.1006 2.37362C37.0195 2.46293 36.9222 2.53194 36.7966 2.58877C36.675 2.64966 36.521 2.69025 36.3224 2.71461C36.1278 2.73896 35.9009 2.7552 35.6496 2.76738L36.0914 2.69431V2.81609L35.6496 2.7552C35.9049 2.7552 36.1278 2.76738 36.3183 2.78768C36.5048 2.80797 36.6628 2.83233 36.7844 2.87698C36.9182 2.92975 37.0357 2.99876 37.1249 3.08401C37.2181 3.16925 37.287 3.27886 37.3397 3.40876C37.3924 3.53866 37.4208 3.68073 37.4208 3.84311C37.4208 4.06637 37.3843 4.2531 37.3154 4.41548C37.2465 4.57785 37.1371 4.70369 36.9992 4.80112C36.8614 4.89854 36.6872 4.97161 36.4886 5.02032C36.2859 5.06497 36.0468 5.08933 35.7712 5.08933H33.7852L33.7933 5.10151L33.7852 5.09745Z" fill="#161548"/>
<path d="M38.43 5.09714V4.7115C38.43 4.55319 38.434 4.37458 38.434 4.16755V1.02967C38.434 0.822642 38.4259 0.644031 38.4219 0.501953H38.8393C38.8393 0.595318 38.8312 0.717099 38.8272 0.863236C38.8231 1.01343 38.8191 1.17987 38.8191 1.37471V3.4531C38.8191 3.68043 38.8191 3.88745 38.8231 4.09448C38.8231 4.29745 38.8231 4.472 38.8272 4.61814V4.91853L38.6772 4.7521H40.5011C40.7159 4.7521 40.9186 4.74804 41.105 4.74398V5.10526H38.4219H38.43V5.09714Z" fill="#161548"/>
<path d="M42.0216 2.63311H44.502C44.6925 2.63311 44.879 2.62905 45.0573 2.62905C45.0573 2.65341 45.0533 2.68994 45.0533 2.7346V2.9741C44.8749 2.9741 44.6966 2.97004 44.5061 2.97004H42.0256V2.63311H42.0216ZM41.7581 5.09714C41.7662 4.90635 41.7703 4.69932 41.7703 4.472V0.932245C41.7703 0.76987 41.7703 0.627793 41.7581 0.501953H45.1262V0.851058C44.8992 0.851058 44.6763 0.842939 44.4575 0.842939H42.054L42.1553 0.652149V4.9713L42.0418 4.77645H44.4534C44.6763 4.77645 44.8952 4.77239 45.1181 4.76833V5.11744H41.75V5.10526L41.7581 5.09714Z" fill="#161548"/>
<path d="M52.3389 2.13672H52.6105C52.6105 2.30316 52.5821 2.47365 52.5294 2.65226C52.4767 2.82681 52.4078 3.00137 52.3146 3.16374C52.2255 3.33017 52.1201 3.48849 52.0025 3.6468C51.885 3.80512 51.7593 3.94314 51.6256 4.07303C51.4918 4.20293 51.3621 4.30848 51.2203 4.39778L51.0501 4.26788C51.2203 4.13798 51.3865 3.98373 51.5324 3.81324C51.6823 3.64274 51.808 3.45601 51.9053 3.26116C52.0025 3.06631 52.0836 2.87552 52.1444 2.68474C52.2052 2.49395 52.2336 2.31533 52.2295 2.13672H52.343H52.3389ZM52.2011 5.0554C52.0106 5.01075 51.8201 4.93768 51.6297 4.85243C51.4392 4.76312 51.2487 4.65352 51.0622 4.52362C50.8758 4.39372 50.6893 4.24353 50.4988 4.07709C50.3083 3.91066 50.1178 3.71987 49.9233 3.50067C49.7288 3.28552 49.5342 3.05414 49.3316 2.81058C49.2383 2.70503 49.1492 2.60355 49.0722 2.50612C48.9911 2.4087 48.9222 2.30722 48.8573 2.20573C48.7965 2.10425 48.7439 1.9987 48.7114 1.88098C48.675 1.76326 48.6587 1.6496 48.6587 1.53188C48.6587 1.34109 48.6912 1.18277 48.756 1.04882C48.8209 0.914857 48.9141 0.797136 49.0397 0.699711C49.1654 0.602287 49.3153 0.533278 49.4856 0.492684C49.6558 0.452091 49.8585 0.427734 50.0814 0.427734C50.3043 0.427734 50.4867 0.448031 50.6529 0.488625C50.819 0.529218 50.9649 0.590109 51.0865 0.679414C51.2081 0.764661 51.2973 0.870204 51.35 0.991985C51.4027 1.11377 51.4351 1.2599 51.4351 1.43445C51.4351 1.62118 51.3946 1.7795 51.3135 1.91752C51.2365 2.05554 51.1149 2.17732 50.9568 2.28286C50.7988 2.38434 50.6083 2.48177 50.3813 2.57107C50.1543 2.66038 49.899 2.74563 49.6112 2.83087L49.4815 2.65632C49.7612 2.57919 50.0044 2.49801 50.203 2.41682C50.4056 2.33157 50.5718 2.24633 50.7055 2.15296C50.8352 2.05959 50.9325 1.95811 50.9974 1.84851C51.0622 1.73891 51.0946 1.61307 51.0946 1.47099C51.0946 1.21931 51.0055 1.03664 50.8352 0.914857C50.665 0.793076 50.4178 0.732186 50.0895 0.732186C49.8666 0.732186 49.672 0.764661 49.5139 0.825551C49.3559 0.886441 49.2302 0.979807 49.1451 1.09347C49.06 1.21525 49.0195 1.35733 49.0195 1.53594C49.0195 1.67396 49.0478 1.82009 49.1046 1.96217C49.1613 2.10425 49.2424 2.2585 49.3599 2.42088C49.4775 2.58325 49.6193 2.7578 49.8017 2.96077C49.9841 3.15562 50.1908 3.37889 50.434 3.63056C50.6204 3.80106 50.8028 3.95937 50.9771 4.10551C51.1514 4.25165 51.3378 4.37343 51.5243 4.47085C51.7107 4.56828 51.9093 4.6454 52.116 4.70223C52.3227 4.75907 52.5456 4.78748 52.7807 4.7753V5.0351C52.7807 5.07164 52.7807 5.10411 52.7848 5.13659C52.5862 5.13659 52.3876 5.11223 52.1971 5.06758L52.2011 5.0554ZM49.4815 2.86741C49.3153 2.92018 49.1613 2.97295 49.0316 3.04196C48.8979 3.11097 48.7844 3.19215 48.6912 3.2774C48.5979 3.36265 48.529 3.46819 48.4764 3.57779C48.4237 3.69551 48.3953 3.81324 48.3953 3.94314C48.3953 4.12581 48.4358 4.28818 48.5209 4.4262C48.6061 4.56422 48.7317 4.67788 48.8979 4.75501C49.064 4.82807 49.2708 4.86461 49.518 4.86461C49.6639 4.86461 49.8017 4.85649 49.9314 4.83213C50.0652 4.80778 50.1949 4.77124 50.3205 4.72253C50.4462 4.66976 50.5677 4.61293 50.6812 4.53986C50.7988 4.47085 50.9041 4.38966 51.0055 4.30036L51.1635 4.43432C51.0582 4.5358 50.9447 4.63323 50.8231 4.72253C50.7015 4.81184 50.5718 4.88896 50.438 4.95797C50.3002 5.02292 50.1503 5.0757 49.9841 5.11223C49.8179 5.1447 49.6355 5.165 49.445 5.165C49.1492 5.165 48.8979 5.12035 48.6912 5.02698C48.4845 4.93362 48.3304 4.79966 48.217 4.62511C48.1035 4.45055 48.0508 4.23541 48.0508 3.98779C48.0508 3.80106 48.0832 3.63868 48.1521 3.50067C48.221 3.36265 48.3142 3.23681 48.4358 3.13126C48.5574 3.02572 48.6912 2.93642 48.8452 2.86741C48.9992 2.7984 49.1613 2.73345 49.3316 2.68068L49.4694 2.86741H49.4734H49.4815Z" fill="#161548"/>
<path d="M57.3248 0.709133V4.75631C57.3248 4.91056 57.3289 5.02423 57.3329 5.10135H56.9195C56.9276 5.02829 56.9317 4.91462 56.9317 4.76443V0.709133H57.3208H57.3248ZM58.9096 0.502106V0.830914H58.2692C58.0584 0.830914 57.8558 0.830914 57.6653 0.826855H56.3156C56.0035 0.826855 55.6874 0.830914 55.3672 0.834973V0.498047H58.9096V0.502106Z" fill="#161548"/>
<path d="M61.4907 0.499119C61.7542 0.499119 61.9893 0.527534 62.1838 0.576246C62.3784 0.629018 62.5405 0.706146 62.6823 0.815748C62.8161 0.925351 62.9255 1.06743 62.9944 1.23792C63.0633 1.40841 63.0958 1.61544 63.0958 1.85088C63.0958 2.04979 63.0633 2.23246 62.9944 2.39078C62.9255 2.54909 62.8283 2.67899 62.6986 2.78454C62.5689 2.89008 62.4067 2.97532 62.2041 3.04027C62.0095 3.10522 61.7745 3.1377 61.511 3.14176L61.9528 3.01998V3.17423L61.511 3.08087C61.7663 3.10116 61.9771 3.12146 62.1392 3.14988C62.3014 3.17829 62.4432 3.21889 62.5486 3.28789C62.654 3.3569 62.7472 3.45839 62.8242 3.58829C62.8972 3.71819 62.9782 3.89274 63.0552 4.116C63.1079 4.27838 63.1566 4.42045 63.2052 4.54224C63.2538 4.66402 63.2944 4.77362 63.3308 4.86698C63.3673 4.96035 63.4038 5.03748 63.4322 5.09431H63.0917C63.0552 5.09431 63.0269 5.08619 63.0025 5.06995C62.9782 5.05777 62.962 5.03342 62.9458 5.005C62.9336 4.97659 62.9174 4.93599 62.9053 4.88322C62.8161 4.61936 62.7431 4.39204 62.6783 4.20125C62.6134 4.01046 62.5486 3.8562 62.4837 3.73442C62.4189 3.61264 62.35 3.51116 62.2649 3.43809C62.1798 3.36502 62.0825 3.31225 61.9731 3.27978C61.8555 3.2473 61.7218 3.23512 61.5637 3.23512H59.9425V2.91038C59.9749 2.91038 60.0438 2.91849 60.1451 2.91849C60.2464 2.91849 60.368 2.91849 60.514 2.92255H60.9882C61.1584 2.92255 61.3408 2.92255 61.5272 2.92661C61.7988 2.92661 62.0217 2.88196 62.196 2.78859C62.3743 2.69523 62.504 2.56533 62.5932 2.40296C62.6823 2.24058 62.7229 2.06603 62.7229 1.87524C62.7229 1.68445 62.6986 1.52208 62.654 1.38812C62.6094 1.25416 62.5324 1.14862 62.427 1.06337C62.3216 0.978122 62.1838 0.913173 62.0217 0.86852C61.8596 0.823867 61.661 0.799511 61.4218 0.799511H60.9436C60.8422 0.799511 60.7409 0.80357 60.6315 0.807629C60.5261 0.807629 60.4288 0.815748 60.3275 0.815748H60.0641C59.9789 0.815748 59.9181 0.815748 59.8776 0.819808L59.9911 0.624959C59.9911 1.05931 59.983 1.49772 59.9789 1.92801V3.16611C59.9789 3.55987 59.987 3.91709 59.9911 4.2459C59.9952 4.57065 60.0114 4.85075 60.0235 5.06995H59.5939C59.5939 4.84669 59.602 4.62342 59.602 4.3961C59.602 4.16877 59.602 3.92115 59.6061 3.6573C59.6101 3.39344 59.6061 3.10116 59.6061 2.77236C59.6061 2.28523 59.6061 1.86306 59.602 1.50584C59.602 1.14862 59.5939 0.80357 59.5898 0.470703H61.4826L61.4948 0.482881L61.4907 0.499119Z" fill="#161548"/>
<path d="M64.7571 3.44123C64.8787 3.44123 65.0044 3.44529 65.1341 3.44529H66.9053C67.0228 3.44529 67.1322 3.44123 67.2336 3.43717V3.76598H66.8647C66.7391 3.76598 66.6175 3.76598 66.4959 3.76192H65.1624C65.0368 3.76192 64.9152 3.76192 64.7896 3.76598H64.4329L64.445 3.43717C64.5342 3.43717 64.6355 3.43717 64.7571 3.44123ZM67.6308 5.09745C67.6105 5.0122 67.57 4.9026 67.5092 4.76458C67.4484 4.62656 67.3835 4.46419 67.3106 4.27746C67.2376 4.09073 67.1566 3.89588 67.0633 3.68479C66.9742 3.46965 66.8809 3.25856 66.7877 3.03936C66.6945 2.82015 66.6013 2.61312 66.5121 2.40204C66.4229 2.19501 66.3459 2.00422 66.2689 1.82155C66.1798 1.59828 66.1028 1.41967 66.0379 1.26542C65.9731 1.11522 65.9204 0.985322 65.8839 0.879779C65.8474 0.774236 65.8109 0.680871 65.7785 0.599684L65.969 0.729583H65.6853L65.8758 0.595624C65.8474 0.68493 65.8109 0.782355 65.7745 0.887898C65.738 0.993441 65.6812 1.11928 65.6204 1.2776C65.5596 1.43185 65.4826 1.63076 65.3894 1.87026C65.3002 2.06917 65.207 2.29649 65.1016 2.55223C64.9963 2.80797 64.8868 3.05965 64.7815 3.31133C64.6761 3.56301 64.5707 3.81063 64.4775 4.04608C64.3842 4.27746 64.2951 4.48854 64.2181 4.6631C64.137 4.84577 64.0843 4.98784 64.0519 5.08933H63.5898C63.6547 4.95537 63.7358 4.78488 63.833 4.57785C63.9263 4.37488 64.0276 4.1435 64.1451 3.88776C64.2627 3.63202 64.3721 3.37222 64.4896 3.10025C64.6072 2.82827 64.7207 2.55223 64.8341 2.28432C64.9476 2.0164 65.053 1.76066 65.1543 1.52522C65.2557 1.28977 65.3408 1.07869 65.4137 0.904135C65.4826 0.729583 65.5394 0.587506 65.5759 0.494141H66.1068C66.1473 0.595624 66.2081 0.733642 66.2851 0.912254C66.3622 1.08681 66.4513 1.29383 66.5486 1.52116C66.6499 1.74848 66.7512 1.9961 66.8688 2.2559C66.9823 2.5157 67.0917 2.77956 67.2092 3.04747C67.3227 3.31539 67.4362 3.57519 67.5497 3.83093C67.6672 4.08667 67.7686 4.31805 67.8658 4.53726C67.9631 4.75646 68.0482 4.93913 68.1212 5.09339H67.6348L67.6308 5.09745Z" fill="#161548"/>
<path d="M68.6836 5.09699C68.6836 4.93461 68.6917 4.76818 68.6917 4.59769C68.6917 4.4272 68.6917 4.24858 68.6958 4.06997V1.52882C68.6958 1.34615 68.6958 1.17159 68.6917 1.0011C68.6917 0.830608 68.6876 0.664174 68.6836 0.505859H69.1051C69.097 0.664174 69.093 0.830608 69.093 0.997041V4.59769C69.093 4.76818 69.1011 4.94273 69.1051 5.10511H68.6836V5.09699Z" fill="#161548"/>
<path d="M70.3714 5.09714V4.7115C70.3714 4.55319 70.3754 4.37458 70.3754 4.16755V1.02967C70.3754 0.822642 70.3673 0.644031 70.3633 0.501953H70.7807C70.7807 0.595318 70.7726 0.717099 70.7686 0.863236C70.7645 1.01343 70.7605 1.17987 70.7605 1.37471V3.4531C70.7605 3.68043 70.7605 3.88745 70.7645 4.09448C70.7645 4.29745 70.7645 4.472 70.7686 4.61814V4.91853L70.6186 4.7521H72.4425C72.6573 4.7521 72.86 4.74804 73.0464 4.74398V5.10526H70.3633H70.3714V5.09714Z" fill="#161548"/>
<path d="M73.9747 2.63311H76.4552C76.6457 2.63311 76.8321 2.62905 77.0104 2.62905C77.0104 2.65341 77.0064 2.68994 77.0064 2.7346V2.9741C76.828 2.9741 76.6497 2.97004 76.4592 2.97004H73.9787V2.63311H73.9747ZM73.7112 5.09714C73.7193 4.90635 73.7234 4.69932 73.7234 4.472V0.932245C73.7234 0.76987 73.7234 0.627793 73.7112 0.501953H77.0793V0.851058C76.8524 0.851058 76.6294 0.842939 76.4106 0.842939H74.0071L74.1084 0.652149V4.9713L73.9949 4.77645H76.4065C76.6294 4.77645 76.8483 4.77239 77.0712 4.76833V5.11744H73.7031V5.10526L73.7112 5.09714Z" fill="#161548"/>
<path d="M80.0376 0.499119C80.3011 0.499119 80.5361 0.527534 80.7307 0.576246C80.9252 0.629018 81.0874 0.706146 81.2292 0.815748C81.363 0.925351 81.4724 1.06743 81.5413 1.23792C81.6102 1.40841 81.6426 1.61544 81.6426 1.85088C81.6426 2.04979 81.6102 2.23246 81.5413 2.39078C81.4724 2.54909 81.3751 2.67899 81.2454 2.78454C81.1157 2.89008 80.9536 2.97532 80.751 3.04027C80.5564 3.10522 80.3213 3.1377 80.0579 3.14176L80.4997 3.01998V3.17423L80.0579 3.08087C80.3132 3.10116 80.524 3.12146 80.6861 3.14988C80.8482 3.17423 80.9901 3.21889 81.0955 3.28789C81.2008 3.3569 81.2941 3.45839 81.3711 3.58829C81.444 3.71819 81.5251 3.89274 81.6021 4.116C81.6548 4.27838 81.7034 4.42045 81.7521 4.54224C81.8007 4.66402 81.8412 4.77362 81.8777 4.86698C81.9142 4.96035 81.9507 5.03748 81.979 5.09431H81.6386C81.6021 5.09431 81.5737 5.08619 81.5494 5.06995C81.5251 5.05777 81.5089 5.03342 81.4927 5.005C81.4805 4.97659 81.4643 4.93599 81.4521 4.88322C81.367 4.61936 81.29 4.39204 81.2252 4.20125C81.1603 4.01046 81.0955 3.8562 81.0306 3.73442C80.9658 3.61264 80.8969 3.51116 80.8117 3.43809C80.7266 3.36502 80.6294 3.31225 80.5199 3.27978C80.4024 3.2473 80.2686 3.23512 80.1106 3.23512H78.4893V2.91038C78.5218 2.91038 78.5907 2.91849 78.692 2.91849C78.7933 2.91849 78.9149 2.91849 79.0608 2.92255H79.535C79.7053 2.92255 79.8876 2.92255 80.0741 2.92661C80.3456 2.92661 80.5686 2.88196 80.7428 2.78859C80.9212 2.69523 81.0509 2.56533 81.1401 2.40296C81.2292 2.24058 81.2697 2.06603 81.2697 1.87524C81.2697 1.68445 81.2454 1.52208 81.2008 1.38812C81.1563 1.25416 81.0793 1.14862 80.9739 1.06337C80.8685 0.978122 80.7307 0.913173 80.5686 0.86852C80.4064 0.823867 80.2078 0.799511 79.9687 0.799511H79.4904C79.3891 0.799511 79.2878 0.80357 79.1784 0.807629C79.073 0.807629 78.9757 0.815748 78.8744 0.815748H78.6109C78.5258 0.815748 78.465 0.815748 78.4245 0.819808L78.538 0.624959C78.538 1.05931 78.5299 1.49772 78.5258 1.92801V3.16611C78.5258 3.55987 78.5339 3.91709 78.538 4.2459C78.542 4.57065 78.5582 4.85075 78.5704 5.06995H78.1408C78.1408 4.84669 78.1489 4.62342 78.1489 4.3961C78.1489 4.16877 78.1489 3.92115 78.1529 3.6573V2.77236C78.1529 2.28523 78.1529 1.86306 78.1489 1.50584C78.1448 1.14862 78.1408 0.80357 78.1367 0.470703H80.0295L80.0417 0.482881L80.0376 0.499119Z" fill="#161548"/>
<path d="M87.104 0.499119C87.3675 0.499119 87.6026 0.527534 87.7971 0.576246C87.9916 0.629018 88.1538 0.706146 88.2956 0.815748C88.4294 0.925351 88.5388 1.06743 88.6077 1.23792C88.6766 1.40841 88.709 1.61544 88.709 1.85088C88.709 2.04979 88.6766 2.23246 88.6077 2.39078C88.5388 2.54909 88.4415 2.67899 88.3118 2.78454C88.1821 2.89008 88.02 2.97532 87.8174 3.04027C87.6228 3.10522 87.3877 3.1377 87.1243 3.14176L87.5661 3.01998V3.17423L87.1243 3.08087C87.3796 3.10116 87.5904 3.12146 87.7525 3.14988C87.9146 3.17829 88.0565 3.21889 88.1619 3.28789C88.2673 3.3569 88.3605 3.45839 88.4375 3.58829C88.5104 3.71819 88.5915 3.89274 88.6685 4.116C88.7212 4.27838 88.7698 4.42045 88.8185 4.54224C88.8671 4.66402 88.9076 4.77362 88.9441 4.86698C88.9806 4.96035 89.0171 5.03748 89.0454 5.09431H88.705C88.6685 5.09431 88.6401 5.08619 88.6158 5.06995C88.5915 5.05777 88.5753 5.03342 88.5591 5.005C88.5469 4.97659 88.5307 4.93599 88.5185 4.88322C88.4294 4.61936 88.3564 4.39204 88.2916 4.20125C88.2267 4.01046 88.1619 3.8562 88.097 3.73442C88.0322 3.61264 87.9633 3.51116 87.8782 3.43809C87.793 3.36502 87.6958 3.31225 87.5863 3.27978C87.4688 3.2473 87.335 3.23512 87.177 3.23512H85.5557V2.91038C85.5882 2.91038 85.6571 2.91849 85.7584 2.91849C85.8597 2.91849 85.9813 2.91849 86.1272 2.92255H86.6014C86.7717 2.92255 86.9541 2.92255 87.1405 2.92661C87.4121 2.92661 87.635 2.88196 87.8093 2.78859C87.9876 2.69523 88.1173 2.56533 88.2065 2.40296C88.2956 2.24058 88.3362 2.06603 88.3362 1.87524C88.3362 1.68445 88.3118 1.52208 88.2673 1.38812C88.2227 1.25416 88.1457 1.14862 88.0403 1.06337C87.9349 0.978122 87.7971 0.913173 87.635 0.86852C87.4728 0.823867 87.2743 0.799511 87.0351 0.799511H86.5569C86.4555 0.799511 86.3542 0.80357 86.2448 0.807629C86.1394 0.807629 86.0421 0.815748 85.9408 0.815748H85.6773C85.5922 0.815748 85.5314 0.815748 85.4909 0.819808L85.6044 0.624959C85.6044 1.05931 85.5963 1.49772 85.5922 1.92801V3.16611C85.5922 3.55987 85.6003 3.91709 85.6044 4.2459C85.6084 4.57065 85.6246 4.85075 85.6368 5.06995H85.2072C85.2072 4.84669 85.2153 4.62342 85.2153 4.3961C85.2153 4.16877 85.2153 3.92115 85.2193 3.6573C85.2234 3.39344 85.2193 3.10116 85.2193 2.77236C85.2193 2.28523 85.2193 1.86306 85.2153 1.50584C85.2153 1.14862 85.2072 0.80357 85.2031 0.470703H87.0959L87.1081 0.482881L87.104 0.499119Z" fill="#161548"/>
<path d="M90.1192 2.63311H92.5997C92.7902 2.63311 92.9766 2.62905 93.155 2.62905C93.155 2.65341 93.1509 2.68994 93.1509 2.7346V2.9741C92.9726 2.9741 92.7942 2.97004 92.6038 2.97004H90.1233V2.63311H90.1192ZM89.8558 5.09714C89.8639 4.90635 89.8679 4.69932 89.8679 4.472V0.932245C89.8679 0.76987 89.8679 0.627793 89.8558 0.501953H93.2239V0.851058C92.9969 0.851058 92.774 0.842939 92.5551 0.842939H90.1516L90.253 0.652149V4.9713L90.1395 4.77645H92.5511C92.774 4.77645 92.9928 4.77239 93.2158 4.76833V5.11744H89.8477V5.10526L89.8558 5.09714Z" fill="#161548"/>
<path d="M96.5526 4.79996C96.7309 4.75937 96.8768 4.69848 96.9943 4.61323C97.1119 4.52799 97.197 4.43056 97.2537 4.3169C97.3064 4.19918 97.3348 4.06116 97.3348 3.89879C97.3348 3.79325 97.3226 3.69582 97.2943 3.5984C97.2659 3.50503 97.2173 3.42384 97.1443 3.34672C97.0714 3.27365 96.9781 3.21276 96.8606 3.15593C96.7431 3.10315 96.6053 3.05444 96.4391 3.00573C96.2729 2.96108 96.0783 2.92048 95.8473 2.89613C95.592 2.86771 95.365 2.82712 95.1745 2.77435C94.984 2.72158 94.8219 2.66474 94.6922 2.58762C94.5584 2.51455 94.449 2.4293 94.3639 2.33188C94.2788 2.23445 94.218 2.12891 94.1815 2.00307C94.1491 1.88129 94.1288 1.74733 94.1288 1.60119C94.1288 1.39823 94.1653 1.22367 94.2423 1.0816C94.3153 0.939519 94.4247 0.817739 94.5665 0.716255C94.7125 0.614771 94.8827 0.541703 95.0935 0.49299C95.2961 0.440219 95.5433 0.419922 95.823 0.419922C96.0662 0.419922 96.2769 0.440219 96.4674 0.476753C96.6579 0.513287 96.8201 0.566059 96.9619 0.635068C97.0997 0.704077 97.2173 0.793382 97.3064 0.894866C97.3956 0.99635 97.4645 1.12219 97.505 1.26021C97.5456 1.39823 97.5699 1.5606 97.5699 1.73515V2.09238C97.5699 2.09238 97.5375 2.08832 97.5172 2.08832H97.2092C97.2092 2.03149 97.2173 1.9706 97.2173 1.91376V1.76357C97.2173 1.60119 97.1889 1.451 97.1281 1.3211C97.0673 1.1912 96.9781 1.0816 96.8687 0.988231C96.7512 0.894866 96.6093 0.829917 96.431 0.785264C96.2526 0.740611 96.05 0.716255 95.8108 0.716255C95.592 0.716255 95.4015 0.736551 95.2394 0.773086C95.0772 0.80962 94.9354 0.862391 94.83 0.9314C94.7246 1.00041 94.6395 1.08972 94.5828 1.19932C94.526 1.30892 94.4976 1.43882 94.4976 1.58496C94.4976 1.68238 94.5058 1.77575 94.5301 1.85693C94.5544 1.94218 94.5909 2.01931 94.6517 2.09238C94.7084 2.16138 94.7895 2.23039 94.903 2.29128C95.0164 2.35217 95.1542 2.40901 95.3204 2.45772C95.4907 2.51049 95.7014 2.54702 95.9487 2.56732C96.2729 2.61197 96.5445 2.6688 96.7674 2.74187C96.9903 2.81088 97.1727 2.90019 97.3064 3.00573C97.4402 3.11127 97.5375 3.23305 97.5983 3.37513C97.6591 3.51721 97.6874 3.67958 97.6874 3.86631C97.6874 4.03275 97.6631 4.187 97.6145 4.32502C97.5618 4.46304 97.4929 4.58482 97.3997 4.6863C97.3064 4.78779 97.1848 4.87303 97.043 4.94204C96.8971 5.00699 96.7349 5.05976 96.5485 5.09224C96.3621 5.12471 96.1594 5.14501 95.9284 5.14501C95.669 5.14501 95.4339 5.12471 95.2353 5.08818C95.0367 5.05164 94.8584 4.99075 94.7044 4.92175C94.5503 4.84868 94.4247 4.75531 94.3274 4.64165C94.2301 4.52799 94.1572 4.40215 94.1004 4.25195C94.0478 4.10176 94.0234 3.93938 94.0234 3.76483V3.65523C94.0234 3.62275 94.0275 3.59028 94.0315 3.5578C94.0315 3.52533 94.0356 3.49691 94.0356 3.46038H94.4125C94.4125 3.50097 94.4044 3.54562 94.4044 3.59028V3.69582C94.4044 3.9475 94.4612 4.15453 94.5665 4.32096C94.6719 4.48739 94.8422 4.61729 95.0691 4.7066C95.2961 4.79591 95.5798 4.8365 95.9203 4.8365C96.1675 4.8365 96.3742 4.8162 96.5526 4.77561V4.79591V4.79996Z" fill="#161548"/>
<path d="M100.133 0.709133V4.75631C100.133 4.91056 100.137 5.02423 100.142 5.10135H99.7281C99.7362 5.02829 99.7403 4.91462 99.7403 4.76443V0.709133H100.129H100.133ZM101.718 0.502106V0.830914H101.078C100.867 0.830914 100.664 0.830914 100.474 0.826855H99.1242C98.8121 0.826855 98.496 0.830914 98.1758 0.834973V0.498047H101.718V0.502106Z" fill="#161548"/>
<path d="M104.303 0.499119C104.567 0.499119 104.802 0.527534 104.996 0.576246C105.191 0.629018 105.353 0.706146 105.495 0.815748C105.629 0.925351 105.738 1.06743 105.807 1.23792C105.876 1.40841 105.908 1.61544 105.908 1.85088C105.908 2.04979 105.876 2.23246 105.807 2.39078C105.738 2.54909 105.641 2.67899 105.511 2.78454C105.382 2.89008 105.219 2.97532 105.017 3.04027C104.822 3.10522 104.587 3.1377 104.324 3.14176L104.765 3.01998V3.17423L104.324 3.08087C104.579 3.10116 104.79 3.12146 104.952 3.14988C105.114 3.17829 105.256 3.21889 105.361 3.28789C105.467 3.3569 105.56 3.45839 105.637 3.58829C105.71 3.71819 105.791 3.89274 105.868 4.116C105.921 4.27838 105.969 4.42045 106.018 4.54224C106.066 4.66402 106.107 4.77362 106.143 4.86698C106.18 4.96035 106.216 5.03748 106.245 5.09431H105.904C105.868 5.09431 105.839 5.08619 105.815 5.06995C105.791 5.05777 105.775 5.03342 105.758 5.005C105.746 4.97659 105.73 4.93599 105.718 4.88322C105.629 4.61936 105.556 4.39204 105.491 4.20125C105.426 4.01046 105.361 3.8562 105.296 3.73442C105.232 3.61264 105.163 3.51116 105.078 3.43809C104.992 3.36502 104.895 3.31225 104.786 3.27978C104.668 3.2473 104.534 3.23512 104.372 3.23512H102.751V2.91038C102.783 2.91038 102.852 2.91849 102.954 2.91849C103.055 2.91849 103.177 2.91849 103.323 2.92255H103.797C103.967 2.92255 104.149 2.92255 104.336 2.92661C104.607 2.92661 104.83 2.88196 105.005 2.78859C105.183 2.69523 105.313 2.56533 105.402 2.40296C105.491 2.24058 105.531 2.06603 105.531 1.87524C105.531 1.68445 105.507 1.52208 105.463 1.38812C105.418 1.25416 105.341 1.14862 105.236 1.06337C105.13 0.978122 104.992 0.913173 104.83 0.86852C104.668 0.823867 104.47 0.799511 104.23 0.799511H103.752C103.651 0.799511 103.55 0.80357 103.44 0.807629C103.335 0.807629 103.237 0.815748 103.136 0.815748H102.873C102.788 0.815748 102.727 0.815748 102.686 0.819808L102.8 0.624959C102.8 1.05931 102.792 1.49772 102.788 1.92801V3.16611C102.788 3.55987 102.796 3.91709 102.8 4.2459C102.804 4.57065 102.82 4.85075 102.832 5.06995H102.402C102.402 4.84669 102.411 4.62342 102.411 4.3961C102.411 4.16877 102.411 3.92115 102.415 3.6573C102.419 3.39344 102.415 3.10116 102.415 2.77236C102.415 2.28523 102.415 1.86306 102.411 1.50584C102.407 1.14862 102.402 0.80357 102.398 0.470703H104.291L104.311 0.482881L104.303 0.499119Z" fill="#161548"/>
<path d="M109.628 4.70239C109.847 4.61714 110.034 4.48724 110.188 4.31675C110.342 4.14626 110.463 3.93111 110.544 3.67943C110.63 3.42369 110.67 3.12736 110.67 2.78231C110.67 2.43727 110.63 2.16123 110.544 1.90143C110.459 1.64569 110.342 1.43461 110.188 1.26006C110.034 1.0855 109.847 0.963722 109.628 0.878476C109.41 0.793229 109.162 0.756695 108.895 0.756695C108.627 0.756695 108.384 0.797289 108.161 0.878476C107.938 0.963722 107.752 1.0855 107.594 1.26006C107.44 1.43055 107.318 1.64569 107.237 1.90143C107.148 2.15717 107.107 2.44945 107.107 2.78231C107.107 3.11518 107.148 3.42369 107.233 3.68349C107.318 3.94329 107.436 4.15032 107.59 4.32487C107.744 4.49536 107.934 4.6212 108.157 4.71051C108.38 4.79981 108.627 4.83635 108.891 4.83635C109.154 4.83635 109.406 4.79575 109.624 4.70645H109.628V4.70239ZM110.958 3.61854C110.893 3.87428 110.8 4.09754 110.674 4.29239C110.553 4.48724 110.399 4.64962 110.228 4.77546C110.058 4.9013 109.851 5.00278 109.628 5.07179C109.405 5.1408 109.158 5.17327 108.891 5.17327C108.623 5.17327 108.384 5.13674 108.161 5.07179C107.938 5.00684 107.74 4.90535 107.561 4.77546C107.383 4.64556 107.237 4.48724 107.111 4.29239C106.986 4.09754 106.893 3.87428 106.828 3.61854C106.763 3.3628 106.73 3.08676 106.73 2.77419C106.73 2.46162 106.763 2.18965 106.832 1.93797C106.901 1.68629 106.994 1.47114 107.12 1.28035C107.245 1.08956 107.395 0.931247 107.565 0.801348C107.736 0.671449 107.938 0.578084 108.165 0.517193C108.388 0.456303 108.631 0.423828 108.891 0.423828C109.219 0.423828 109.523 0.4766 109.786 0.574024C110.05 0.675508 110.281 0.825704 110.471 1.02055C110.662 1.21946 110.808 1.46708 110.909 1.7553C111.011 2.04757 111.063 2.3845 111.063 2.77013C111.063 3.08271 111.031 3.3628 110.966 3.61448H110.962L110.958 3.61854Z" fill="#161548"/>
<path d="M114.488 4.70239C114.707 4.61714 114.893 4.48724 115.047 4.31675C115.201 4.14626 115.323 3.93111 115.404 3.67943C115.489 3.42369 115.529 3.12736 115.529 2.78231C115.529 2.43727 115.489 2.16123 115.404 1.90143C115.319 1.64569 115.201 1.43461 115.047 1.26006C114.893 1.0855 114.707 0.963722 114.488 0.878476C114.269 0.793229 114.022 0.756695 113.754 0.756695C113.487 0.756695 113.243 0.797289 113.021 0.878476C112.798 0.963722 112.611 1.0855 112.453 1.26006C112.299 1.43055 112.178 1.64569 112.096 1.90143C112.011 2.15717 111.967 2.44945 111.967 2.78231C111.967 3.11518 112.007 3.42369 112.092 3.68349C112.178 3.93923 112.295 4.15032 112.449 4.32487C112.603 4.49536 112.794 4.6212 113.017 4.71051C113.239 4.79981 113.487 4.83635 113.75 4.83635C114.014 4.83635 114.265 4.79575 114.484 4.70645H114.488V4.70239ZM115.817 3.61854C115.752 3.87428 115.659 4.09754 115.533 4.29239C115.412 4.48724 115.258 4.64962 115.088 4.77546C114.909 4.90535 114.711 5.00278 114.488 5.07179C114.265 5.1408 114.018 5.17327 113.75 5.17327C113.483 5.17327 113.243 5.13674 113.021 5.07179C112.798 5.00684 112.599 4.90535 112.421 4.77546C112.242 4.64556 112.096 4.48724 111.971 4.29239C111.845 4.09754 111.752 3.87428 111.687 3.61854C111.622 3.3628 111.59 3.08676 111.59 2.77419C111.59 2.46162 111.622 2.18965 111.691 1.93797C111.76 1.68629 111.853 1.47114 111.979 1.28035C112.105 1.08956 112.255 0.931247 112.425 0.801348C112.595 0.671449 112.798 0.578084 113.025 0.517193C113.248 0.456303 113.491 0.423828 113.75 0.423828C114.078 0.423828 114.382 0.4766 114.646 0.574024C114.909 0.671449 115.14 0.825704 115.331 1.02055C115.517 1.21946 115.667 1.46708 115.769 1.7553C115.87 2.04757 115.923 2.3845 115.923 2.77013C115.923 3.08271 115.89 3.3628 115.825 3.61448H115.821L115.817 3.61854Z" fill="#161548"/>
<path d="M116.825 4.0581V2.79158C116.825 2.30852 116.825 1.85793 116.821 1.49665C116.817 1.13537 116.813 0.802498 116.809 0.498047H117.32C117.377 0.599531 117.454 0.757846 117.563 0.972991C117.664 1.18814 117.786 1.43576 117.92 1.71585C118.053 1.99595 118.199 2.29634 118.349 2.61297C118.499 2.93366 118.653 3.25029 118.799 3.56692C118.852 3.66434 118.913 3.78612 118.969 3.92414C119.03 4.06216 119.091 4.20424 119.156 4.34631C119.217 4.48839 119.269 4.61829 119.31 4.73601L119.156 4.59799H119.383L119.217 4.72789C119.269 4.61017 119.318 4.49245 119.375 4.36661C119.432 4.24077 119.492 4.11087 119.553 3.97691C119.614 3.84295 119.671 3.71306 119.731 3.58316C119.885 3.2787 120.035 2.96613 120.181 2.6495C120.331 2.33287 120.469 2.03654 120.599 1.76051C120.729 1.48041 120.846 1.23685 120.947 1.01358C121.049 0.79438 121.134 0.623887 121.199 0.502106H121.665C121.665 0.802498 121.657 1.13942 121.657 1.50071V4.06216C121.657 4.42344 121.665 4.76849 121.669 5.0973H121.251C121.259 4.84156 121.264 4.58988 121.264 4.35037C121.264 4.11087 121.268 3.87137 121.272 3.62781C121.272 3.38831 121.28 3.13663 121.28 2.88495V2.07714C121.28 1.92288 121.28 1.76051 121.288 1.59813C121.296 1.43576 121.296 1.27338 121.3 1.11913C121.304 0.964873 121.304 0.818736 121.304 0.676658L121.434 0.924279L121.15 0.867448L121.341 0.66448C121.316 0.761905 121.28 0.867448 121.239 0.98111C121.199 1.09477 121.15 1.20843 121.105 1.31804C121.061 1.43576 121.012 1.54536 120.968 1.66308C120.923 1.7808 120.87 1.89041 120.818 2.00001C120.761 2.11773 120.684 2.2801 120.591 2.47495C120.497 2.67386 120.396 2.88901 120.287 3.12039C120.177 3.35177 120.068 3.58316 119.958 3.82672C119.845 4.06622 119.736 4.29354 119.63 4.51681C119.525 4.74007 119.432 4.93492 119.346 5.0973H119.132C119.042 4.93086 118.945 4.72789 118.836 4.48839C118.722 4.24889 118.605 4.00127 118.483 3.73741C118.362 3.47355 118.24 3.22187 118.13 2.97831C118.017 2.73069 117.916 2.5196 117.826 2.33693C117.737 2.15426 117.677 2.0203 117.64 1.93506C117.587 1.82546 117.539 1.71585 117.482 1.60625C117.425 1.50071 117.377 1.38705 117.328 1.27338C117.283 1.15566 117.239 1.05012 117.198 0.948635C117.162 0.847151 117.117 0.745667 117.077 0.648243L117.292 0.839033L117.044 0.879626L117.125 0.656362C117.133 0.765964 117.137 0.887745 117.137 1.01764C117.137 1.14754 117.142 1.28556 117.146 1.4317C117.146 1.57378 117.154 1.71585 117.158 1.84981C117.158 1.98377 117.162 2.10961 117.162 2.23139V3.00673C117.162 3.24217 117.162 3.46949 117.166 3.69276C117.166 3.91602 117.174 4.13929 117.178 4.36661C117.178 4.58988 117.186 4.83344 117.19 5.10135H116.793C116.801 4.77255 116.805 4.42344 116.805 4.06622H116.813L116.825 4.0581Z" fill="#161548"/>
<path d="M125.267 4.79996C125.446 4.75937 125.592 4.69848 125.709 4.61323C125.827 4.52799 125.912 4.43056 125.969 4.3169C126.021 4.19918 126.05 4.06116 126.05 3.89879C126.05 3.79325 126.037 3.69582 126.009 3.5984C125.981 3.50503 125.928 3.42384 125.859 3.34672C125.786 3.27365 125.693 3.21276 125.575 3.15593C125.458 3.10315 125.32 3.05444 125.154 3.00573C124.988 2.96108 124.793 2.92048 124.562 2.89613C124.307 2.86771 124.08 2.82712 123.889 2.77435C123.699 2.72158 123.537 2.66474 123.407 2.58762C123.273 2.51455 123.164 2.4293 123.079 2.33188C122.99 2.23445 122.933 2.12891 122.896 2.00307C122.86 1.88129 122.844 1.74733 122.844 1.60119C122.844 1.39823 122.88 1.22367 122.957 1.0816C123.03 0.939519 123.14 0.817739 123.281 0.716255C123.427 0.614771 123.598 0.541703 123.808 0.49299C124.011 0.440219 124.258 0.419922 124.538 0.419922C124.781 0.419922 124.992 0.440219 125.182 0.476753C125.373 0.513287 125.535 0.566059 125.677 0.635068C125.815 0.704077 125.932 0.793382 126.021 0.894866C126.11 0.99635 126.179 1.12219 126.22 1.26021C126.26 1.39823 126.285 1.5606 126.285 1.73515V2.09238C126.285 2.09238 126.252 2.08832 126.232 2.08832H125.924C125.924 2.03149 125.932 1.9706 125.932 1.91376V1.76357C125.932 1.60119 125.904 1.451 125.843 1.3211C125.782 1.1912 125.697 1.0816 125.584 0.988231C125.466 0.894866 125.324 0.829917 125.146 0.785264C124.967 0.740611 124.765 0.716255 124.526 0.716255C124.307 0.716255 124.116 0.736551 123.954 0.773086C123.792 0.80962 123.65 0.862391 123.545 0.9314C123.439 1.00041 123.354 1.08972 123.298 1.19932C123.241 1.30892 123.212 1.43882 123.212 1.58496C123.212 1.68238 123.221 1.77575 123.245 1.85693C123.269 1.94218 123.306 2.01931 123.367 2.09238C123.423 2.16138 123.504 2.23039 123.618 2.29128C123.731 2.35217 123.869 2.40901 124.035 2.45772C124.206 2.51049 124.416 2.54702 124.663 2.56732C124.988 2.61197 125.259 2.6688 125.482 2.74187C125.705 2.81088 125.888 2.90019 126.021 3.00573C126.155 3.11127 126.252 3.23305 126.313 3.37513C126.374 3.51721 126.402 3.67958 126.402 3.86631C126.402 4.03275 126.378 4.187 126.329 4.32502C126.277 4.46304 126.208 4.58482 126.115 4.6863C126.021 4.78779 125.9 4.87303 125.758 4.94204C125.612 5.00699 125.45 5.05976 125.263 5.09224C125.077 5.12471 124.874 5.14501 124.643 5.14501C124.384 5.14501 124.149 5.12471 123.95 5.08818C123.752 5.05164 123.573 4.99075 123.419 4.92175C123.265 4.84868 123.14 4.75531 123.042 4.64165C122.945 4.52799 122.872 4.40215 122.815 4.25195C122.763 4.10176 122.738 3.93938 122.738 3.76483V3.65523C122.738 3.62275 122.742 3.59028 122.746 3.5578C122.75 3.52533 122.75 3.49691 122.75 3.46038H123.127C123.127 3.50097 123.119 3.54562 123.119 3.59028V3.69582C123.119 3.9475 123.176 4.15453 123.281 4.32096C123.387 4.48739 123.557 4.61729 123.784 4.7066C124.011 4.79591 124.295 4.8365 124.635 4.8365C124.882 4.8365 125.089 4.8162 125.267 4.77561V4.79591V4.79996Z" fill="#161548"/>
<path d="M149.29 12.5417H151.917C153.242 12.5417 154.275 13.6905 154.125 15.0098L152.614 26.8225C152.484 27.8373 151.617 28.6005 150.591 28.6005C149.566 28.6005 148.698 27.8414 148.569 26.8225L147.073 15.0098C146.923 13.6905 147.957 12.5417 149.282 12.5417H149.29ZM148.159 6.91949C148.159 5.58802 149.233 4.54883 150.599 4.54883C151.965 4.54883 152.974 5.58802 152.974 6.91949C152.974 8.25096 151.9 9.32263 150.599 9.32263C149.233 9.32263 148.159 8.25096 148.159 6.91949Z" fill="#D71D46"/>
<path d="M0.0905669 29.779C0.702582 26.2352 3.64512 22.7725 4.96642 21.4573C4.97858 21.4451 4.99074 21.4329 5.0029 21.4248C5.3393 21.1325 5.31904 21.4248 5.31904 21.4248C5.23392 21.5831 5.14881 21.7415 5.0718 21.9079C3.70997 24.855 3.86398 27.4448 5.57033 29.8886C6.32826 30.9724 7.19967 31.7802 8.12377 32.446C10.2841 33.9966 12.5538 35.0237 14.8559 35.8355C21.2233 38.0844 27.692 39.1195 34.1851 39.9192C43.3248 41.0437 52.4807 41.3157 61.6406 41.3197C68.7822 41.3238 75.9156 41.0883 83.053 40.5403C87.7587 40.179 92.4643 39.7569 97.1618 39.152C99.7882 38.8151 107.359 37.7028 108.924 37.6663C108.365 37.8896 108.036 38.0438 107.7 38.1534C101.495 40.1993 95.2244 41.5389 88.93 42.6268C78.8459 44.3683 68.7295 45.1355 58.5968 45.444C47.0293 45.7972 35.4739 45.5333 23.9429 43.8609C18.1551 43.0206 12.3795 41.9327 6.79436 39.1601C4.7354 38.1412 2.7048 36.9397 1.11194 34.4553C0.289168 33.1766 -0.22152 31.6097 0.09462 29.779H0.098673H0.0905669Z" fill="#D71D46"/>
<path d="M107.398 33.6738L111.354 35.9755L111.229 40.8995L116.55 33.7307L107.398 33.6738Z" fill="#D71D46"/>
<path d="M21.2403 10.1896C22.4319 10.1896 23.4816 10.2992 24.3976 10.5265C25.3136 10.7539 26.0959 11.0908 26.7403 11.5535C27.3848 12.0123 27.8833 12.5806 28.2278 13.2504C28.5723 13.9242 28.7425 14.7036 28.7425 15.5885C28.7425 16.4735 28.6128 17.3138 28.3575 17.9714C28.0981 18.629 27.7049 19.1811 27.1821 19.6235C26.6552 20.066 25.9621 20.3948 25.111 20.61C24.2558 20.8292 23.2182 20.9428 21.9901 20.9591L24.2193 20.1472V21.3812L22.0185 20.6871C23.0682 20.7805 23.9558 20.8698 24.6732 20.955C25.3906 21.0403 25.9864 21.1905 26.4606 21.4097C26.9349 21.6289 27.324 21.9414 27.636 22.3636C27.9481 22.7817 28.24 23.3419 28.5156 24.0401C28.7061 24.5354 28.8803 25.0144 29.0303 25.469C29.1843 25.9277 29.3383 26.3418 29.4802 26.7112C29.6261 27.0806 29.7436 27.3932 29.8288 27.6448H24.9651C24.6895 27.6448 24.4827 27.5921 24.3409 27.4906C24.2031 27.3891 24.0693 27.178 23.9396 26.8654C23.8099 26.5488 23.6519 26.0495 23.4614 25.3675C23.2911 24.8114 23.1331 24.3365 22.9831 23.9468C22.8331 23.5571 22.6872 23.2404 22.5332 22.9928C22.3792 22.7452 22.1968 22.5585 21.9901 22.4204C21.7793 22.2865 21.5402 22.2012 21.2646 22.1647C20.989 22.1282 20.6688 22.1079 20.3081 22.1079H17.2966C16.9764 22.1079 16.6076 22.116 16.1942 22.1322L16.0929 18.6452C16.2631 18.6574 16.5063 18.6737 16.8184 18.6818C17.1305 18.6899 17.4912 18.694 17.9046 18.7061C18.318 18.7142 18.7598 18.7142 19.2259 18.7142C19.692 18.7142 20.1946 18.7224 20.7296 18.7386C21.4186 18.7386 22.0023 18.6452 22.4765 18.4585C22.9507 18.2718 23.2992 17.9998 23.5222 17.6345C23.7451 17.2732 23.8586 16.8226 23.8586 16.2989C23.8586 15.7753 23.7897 15.3693 23.6478 15.0568C23.506 14.7442 23.2871 14.4966 22.975 14.322C22.6629 14.1515 22.286 14.0257 21.8361 13.9364C21.3862 13.8511 20.8593 13.8065 20.2554 13.8065C20.0852 13.8065 19.8663 13.8065 19.6109 13.8146C19.3515 13.8227 19.0678 13.8227 18.7557 13.8227C18.4437 13.8227 18.1275 13.8308 17.8114 13.8471C17.4912 13.8593 17.1791 13.8755 16.867 13.8836C16.5549 13.8917 16.2793 13.8958 16.0402 13.908C15.797 13.9161 15.5903 13.9283 15.416 13.9445L16.4536 12.1056C16.4536 13.6279 16.4536 15.138 16.4414 16.644C16.4333 18.1459 16.4414 19.5789 16.4536 20.951C16.4739 22.3149 16.4982 23.5733 16.5428 24.718C16.5833 25.8628 16.6481 26.8411 16.7373 27.6489H11.4845C11.4845 26.7964 11.4926 25.9358 11.5129 25.0793C11.5332 24.2147 11.5413 23.2891 11.5494 22.2865C11.5575 21.2838 11.5615 20.1675 11.5615 18.9213C11.5615 17.0743 11.5534 15.4749 11.5332 14.1191C11.5129 12.7592 11.5007 11.4561 11.4805 10.1977H21.2403V10.1855V10.1896Z" fill="#161548"/>
<path d="M36.1256 27.6395C35.2786 27.4528 34.5368 27.1727 33.8883 26.7911C33.2439 26.4095 32.6927 25.9224 32.2468 25.3257C31.797 24.729 31.4484 24.0389 31.2012 23.2676C30.9499 22.4923 30.8242 21.6073 30.8242 20.6128C30.8242 19.326 31.0188 18.2178 31.4038 17.2882C31.7929 16.3545 32.332 15.5995 33.0372 15.0109C33.7343 14.4223 34.5814 13.9757 35.5704 13.6754C36.5593 13.375 37.682 13.2207 38.9223 13.2207C39.972 13.2207 40.9002 13.31 41.6946 13.4886C42.489 13.6632 43.1658 13.9351 43.7252 14.2924C44.2885 14.6496 44.7344 15.0718 45.0708 15.5589C45.4072 16.046 45.6423 16.5981 45.7841 17.211C45.9219 17.824 45.9949 18.4857 45.9949 19.2001C45.9949 19.5574 45.9949 19.8943 45.9827 20.2109C45.9746 20.5316 45.9584 20.8158 45.9463 21.0756C45.926 21.3313 45.9138 21.5586 45.8936 21.7616H44.7182C44.2642 21.7616 43.7657 21.7616 43.2307 21.7535C42.6957 21.7453 42.1485 21.7453 41.5892 21.7453H39.9477C39.2587 21.7453 38.594 21.7453 37.9536 21.7535C37.3173 21.7616 36.7255 21.7616 36.1824 21.7616C35.6393 21.7616 35.1691 21.7535 34.7719 21.7372L34.9259 19.5289C35.3596 19.5614 35.7892 19.5736 36.231 19.5736H37.5361C37.9698 19.5736 38.3994 19.5736 38.8412 19.5817C39.283 19.5898 39.7167 19.5898 40.1463 19.5817C40.58 19.5736 40.9934 19.5695 41.3865 19.5574C41.7837 19.5492 42.1526 19.5371 42.4971 19.5249L41.5689 20.2921C41.6014 20.1663 41.6419 19.9998 41.6865 19.7928C41.7311 19.5858 41.7513 19.2935 41.7513 18.92C41.7513 18.299 41.654 17.7956 41.4554 17.4059C41.2568 17.0162 40.9326 16.7361 40.4827 16.5656C40.0328 16.3951 39.4532 16.3099 38.748 16.3099C38.1806 16.3099 37.6658 16.3748 37.2078 16.5088C36.7539 16.6387 36.385 16.8741 36.1054 17.2192C35.8298 17.5642 35.6271 18.0229 35.4974 18.6034C35.3677 19.1839 35.3029 19.9389 35.3029 20.8726C35.3029 21.6317 35.3718 22.2731 35.5136 22.7927C35.6514 23.3123 35.8622 23.7223 36.1459 24.0145C36.4296 24.3109 36.8025 24.5219 37.2565 24.6559C37.7104 24.7858 38.2697 24.8548 38.9263 24.8548C39.3397 24.8548 39.7126 24.8264 40.0369 24.7696C40.3611 24.7127 40.6408 24.6437 40.8637 24.5625C41.0866 24.4773 41.2609 24.3636 41.3784 24.2256C41.496 24.0876 41.5932 23.9293 41.6622 23.7466C41.7311 23.5721 41.7635 23.3813 41.7635 23.1742C41.954 23.1742 42.1607 23.1742 42.3877 23.1824C42.6106 23.1905 42.8538 23.1945 43.1132 23.2067C43.3726 23.2148 43.6401 23.2148 43.9157 23.2148C44.3493 23.2148 44.7384 23.2148 45.0911 23.2067C45.4437 23.1986 45.7436 23.1864 45.9827 23.1702C46.003 23.6532 45.9706 24.1119 45.8936 24.5544C45.8125 24.9969 45.6747 25.3906 45.4639 25.7438C45.2532 26.0929 44.9695 26.4055 44.6087 26.6856C44.248 26.9657 43.8103 27.1971 43.3036 27.3797C42.793 27.5665 42.1647 27.7004 41.4149 27.7897C40.6651 27.875 39.8058 27.9196 38.8372 27.9196C37.8685 27.9196 36.9646 27.8263 36.1216 27.6395H36.1175H36.1256Z" fill="#161548"/>
<path d="M59.1402 27.639C59.1604 26.9895 59.1686 26.2466 59.1767 25.4185C59.1848 24.5864 59.1969 23.6852 59.205 22.6947C59.2131 21.7123 59.2172 20.6569 59.2172 19.5446C59.2172 18.8748 59.128 18.3553 58.9578 17.9777C58.7876 17.5962 58.5079 17.3201 58.1148 17.1374C57.7257 16.9629 57.2231 16.8695 56.5989 16.8695C56.0963 16.8695 55.6343 16.9345 55.2127 17.0684C54.7912 17.1983 54.4183 17.3972 54.1022 17.6611C53.782 17.925 53.5348 18.2659 53.3645 18.6719C53.1943 19.0859 53.1051 19.5893 53.1051 20.1941V22.5648C53.1051 23.2468 53.1051 23.8394 53.1173 24.3469C53.1254 24.8543 53.1295 25.3008 53.1295 25.6986C53.1295 26.0964 53.1295 26.4455 53.1416 26.7581C53.1497 27.0707 53.1538 27.363 53.1538 27.6431H48.2617C48.3144 27.0057 48.3468 26.3562 48.3509 25.6986C48.359 25.041 48.363 24.3103 48.363 23.5147V20.7137C48.363 19.2118 48.363 17.8803 48.3509 16.7234C48.3428 15.5665 48.3144 14.511 48.2617 13.549H53.1538C53.1741 13.9509 53.1659 14.3203 53.1416 14.6531C53.1173 14.986 53.1011 15.331 53.0889 15.6883C53.0808 16.0455 53.0768 16.4636 53.0768 16.9467L52.9471 15.7573L53.5429 15.8506L52.8174 16.8533C53.0606 16.0333 53.4416 15.3594 53.9563 14.8399C54.471 14.3203 55.1236 13.9387 55.9099 13.6992C56.6962 13.4597 57.5797 13.3379 58.5646 13.3379C59.736 13.3379 60.733 13.5124 61.5396 13.8697C62.3502 14.2269 62.9622 14.783 63.3757 15.5462C63.7891 16.3053 63.9998 17.3242 63.9998 18.5948V19.9222C63.9998 20.3119 63.9998 20.6691 63.9877 21.002C63.9796 21.3348 63.9755 21.6474 63.9755 21.9356V22.8327C63.9755 23.7339 63.9755 24.5661 63.9877 25.3414C63.9958 26.1167 64.016 26.888 64.0525 27.6431H59.1321H59.1361L59.1402 27.639Z" fill="#161548"/>
<path d="M68.3143 10.5969C68.7561 10.605 69.1654 10.605 69.5424 10.605H70.3449C70.6043 10.605 70.8718 10.605 71.1474 10.5969C71.423 10.5888 71.6824 10.5766 71.9256 10.5645C71.8931 11.3844 71.8648 12.241 71.8445 13.1218C71.8242 14.0068 71.8121 14.9323 71.7918 15.9025C71.7715 16.8727 71.7594 17.8916 71.7553 18.9592C71.7472 20.0309 71.7432 21.1553 71.7432 22.3325C71.7432 22.7344 71.808 23.0673 71.9377 23.3189C72.0674 23.5706 72.2903 23.7614 72.6105 23.8751C72.9307 23.9928 73.3563 24.0496 73.8954 24.0496C74.4344 24.0496 74.937 24.005 75.4193 23.9116C75.9016 23.8182 76.3353 23.7046 76.7123 23.5625C76.7325 23.8101 76.7528 24.0618 76.7893 24.3175C76.8217 24.5733 76.8622 24.8331 76.9068 25.0969C76.9473 25.3608 76.996 25.6247 77.0527 25.8845C77.1054 26.1483 77.1419 26.3919 77.1703 26.6192C77.1986 26.8465 77.2351 27.0738 77.2878 27.3052C76.8217 27.3986 76.384 27.4798 75.9827 27.561C75.5774 27.6381 75.1559 27.6949 74.7141 27.7355C74.2723 27.7761 73.7778 27.7964 73.2266 27.7964C72.0553 27.7964 71.0744 27.6746 70.2881 27.4351C69.5018 27.1956 68.8695 26.8546 68.3872 26.4081C67.9049 25.9656 67.5685 25.442 67.378 24.8412C67.1875 24.2364 67.0943 23.5625 67.0943 22.8196V21.0051C67.0943 20.3353 67.0943 19.6412 67.1065 18.9145C67.1146 18.1879 67.1186 17.441 67.1186 16.6819C67.1186 15.9228 67.1186 15.1799 67.1308 14.4493C67.1389 13.7226 67.1429 13.0244 67.1429 12.3587V10.5685C67.4874 10.5807 67.8806 10.5969 68.3183 10.601H68.3102L68.3143 10.5969ZM66.8998 13.5521C67.5037 13.5603 68.1319 13.5643 68.7885 13.5765C69.4451 13.5846 70.1219 13.5887 70.8191 13.6009C71.5162 13.609 72.2214 13.609 72.9388 13.609C73.6562 13.609 74.3412 13.609 75.01 13.6009C75.6747 13.5927 76.2988 13.5724 76.8906 13.544C76.8703 13.9134 76.8582 14.3153 76.8379 14.7415C76.8176 15.1678 76.8095 15.5981 76.8095 16.0324V17.2664C76.4812 17.234 76.1043 17.2218 75.6706 17.2218C75.2369 17.2218 74.7668 17.2137 74.2601 17.1974C73.7535 17.1853 73.2307 17.165 72.7078 17.1528C72.1809 17.1406 71.6419 17.1284 71.0906 17.1284C70.5394 17.1284 69.9882 17.1284 69.4491 17.1203C68.906 17.1122 68.3872 17.1122 67.8968 17.1122C67.4064 17.1122 66.9403 17.1122 66.4985 17.1041C66.0567 17.096 65.6555 17.096 65.2947 17.096V15.3139C65.2947 14.981 65.2947 14.6603 65.2826 14.3478C65.2745 14.0352 65.2583 13.7713 65.2461 13.5603C65.7487 13.5603 66.2958 13.5603 66.8998 13.5684V13.5603V13.5521Z" fill="#161548"/>
<path d="M95.9069 27.6377C95.684 27.6377 95.5057 27.6296 95.376 27.6052C95.2463 27.5809 95.1449 27.5403 95.0639 27.4753C94.9828 27.4144 94.9342 27.3211 94.9099 27.1952C94.8815 27.0694 94.8734 26.8826 94.8734 26.6391C94.8734 26.4402 94.8734 26.1966 94.8855 25.9206C94.8937 25.6405 94.9099 25.3563 94.922 25.0559C94.9423 24.7637 94.9545 24.5039 94.9747 24.2887L95.2868 25.3157L94.5613 25.2711L95.0558 24.1548C94.9666 24.991 94.7032 25.6851 94.2533 26.2372C93.8034 26.7893 93.2035 27.1912 92.4415 27.4591C91.6836 27.7229 90.7676 27.8528 89.6976 27.8528C88.8505 27.8528 88.1129 27.7879 87.4684 27.6539C86.8321 27.524 86.2971 27.3048 85.8634 27.0044C85.4297 26.704 85.1095 26.3103 84.8907 25.8313C84.6758 25.3482 84.5664 24.7353 84.5664 23.9924C84.5664 23.0303 84.8096 22.2469 85.2919 21.6461C85.7742 21.0412 86.52 20.5947 87.5292 20.2943C88.5384 20.002 89.7827 19.8518 91.2661 19.8518C92.0443 19.8518 92.7739 19.8721 93.4508 19.9127C94.1357 19.9493 94.6951 20.0183 95.149 20.1116V22.0195C94.6464 21.9424 94.1276 21.8937 93.5805 21.8815C93.0373 21.8693 92.478 21.8572 91.9106 21.8572C91.254 21.8572 90.7311 21.914 90.3299 22.0195C89.9327 22.1251 89.6368 22.2996 89.4382 22.531C89.2396 22.7624 89.1423 23.0628 89.1423 23.4363C89.1423 23.7488 89.2275 24.0127 89.3896 24.2238C89.5517 24.443 89.803 24.5932 90.1394 24.6865C90.4758 24.7799 90.9216 24.8246 91.4729 24.8246C91.9552 24.8246 92.401 24.7596 92.8185 24.6257C93.2319 24.4958 93.5845 24.305 93.8804 24.0533C94.1722 23.8057 94.3951 23.5012 94.5532 23.148C94.7113 22.7949 94.7842 22.3808 94.7842 21.914C94.7842 21.6014 94.7842 21.2686 94.7964 20.9113C94.8045 20.5541 94.8166 20.201 94.8247 19.8518C94.8329 19.5027 94.8369 19.1658 94.8369 18.8411C94.8369 18.5163 94.7964 18.1956 94.7072 17.9318C94.618 17.6679 94.4802 17.4528 94.2776 17.2904C94.079 17.128 93.8074 16.9981 93.4629 16.9048C93.1184 16.8114 92.6969 16.7667 92.1943 16.7667C91.639 16.7667 91.1891 16.8073 90.8365 16.8966C90.4839 16.9819 90.2042 17.1199 90.0097 17.3066C89.8111 17.4934 89.6814 17.7288 89.6084 18.017C89.5395 18.3052 89.5314 18.6584 89.5801 19.0765C89.2882 19.0643 88.9559 19.0522 88.5952 19.0522H87.5333C87.205 19.0522 86.8969 19.0522 86.6051 19.044C86.3133 19.0359 86.0255 19.044 85.7418 19.0684C85.4581 19.0928 85.2108 19.1212 85.0041 19.1536C84.9352 18.1023 85.0447 17.2052 85.3405 16.4663C85.6324 15.7275 86.0863 15.1227 86.6862 14.6396C87.2901 14.1566 88.0642 13.8075 89.0005 13.5923C89.9408 13.3731 91.0027 13.2676 92.1943 13.2676C93.5561 13.2676 94.7153 13.3894 95.6637 13.6289C96.6122 13.8684 97.3701 14.2134 97.9416 14.664C98.509 15.1146 98.9265 15.6788 99.1818 16.3608C99.4412 17.0428 99.5709 17.8344 99.5709 18.7315C99.5709 19.3201 99.5628 19.8721 99.5425 20.3836C99.5223 20.8951 99.5101 21.3944 99.5061 21.8815C99.4979 22.3686 99.4939 22.9004 99.4939 23.4728C99.4939 23.8747 99.5061 24.2887 99.5304 24.715C99.5587 25.1412 99.575 25.539 99.5952 25.9125C99.6155 26.2859 99.6479 26.6229 99.6966 26.9232C99.7492 27.2236 99.7979 27.4631 99.8506 27.6336H95.8867H95.9069V27.6377Z" fill="#161548"/>
<path d="M125.942 10.1896C125.922 10.8838 125.906 11.6226 125.878 12.3979C125.849 13.1732 125.841 14.1069 125.841 15.1907C125.841 15.6413 125.841 16.1528 125.853 16.7252C125.861 17.3016 125.873 17.8943 125.882 18.5153C125.89 19.1364 125.894 19.725 125.894 20.2812C125.894 21.1945 125.792 22.0551 125.582 22.8507C125.371 23.6504 125.039 24.3568 124.572 24.9819C124.106 25.607 123.527 26.1307 122.826 26.5772C122.128 27.0197 121.289 27.3526 120.313 27.5799C119.336 27.8031 118.201 27.9168 116.908 27.9168C115.615 27.9168 114.468 27.8072 113.467 27.5799C112.466 27.3566 111.611 27.0238 110.905 26.5772C110.2 26.1348 109.617 25.603 109.159 24.9819C108.705 24.3608 108.368 23.6504 108.162 22.8507C107.951 22.051 107.849 21.1945 107.849 20.2812C107.849 19.725 107.849 19.1364 107.862 18.5153C107.87 17.8943 107.882 17.3016 107.89 16.7252C107.898 16.1487 107.902 15.6413 107.902 15.1907C107.902 14.1069 107.89 13.1814 107.866 12.4223C107.837 11.6632 107.821 10.9203 107.801 10.1896H112.977C112.956 10.6077 112.944 11.0867 112.924 11.6185C112.904 12.1503 112.891 12.7186 112.887 13.3153C112.879 13.912 112.867 14.5209 112.859 15.142C112.851 15.7631 112.839 16.3761 112.831 16.9809C112.823 17.5857 112.818 18.1541 112.818 18.694V20.1472C112.818 21.0321 112.968 21.7466 113.268 22.2987C113.572 22.8507 114.022 23.2607 114.626 23.5327C115.23 23.8006 116.016 23.9427 116.985 23.9427C117.954 23.9427 118.667 23.8087 119.235 23.5327C119.802 23.2607 120.219 22.8507 120.475 22.2987C120.734 21.7466 120.86 21.0321 120.86 20.1472V18.6818C120.86 18.1378 120.86 17.5695 120.848 16.9687C120.84 16.372 120.823 15.759 120.811 15.1177C120.791 14.4803 120.779 13.8633 120.775 13.2666C120.767 12.6699 120.754 12.1097 120.746 11.5901C120.738 11.0705 120.734 10.6037 120.734 10.1855H125.938L125.942 10.1896Z" fill="#161548"/>
<path d="M139.765 27.639C139.785 26.9895 139.794 26.2466 139.802 25.4185C139.81 24.5864 139.822 23.6852 139.83 22.6947C139.838 21.7123 139.842 20.6569 139.842 19.5446C139.842 18.8748 139.753 18.3553 139.583 17.9777C139.413 17.5962 139.133 17.3201 138.74 17.1374C138.355 16.9629 137.848 16.8695 137.224 16.8695C136.721 16.8695 136.259 16.9345 135.838 17.0684C135.416 17.1983 135.043 17.3972 134.727 17.6611C134.407 17.925 134.16 18.2659 133.99 18.6719C133.819 19.0859 133.73 19.5893 133.73 20.1941V22.5648C133.73 23.2468 133.73 23.8394 133.742 24.3469C133.75 24.8543 133.754 25.3008 133.754 25.6986C133.754 26.0964 133.754 26.4455 133.767 26.7581C133.775 27.0707 133.779 27.363 133.779 27.6431H128.887C128.939 27.0057 128.972 26.3562 128.976 25.6986C128.984 25.041 128.988 24.3103 128.988 23.5147V20.7137C128.988 19.2118 128.988 17.8803 128.976 16.7234C128.968 15.5665 128.939 14.511 128.887 13.549H133.779C133.799 13.9509 133.791 14.3203 133.767 14.6531C133.738 14.986 133.726 15.331 133.714 15.6883C133.706 16.0455 133.702 16.4636 133.702 16.9467L133.572 15.7573L134.168 15.8506L133.442 16.8533C133.686 16.0333 134.067 15.3594 134.581 14.8399C135.096 14.3203 135.749 13.9387 136.535 13.6992C137.321 13.4597 138.205 13.3379 139.19 13.3379C140.361 13.3379 141.358 13.5124 142.165 13.8697C142.975 14.2269 143.587 14.783 144.001 15.5462C144.414 16.3053 144.625 17.3242 144.625 18.5948V19.9222C144.625 20.3119 144.625 20.6691 144.613 21.002C144.605 21.3348 144.601 21.6474 144.601 21.9356V22.8327C144.601 23.7339 144.601 24.5661 144.613 25.3414C144.621 26.1167 144.641 26.888 144.678 27.6431H139.757H139.761L139.765 27.639Z" fill="#161548"/>
<path d="M160.025 10.5969C160.467 10.605 160.876 10.605 161.253 10.605H162.056C162.315 10.605 162.583 10.605 162.858 10.5969C163.134 10.5888 163.393 10.5766 163.637 10.5645C163.604 11.3844 163.576 12.241 163.555 13.1218C163.535 14.0068 163.523 14.9323 163.503 15.9025C163.482 16.8727 163.47 17.8916 163.466 18.9592C163.458 20.0309 163.454 21.1553 163.454 22.3325C163.454 22.7344 163.519 23.0673 163.649 23.3189C163.778 23.5706 164.001 23.7614 164.321 23.8751C164.642 23.9928 165.067 24.0496 165.606 24.0496C166.145 24.0496 166.648 24.005 167.13 23.9116C167.613 23.8182 168.046 23.7046 168.423 23.5625C168.443 23.8101 168.464 24.0618 168.5 24.3175C168.533 24.5733 168.573 24.8331 168.618 25.0969C168.658 25.3608 168.707 25.6247 168.764 25.8845C168.816 26.1483 168.853 26.3919 168.881 26.6192C168.91 26.8465 168.946 27.0738 168.999 27.3052C168.533 27.3986 168.095 27.4798 167.694 27.561C167.288 27.6381 166.867 27.6949 166.425 27.7355C165.983 27.7721 165.489 27.7964 164.938 27.7964C163.766 27.7964 162.785 27.6746 161.999 27.4351C161.213 27.1956 160.58 26.8546 160.098 26.4081C159.616 25.9656 159.279 25.442 159.089 24.8412C158.898 24.2364 158.805 23.5625 158.805 22.8196V21.0051C158.805 20.3353 158.805 19.6412 158.817 18.9145C158.825 18.1879 158.83 17.441 158.83 16.6819C158.83 15.9228 158.83 15.1799 158.842 14.4493C158.85 13.7226 158.854 13.0244 158.854 12.3587V10.5685C159.198 10.5807 159.592 10.5969 160.029 10.601H160.021L160.025 10.5969ZM158.611 13.5521C159.215 13.5603 159.843 13.5643 160.499 13.5765C161.156 13.5846 161.833 13.5887 162.53 13.6009C163.227 13.609 163.932 13.609 164.65 13.609C165.367 13.609 166.052 13.609 166.721 13.6009C167.386 13.5927 168.01 13.5724 168.602 13.544C168.581 13.9134 168.569 14.3153 168.549 14.7415C168.529 15.1678 168.52 15.5981 168.52 16.0324V17.2664C168.192 17.234 167.815 17.2218 167.382 17.2218C166.948 17.2218 166.478 17.2137 165.971 17.1974C165.464 17.1812 164.942 17.165 164.419 17.1528C163.892 17.1406 163.353 17.1284 162.802 17.1284C162.25 17.1284 161.699 17.1284 161.16 17.1203C160.617 17.1122 160.098 17.1122 159.608 17.1122C159.117 17.1122 158.651 17.1122 158.209 17.1041C157.768 17.096 157.366 17.096 157.006 17.096V15.3139C157.006 14.981 157.006 14.6603 156.994 14.3478C156.985 14.0352 156.969 13.7713 156.957 13.5603C157.46 13.5603 158.007 13.5603 158.611 13.5684V13.5603V13.5521Z" fill="#161548"/>
</svg>
