<svg width="38" height="38" viewBox="0 0 38 38" fill="none" xmlns="http://www.w3.org/2000/svg">
<path d="M13.6667 10.6667H23.6667M13.6667 17.3333H23.6667M13.6667 24H20.3333M7 7.33333C7 6.44928 7.35119 5.60143 7.97631 4.97631C8.60143 4.35119 9.44928 4 10.3333 4H27C27.8841 4 28.7319 4.35119 29.357 4.97631C29.9821 5.60143 30.3333 6.44928 30.3333 7.33333V30.6667C30.3333 31.5507 29.9821 32.3986 29.357 33.0237C28.7319 33.6488 27.8841 34 27 34H10.3333C9.44928 34 8.60143 33.6488 7.97631 33.0237C7.35119 32.3986 7 31.5507 7 30.6667V7.33333Z" stroke="white" stroke-width="2.3" stroke-linecap="round" stroke-linejoin="round"/>
</svg>
