<svg width="32" height="32" viewBox="0 0 32 32" fill="none" xmlns="http://www.w3.org/2000/svg">
<path d="M13.25 26.5347L15.0503 27.5348C15.3969 27.7274 15.5702 27.8237 15.7538 27.8614C15.9162 27.8948 16.0838 27.8948 16.2462 27.8614C16.4298 27.8237 16.6031 27.7274 16.9497 27.5348L18.75 26.5347M7.75 23.4791L6.00585 22.5101C5.63978 22.3068 5.45672 22.2051 5.32344 22.0604C5.20553 21.9325 5.11629 21.7808 5.0617 21.6156C5 21.4288 5 21.2195 5 20.8007V18.8958M5 12.7847V10.8798C5 10.461 5 10.2516 5.0617 10.0648C5.11629 9.89962 5.20553 9.74796 5.32344 9.62001C5.45673 9.47537 5.63977 9.37368 6.00585 9.1703L7.75 8.20133M13.25 5.14577L15.0503 4.14561C15.3969 3.95304 15.5702 3.85675 15.7538 3.819C15.9162 3.78559 16.0838 3.78559 16.2462 3.819C16.4298 3.85675 16.6031 3.95304 16.9497 4.14561L18.75 5.14577M24.25 8.20133L25.9941 9.1703C26.3602 9.37368 26.5433 9.47537 26.6766 9.62C26.7945 9.74796 26.8837 9.89961 26.9383 10.0648C27 10.2516 27 10.461 27 10.8798V12.7847M27 18.8958V20.8007C27 21.2195 27 21.4288 26.9383 21.6156C26.8837 21.7808 26.7945 21.9325 26.6766 22.0604C26.5433 22.2051 26.3602 22.3068 25.9941 22.5101L24.25 23.4791M13.25 14.3124L16 15.8402M16 15.8402L18.75 14.3124M16 15.8402V18.8958M5 9.72911L7.75 11.2569M24.25 11.2569L27 9.72911M16 25.0069V28.0624" stroke="#D80043" stroke-width="2" stroke-linecap="round" stroke-linejoin="round"/>
</svg>
