<svg width="32" height="32" viewBox="0 0 32 32" fill="none" xmlns="http://www.w3.org/2000/svg">
<path d="M20.2204 27.8447C21.3958 28.0518 22.6042 28.0518 23.7796 27.8447C25.6688 27.5118 27.1905 26.2434 27.7146 24.5648L27.8258 24.2087C27.9414 23.8386 28 23.4558 28 23.0712C28 21.375 26.4831 20 24.6119 20H19.3881C17.5169 20 16 21.375 16 23.0712C16 23.4558 16.0586 23.8386 16.1742 24.2087L16.2854 24.5648C16.8095 26.2434 18.3312 27.5118 20.2204 27.8447ZM20.2204 27.8447C12.0559 26.3319 5.66811 19.9441 4.15534 11.7796M4.15534 11.7796C3.94822 10.6042 3.94822 9.39581 4.15534 8.22042C4.48824 6.33122 5.75659 4.8095 7.43521 4.28536L7.79127 4.17418C8.16137 4.05861 8.54417 4 8.92881 4C10.625 4 12 5.5169 12 7.38808L12 12.6119C12 14.4831 10.625 16 8.92881 16C8.54417 16 8.16137 15.9414 7.79127 15.8258L7.43521 15.7146C5.75659 15.1905 4.48824 13.6688 4.15534 11.7796Z" stroke="#D80043" stroke-width="2"/>
</svg>
