<svg width="6" height="12" viewBox="0 0 6 12" fill="none" xmlns="http://www.w3.org/2000/svg">
<path d="M0.22944 11.7359C0.0825298 11.5667 3.20144e-07 11.3373 3.09687e-07 11.098C2.9923e-07 10.8588 0.0825297 10.6294 0.22944 10.4602L4.10846 5.99455L0.229439 1.52889C0.0866928 1.35874 0.00770647 1.13086 0.00949192 0.894314C0.0112774 0.657772 0.0936919 0.431501 0.238985 0.264234C0.384278 0.0969677 0.580825 0.00208993 0.786293 3.4441e-05C0.991761 -0.00202105 1.18971 0.088911 1.33751 0.253246L5.77056 5.35673C5.91747 5.52591 6 5.75533 6 5.99455C6 6.23377 5.91747 6.4632 5.77056 6.63238L1.33751 11.7359C1.19055 11.905 0.991267 12 0.783474 12C0.57568 12 0.376394 11.905 0.22944 11.7359Z" fill="#3C4C5A"/>
</svg>
