<svg width="32" height="32" viewBox="0 0 32 32" fill="none" xmlns="http://www.w3.org/2000/svg">
<g id="vuesax/linear/slider-vertical">
<g id="slider-vertical">
<path id="Icon" d="M29 22.6667V17.3333C29 9.96954 23.1797 4 16 4C8.8203 4 3 9.96954 3 17.3333V22.6667M10.15 28C8.35507 28 6.9 26.5076 6.9 24.6667V20.6667C6.9 18.8257 8.35507 17.3333 10.15 17.3333C11.9449 17.3333 13.4 18.8257 13.4 20.6667V24.6667C13.4 26.5076 11.9449 28 10.15 28ZM21.85 28C20.0551 28 18.6 26.5076 18.6 24.6667V20.6667C18.6 18.8257 20.0551 17.3333 21.85 17.3333C23.6449 17.3333 25.1 18.8257 25.1 20.6667V24.6667C25.1 26.5076 23.6449 28 21.85 28Z" stroke="#D80043" stroke-width="2" stroke-linecap="round" stroke-linejoin="round"/>
</g>
</g>
</svg>
