<svg width="48" height="49" viewBox="0 0 48 49" fill="none" xmlns="http://www.w3.org/2000/svg">
<g clip-path="url(#clip0_169_646)">
<path d="M36.0637 39.5317C36.0637 40.191 36.0637 40.7776 36.0637 41.3654C36.0485 43.2782 34.8341 44.496 32.9386 44.4973C27.0465 44.4973 21.154 44.4973 15.261 44.4973C13.3428 44.4973 12.1435 43.2706 12.1385 41.3195C12.1385 40.7483 12.1385 40.1719 12.1385 39.5343H3.21564C1.49325 39.5343 0.5 38.5409 0.5 36.8156C0.5 28.6042 0.5 20.3929 0.5 12.1816C0.5 10.4779 1.49451 9.4718 3.17394 9.47052C5.9692 9.47052 8.7653 9.47052 11.5622 9.47052H12.1385C12.1385 8.84441 12.1385 8.26037 12.1385 7.67634C12.1385 5.72785 13.3428 4.50623 15.2661 4.50623C21.1582 4.50623 27.0507 4.50623 32.9437 4.50623C34.8468 4.50623 36.0511 5.72148 36.0637 7.63681C36.0637 8.22467 36.0637 8.81125 36.0637 9.47052H36.6526C39.3847 9.47052 42.1176 9.47052 44.8513 9.47052C46.5004 9.47052 47.4975 10.4907 47.4975 12.1612C47.4975 20.3887 47.4975 28.6162 47.4975 36.8436C47.4975 38.5192 46.5017 39.5317 44.8513 39.533C42.1176 39.533 39.3847 39.533 36.6526 39.533L36.0637 39.5317ZM14.3082 24.4514C14.3082 30.0316 14.3082 35.6122 14.3082 41.1933C14.3082 42.1178 14.494 42.3014 15.424 42.3014H32.8186C33.6804 42.3014 33.8877 42.0987 33.8889 41.2418V7.75667C33.8889 6.89975 33.6804 6.697 32.8173 6.697H15.424C14.4927 6.697 14.3082 6.87934 14.3082 7.80513C14.3074 13.3539 14.3074 18.9026 14.3082 24.4514ZM12.1145 34.0739C11.1541 34.0739 10.2404 34.0816 9.32679 34.0739C7.64357 34.0561 6.33693 32.7988 6.21183 31.0926C6.16508 30.3123 6.41275 29.5432 6.90506 28.9397C7.39736 28.3362 8.09779 27.9432 8.86555 27.8396C9.75013 27.7273 10.6625 27.7886 11.561 27.7733C11.7429 27.7733 11.9237 27.7733 12.1018 27.7733V20.4027H6.28891V18.1992H12.1018V11.6868C12.0152 11.6724 11.9279 11.6626 11.8403 11.6575C8.94895 11.6575 6.05766 11.6575 3.16762 11.6485C2.71017 11.6485 2.66215 11.8742 2.66215 12.2453C2.66889 20.4065 2.66889 28.5677 2.66215 36.7289C2.66215 37.318 2.68111 37.3371 3.28388 37.3371H11.6242C11.7771 37.3371 11.93 37.3206 12.1031 37.3116L12.1145 34.0739ZM36.0902 37.3193C36.2672 37.3282 36.4201 37.3422 36.573 37.3422H44.7275C45.3126 37.3422 45.329 37.3244 45.329 36.7136V12.2721C45.329 11.6728 45.3126 11.6562 44.7149 11.6562H36.5629C36.4125 11.6562 36.2608 11.674 36.0978 11.6842V18.2221H41.6947V20.404H36.094V27.7707C36.9887 27.7707 37.8556 27.7516 38.7212 27.7707C39.4468 27.7797 40.1464 28.0448 40.6986 28.52C41.2507 28.9952 41.6206 29.6504 41.7439 30.3721C41.876 31.0748 41.7625 31.802 41.4228 32.4298C41.0832 33.0575 40.5384 33.5471 39.8813 33.8151C39.4518 33.9679 39.0009 34.0501 38.5456 34.0586C37.7318 34.0956 36.9167 34.0688 36.089 34.0688L36.0902 37.3193ZM12.1132 29.9627C11.1427 29.9627 10.2291 29.9474 9.31668 29.9691C9.07787 29.9723 8.84892 30.0658 8.67508 30.231C8.50124 30.3963 8.39515 30.6214 8.37777 30.8618C8.34618 31.3017 8.67347 31.8207 9.10691 31.8398C10.104 31.8832 11.1048 31.8538 12.1132 31.8538V29.9627ZM36.0877 31.8755C37.0178 31.8755 37.8986 31.8934 38.7768 31.8679C39.0081 31.8545 39.2255 31.7526 39.3848 31.5829C39.544 31.4132 39.633 31.1885 39.6336 30.9548C39.6475 30.4894 39.3063 30.0125 38.8286 29.9895C37.9238 29.9462 37.0165 29.9768 36.0877 29.9768V31.8755Z" fill="white"/>
<path d="M23.8842 30.706C24.8623 30.706 25.8416 30.6945 26.8197 30.706C27.7301 30.7031 28.6052 31.0612 29.2566 31.703C29.908 32.3448 30.2836 33.219 30.3024 34.1375C30.3707 35.9853 28.9629 37.6354 27.0813 37.7081C24.9394 37.7948 22.7848 37.7973 20.6454 37.7081C18.7271 37.6264 17.3826 35.9827 17.4534 34.0202C17.5191 32.2082 19.0405 30.7353 20.9019 30.7047C21.8952 30.6933 22.8897 30.706 23.8842 30.706ZM23.9057 32.8942C22.944 32.8942 21.9811 32.884 21.0195 32.8942C20.1854 32.9057 19.6357 33.4273 19.6218 34.1911C19.6079 34.9549 20.1728 35.5568 21.0043 35.5632C22.9124 35.5776 24.8202 35.5776 26.7275 35.5632C27.5615 35.5568 28.1504 34.9639 28.1403 34.2077C28.1302 33.4515 27.5426 32.9032 26.6959 32.8942C25.7721 32.8853 24.8358 32.8942 23.9057 32.8942Z" fill="white"/>
<path d="M31.381 15.0375V17.1543H16.9536V15.0375H31.381Z" fill="white"/>
<path d="M20.3853 24.4558V22.325H27.6843V24.4558H20.3853Z" fill="white"/>
</g>
<defs>
<clipPath id="clip0_169_646">
<rect width="47" height="40" fill="white" transform="translate(0.5 4.5)"/>
</clipPath>
</defs>
</svg>
