<svg width="32" height="32" viewBox="0 0 32 32" fill="none" xmlns="http://www.w3.org/2000/svg">
<g id="vuesax/linear/slider-vertical">
<g id="slider-vertical">
<path id="Vector" d="M11.7143 9.33333H20.2857M11.7143 14.6667H20.2857M11.7143 20H17.4286M6 6.66667C6 5.95942 6.30102 5.28115 6.83684 4.78105C7.37266 4.28095 8.09938 4 8.85714 4H23.1429C23.9006 4 24.6273 4.28095 25.1632 4.78105C25.699 5.28115 26 5.95942 26 6.66667V25.3333C26 26.0406 25.699 26.7189 25.1632 27.219C24.6273 27.719 23.9006 28 23.1429 28H8.85714C8.09938 28 7.37266 27.719 6.83684 27.219C6.30102 26.7189 6 26.0406 6 25.3333V6.66667Z" stroke="#D80043" stroke-width="2" stroke-linecap="round" stroke-linejoin="round"/>
</g>
</g>
</svg>
