<svg width="38" height="44" viewBox="0 0 38 44" fill="none" xmlns="http://www.w3.org/2000/svg">
<path d="M18.168 10.1685L18.1682 10.1688C19.6523 11.6929 21.8132 12.8483 24.0338 13.6589C21.8135 14.4696 19.6524 15.6247 18.1688 17.1489L18.1686 17.1491C16.7061 18.6522 15.5945 20.8301 14.8096 23.0738C14.0242 20.8306 12.9124 18.6531 11.4498 17.1504C9.96604 15.6256 7.80499 14.4703 5.58416 13.6599C7.80441 12.8489 9.96536 11.6937 11.4489 10.1702L11.449 10.1701C12.9123 8.66687 14.0237 6.48896 14.8086 4.24548C15.5937 6.48846 16.7055 8.66559 18.168 10.1685Z" stroke="white" stroke-width="2" stroke-linejoin="round"/>
<path d="M31.1091 26.6397L31.1094 26.6401C31.8418 27.4099 32.8194 28.0197 33.8439 28.4869C32.8195 28.9544 31.8419 29.5643 31.1098 30.3342L31.1096 30.3345C30.4118 31.0688 29.8553 32.0346 29.4234 33.05C28.9913 32.0347 28.4346 31.0689 27.7364 30.3349C27.004 29.5646 26.0265 28.9547 25.002 28.4875C26.0264 28.02 27.0037 27.4103 27.736 26.641L27.7364 26.6406C28.4347 25.9062 28.991 24.9401 29.4228 23.9247C29.855 24.9401 30.4116 25.9058 31.1091 26.6397Z" stroke="white" stroke-width="2" stroke-linejoin="round"/>
<path d="M9.30937 35.4014L9.30917 35.4016C8.74175 35.9841 8.01334 36.4546 7.24763 36.8269C8.01321 37.1989 8.74176 37.6693 9.30934 38.2527L9.30937 35.4014ZM9.30937 35.4014C9.85931 34.8365 10.3048 34.1177 10.6595 33.3617M9.30937 35.4014L10.6595 33.3617M10.6595 33.3617C11.0145 34.1177 11.4602 34.8362 12.0099 35.4007L10.6595 33.3617ZM10.6601 40.2918C11.0149 39.5359 11.4605 38.8174 12.0104 38.2523L10.6601 40.2918ZM10.6601 40.2918C10.3051 39.536 9.85938 38.8177 9.30965 38.253L10.6601 40.2918ZM14.0717 36.8263C13.3061 37.1985 12.5778 37.6691 12.0105 38.2522L14.0717 36.8263ZM14.0717 36.8263C13.3061 36.4543 12.5776 35.9837 12.0101 35.4009L14.0717 36.8263Z" stroke="white" stroke-width="2" stroke-linejoin="round"/>
</svg>
