<svg width="25" height="16" viewBox="0 0 25 16" fill="none" xmlns="http://www.w3.org/2000/svg">
<path d="M24.5 0.0175781H0.5V15.9814H24.5V0.0175781Z" fill="#B31942"/>
<path d="M0.5 1.86133H24.5H0.5ZM24.5 4.3173H0.5H24.5ZM0.5 6.77327H24.5H0.5ZM24.5 9.22924H0.5H24.5ZM0.5 11.6852H24.5H0.5ZM24.5 14.1412H0.5H24.5Z" fill="#000008"/>
<path d="M0.5 1.86133H24.5M24.5 4.3173H0.5M0.5 6.77327H24.5M24.5 9.22924H0.5M0.5 11.6852H24.5M24.5 14.1412H0.5" stroke="white" stroke-width="1.22799"/>
<path d="M12.6325 0.0175781H0.5V8.61347H12.6325V0.0175781Z" fill="#0A3161"/>
<path d="M1.51403 0.388672L1.80275 1.27725L1.04688 0.728079H1.98118L1.22531 1.27725L1.51403 0.388672Z" fill="white"/>
<path d="M1.51403 2.10742L1.80275 2.996L1.04688 2.44683H1.98118L1.22531 2.996L1.51403 2.10742Z" fill="white"/>
<path d="M1.51403 3.82617L1.80275 4.71475L1.04688 4.16558H1.98118L1.22531 4.71475L1.51403 3.82617Z" fill="white"/>
<path d="M1.51403 5.54492L1.80275 6.4335L1.04688 5.88433H1.98118L1.22531 6.4335L1.51403 5.54492Z" fill="white"/>
<path d="M1.51403 7.26367L1.80275 8.15225L1.04688 7.60308H1.98118L1.22531 8.15225L1.51403 7.26367Z" fill="white"/>
<path d="M2.52184 1.24805L2.81056 2.13663L2.05469 1.58745H2.98899L2.23312 2.13663L2.52184 1.24805Z" fill="white"/>
<path d="M2.52184 2.9668L2.81056 3.85538L2.05469 3.3062H2.98899L2.23312 3.85538L2.52184 2.9668Z" fill="white"/>
<path d="M2.52184 4.68555L2.81056 5.57413L2.05469 5.02495H2.98899L2.23312 5.57413L2.52184 4.68555Z" fill="white"/>
<path d="M2.52184 6.4043L2.81056 7.29288L2.05469 6.7437H2.98899L2.23312 7.29288L2.52184 6.4043Z" fill="white"/>
<path d="M3.52965 0.388672L3.81837 1.27725L3.0625 0.728079H3.99681L3.24094 1.27725L3.52965 0.388672Z" fill="white"/>
<path d="M3.52965 2.10742L3.81837 2.996L3.0625 2.44683H3.99681L3.24094 2.996L3.52965 2.10742Z" fill="white"/>
<path d="M3.52965 3.82617L3.81837 4.71475L3.0625 4.16558H3.99681L3.24094 4.71475L3.52965 3.82617Z" fill="white"/>
<path d="M3.52965 5.54492L3.81837 6.4335L3.0625 5.88433H3.99681L3.24094 6.4335L3.52965 5.54492Z" fill="white"/>
<path d="M3.52965 7.26367L3.81837 8.15225L3.0625 7.60308H3.99681L3.24094 8.15225L3.52965 7.26367Z" fill="white"/>
<path d="M4.54528 1.24805L4.834 2.13663L4.07812 1.58745H5.01243L4.25656 2.13663L4.54528 1.24805Z" fill="white"/>
<path d="M4.54528 2.9668L4.834 3.85538L4.07812 3.3062H5.01243L4.25656 3.85538L4.54528 2.9668Z" fill="white"/>
<path d="M4.54528 4.68555L4.834 5.57413L4.07812 5.02495H5.01243L4.25656 5.57413L4.54528 4.68555Z" fill="white"/>
<path d="M4.54528 6.4043L4.834 7.29288L4.07812 6.7437H5.01243L4.25656 7.29288L4.54528 6.4043Z" fill="white"/>
<path d="M5.5609 0.388672L5.84962 1.27725L5.09375 0.728079H6.02806L5.27219 1.27725L5.5609 0.388672Z" fill="white"/>
<path d="M5.5609 2.10742L5.84962 2.996L5.09375 2.44683H6.02806L5.27219 2.996L5.5609 2.10742Z" fill="white"/>
<path d="M5.5609 3.82617L5.84962 4.71475L5.09375 4.16558H6.02806L5.27219 4.71475L5.5609 3.82617Z" fill="white"/>
<path d="M5.5609 5.54492L5.84962 6.4335L5.09375 5.88433H6.02806L5.27219 6.4335L5.5609 5.54492Z" fill="white"/>
<path d="M5.5609 7.26367L5.84962 8.15225L5.09375 7.60308H6.02806L5.27219 8.15225L5.5609 7.26367Z" fill="white"/>
<path d="M6.56872 1.24805L6.85743 2.13663L6.10156 1.58745H7.03587L6.28 2.13663L6.56872 1.24805Z" fill="white"/>
<path d="M6.56872 2.9668L6.85743 3.85538L6.10156 3.3062H7.03587L6.28 3.85538L6.56872 2.9668Z" fill="white"/>
<path d="M6.56872 4.68555L6.85743 5.57413L6.10156 5.02495H7.03587L6.28 5.57413L6.56872 4.68555Z" fill="white"/>
<path d="M6.56872 6.4043L6.85743 7.29288L6.10156 6.7437H7.03587L6.28 7.29288L6.56872 6.4043Z" fill="white"/>
<path d="M7.58434 0.388672L7.87306 1.27725L7.11719 0.728079H8.05149L7.29562 1.27725L7.58434 0.388672Z" fill="white"/>
<path d="M7.58434 2.10742L7.87306 2.996L7.11719 2.44683H8.05149L7.29562 2.996L7.58434 2.10742Z" fill="white"/>
<path d="M7.58434 3.82617L7.87306 4.71475L7.11719 4.16558H8.05149L7.29562 4.71475L7.58434 3.82617Z" fill="white"/>
<path d="M7.58434 5.54492L7.87306 6.4335L7.11719 5.88433H8.05149L7.29562 6.4335L7.58434 5.54492Z" fill="white"/>
<path d="M7.58434 7.26367L7.87306 8.15225L7.11719 7.60308H8.05149L7.29562 8.15225L7.58434 7.26367Z" fill="white"/>
<path d="M8.59215 1.24805L8.88087 2.13663L8.125 1.58745H9.05931L8.30344 2.13663L8.59215 1.24805Z" fill="white"/>
<path d="M8.59215 2.9668L8.88087 3.85538L8.125 3.3062H9.05931L8.30344 3.85538L8.59215 2.9668Z" fill="white"/>
<path d="M8.59215 4.68555L8.88087 5.57413L8.125 5.02495H9.05931L8.30344 5.57413L8.59215 4.68555Z" fill="white"/>
<path d="M8.59215 6.4043L8.88087 7.29288L8.125 6.7437H9.05931L8.30344 7.29288L8.59215 6.4043Z" fill="white"/>
<path d="M9.59997 0.388672L9.88868 1.27725L9.13281 0.728079H10.0671L9.31125 1.27725L9.59997 0.388672Z" fill="white"/>
<path d="M9.59997 2.10742L9.88868 2.996L9.13281 2.44683H10.0671L9.31125 2.996L9.59997 2.10742Z" fill="white"/>
<path d="M9.59997 3.82617L9.88868 4.71475L9.13281 4.16558H10.0671L9.31125 4.71475L9.59997 3.82617Z" fill="white"/>
<path d="M9.59997 5.54492L9.88868 6.4335L9.13281 5.88433H10.0671L9.31125 6.4335L9.59997 5.54492Z" fill="white"/>
<path d="M9.59997 7.26367L9.88868 8.15225L9.13281 7.60308H10.0671L9.31125 8.15225L9.59997 7.26367Z" fill="white"/>
<path d="M10.6078 1.24805L10.8965 2.13663L10.1406 1.58745H11.0749L10.3191 2.13663L10.6078 1.24805Z" fill="white"/>
<path d="M10.6078 2.9668L10.8965 3.85538L10.1406 3.3062H11.0749L10.3191 3.85538L10.6078 2.9668Z" fill="white"/>
<path d="M10.6078 4.68555L10.8965 5.57413L10.1406 5.02495H11.0749L10.3191 5.57413L10.6078 4.68555Z" fill="white"/>
<path d="M10.6078 6.4043L10.8965 7.29288L10.1406 6.7437H11.0749L10.3191 7.29288L10.6078 6.4043Z" fill="white"/>
<path d="M11.6234 0.388672L11.9121 1.27725L11.1562 0.728079H12.0906L11.3347 1.27725L11.6234 0.388672Z" fill="white"/>
<path d="M11.6234 2.10742L11.9121 2.996L11.1562 2.44683H12.0906L11.3347 2.996L11.6234 2.10742Z" fill="white"/>
<path d="M11.6234 3.82617L11.9121 4.71475L11.1562 4.16558H12.0906L11.3347 4.71475L11.6234 3.82617Z" fill="white"/>
<path d="M11.6234 5.54492L11.9121 6.4335L11.1562 5.88433H12.0906L11.3347 6.4335L11.6234 5.54492Z" fill="white"/>
<path d="M11.6234 7.26367L11.9121 8.15225L11.1562 7.60308H12.0906L11.3347 8.15225L11.6234 7.26367Z" fill="white"/>
</svg>
